<svg width="24" height="24" viewBox="0 0 24 24" fill="none" xmlns="http://www.w3.org/2000/svg">
<path d="M9 1.50232C11.0711 1.50232 12.75 3.18125 12.75 5.25232V7.12732C12.75 8.16285 13.5895 9.00232 14.625 9.00232H16.5C18.5711 9.00232 20.25 10.6813 20.25 12.7523V20.6273C20.25 21.6629 19.4105 22.5023 18.375 22.5023H5.625C4.58947 22.5023 3.75 21.6629 3.75 20.6273V3.37732C3.75 2.34179 4.58947 1.50232 5.625 1.50232H9ZM12 10.5023C11.5858 10.5023 11.25 10.8381 11.25 11.2523V11.2816C11.0617 11.296 10.8748 11.3153 10.6895 11.3402C9.85141 11.4529 9.10296 12.1032 9.02051 13.0345C9.00686 13.1888 9 13.3449 9 13.5023C9 14.3572 9.61207 14.9767 10.2822 15.2064L11.25 15.5375V17.2181C10.8008 17.1777 10.3624 17.1019 9.9375 16.9926C9.5364 16.8893 9.12673 17.1305 9.02344 17.5316C8.92019 17.9328 9.16234 18.3415 9.56348 18.4447C10.109 18.5851 10.6727 18.6781 11.25 18.722V18.7523C11.25 19.1665 11.5858 19.5023 12 19.5023C12.4142 19.5023 12.75 19.1665 12.75 18.7523V18.722C12.9385 18.7077 13.1261 18.6894 13.3115 18.6644C14.1494 18.5515 14.8971 17.9013 14.9795 16.9701C14.9931 16.8158 15 16.6598 15 16.5023C15 15.6475 14.3888 15.028 13.7188 14.7982L12.75 14.4662V12.7855C13.1995 12.826 13.6384 12.9027 14.0635 13.0121C14.4645 13.1152 14.8733 12.874 14.9766 12.473C15.0798 12.072 14.8384 11.6634 14.4375 11.5599C13.8918 11.4195 13.3275 11.3256 12.75 11.2816V11.2523C12.75 10.8381 12.4142 10.5023 12 10.5023ZM13.2324 16.2172C13.4404 16.2885 13.5 16.4287 13.5 16.5023C13.5 16.6157 13.4951 16.7278 13.4854 16.8383C13.4724 16.984 13.3448 17.1466 13.1113 17.1781C12.9918 17.1942 12.8712 17.2063 12.75 17.2172V16.0511L13.2324 16.2172ZM11.25 13.9515L10.7686 13.7875C10.5604 13.7161 10.5 13.5759 10.5 13.5023C10.5 13.3889 10.5049 13.2768 10.5146 13.1664C10.5276 13.0206 10.656 12.858 10.8896 12.8265C11.0089 12.8105 11.1291 12.7974 11.25 12.7865V13.9515ZM12.9717 1.81775C16.3703 2.70568 19.0466 5.38198 19.9346 8.78064C19.014 7.98387 17.8131 7.50232 16.5 7.50232H14.625C14.4179 7.50232 14.25 7.33443 14.25 7.12732V5.25232C14.25 3.93927 13.7684 2.73832 12.9717 1.81775Z" fill="black"/>
</svg>
