<svg width="24" height="25" viewBox="0 0 24 25" fill="none" xmlns="http://www.w3.org/2000/svg">
<path fill-rule="evenodd" clip-rule="evenodd" d="M8.16147 2.59236C8.68934 2.32843 9.31066 2.32843 9.83853 2.59236L14.8323 5.08924C14.9379 5.14203 15.0621 5.14203 15.1677 5.08924L19.0365 3.15486C20.2832 2.53151 21.75 3.43807 21.75 4.83191V17.3163C21.75 18.0265 21.3487 18.6758 20.7135 18.9934L15.8385 21.4309C15.3107 21.6948 14.6893 21.6948 14.1615 21.4309L9.16771 18.934C9.06213 18.8812 8.93787 18.8812 8.8323 18.934L4.96353 20.8684C3.71683 21.4917 2.25 20.5852 2.25 19.1913V6.70691C2.25 5.99671 2.65125 5.34747 3.28647 5.02986L8.16147 2.59236ZM9 6.01161C9.41421 6.01161 9.75 6.3474 9.75 6.76161V15.0116C9.75 15.4258 9.41421 15.7616 9 15.7616C8.58579 15.7616 8.25 15.4258 8.25 15.0116V6.76161C8.25 6.3474 8.58579 6.01161 9 6.01161ZM15.75 9.01161C15.75 8.5974 15.4142 8.26161 15 8.26161C14.5858 8.26161 14.25 8.5974 14.25 9.01161V17.2616C14.25 17.6758 14.5858 18.0116 15 18.0116C15.4142 18.0116 15.75 17.6758 15.75 17.2616V9.01161Z" fill="#0F172A"/>
</svg>
