<svg width="24" height="24" viewBox="0 0 24 24" fill="none" xmlns="http://www.w3.org/2000/svg">
<path d="M11.4807 3.50102C11.6729 3.03905 12.3273 3.03905 12.5195 3.50102L14.6454 8.61248C14.7264 8.80724 14.9096 8.94031 15.1199 8.95716L20.6381 9.39956C21.1369 9.43954 21.3391 10.062 20.9591 10.3875L16.7548 13.9889C16.5946 14.1261 16.5246 14.3414 16.5736 14.5466L17.858 19.9315C17.9741 20.4182 17.4447 20.8028 17.0177 20.542L12.2933 17.6564C12.1133 17.5465 11.8869 17.5465 11.7069 17.6564L6.98251 20.542C6.55551 20.8028 6.02606 20.4182 6.14215 19.9315L7.42664 14.5466C7.47558 14.3414 7.40562 14.1261 7.24543 13.9889L3.04111 10.3875C2.66112 10.062 2.86335 9.43954 3.36209 9.39956L8.88034 8.95716C9.0906 8.94031 9.27375 8.80724 9.35476 8.61248L11.4807 3.50102Z" stroke="#A39FED" stroke-width="1.5" stroke-linecap="round" stroke-linejoin="round"/>
</svg>
