<svg width="559" height="271" viewBox="0 0 559 271" fill="none" xmlns="http://www.w3.org/2000/svg">
<g clip-path="url(#clip0_4910_3410)">
<path fill-rule="evenodd" clip-rule="evenodd" d="M207.322 2.1051L225.004 19.8998C227.793 22.7066 227.793 27.257 225.004 30.0638L207.286 47.901C204.497 50.7078 199.975 50.7078 197.186 47.901L179.498 30.1063C176.709 27.2995 176.709 22.7491 179.498 19.9423L197.222 2.1051C200.012 -0.701701 204.533 -0.701701 207.322 2.1051ZM201.074 6.61908L201.002 6.68591L184.056 23.7394C183.38 24.4198 183.362 25.5012 183.99 26.212L184.056 26.2849L200.977 43.3141C201.654 43.9945 202.728 44.0128 203.428 43.3809L203.501 43.3141L220.447 26.2606C221.141 25.562 221.141 24.4259 220.447 23.7211L203.525 6.69198C202.849 6.01154 201.774 5.99332 201.074 6.62515V6.61908ZM202.577 14.1221L213.057 24.675C213.232 24.8512 213.232 25.1306 213.057 25.3129L202.559 35.8779C202.384 36.0541 202.1 36.0541 201.925 35.8779L191.445 25.325C191.27 25.1488 191.27 24.8694 191.445 24.6871L201.943 14.1221C202.118 13.9459 202.402 13.9459 202.577 14.1221Z" fill="white"/>
<path d="M250.039 6.19385L235.864 43.8548H242.481L245.662 35.2522H261.817L265.047 43.8548H271.772L257.597 6.19385H250.039ZM253.685 13.6422L259.626 29.3773H247.848L253.685 13.6422Z" fill="white"/>
<path d="M296.427 38.5023H281.992L296.276 21.0904V16.3213H274.331V21.6737H288.82L274.12 39.1342V43.8547H296.427V38.5023Z" fill="white"/>
<path d="M302.681 36.935C302.681 42.5425 305.494 44.1707 310.71 44.1707C312.328 44.1707 313.892 44.0128 315.039 43.8062V38.5085C314.103 38.6118 313.529 38.6665 312.485 38.6665C310.245 38.6665 308.839 38.4052 308.839 35.9387V21.6738H314.574V16.3214H308.839V8.24121H302.687V16.3214H298.884V21.6738H302.687V36.935H302.681Z" fill="white"/>
<path d="M330.771 44.4321C336.246 44.4321 340.569 41.5463 342.5 36.7164L337.134 34.669C336.301 37.5001 333.85 39.0797 330.777 39.0797C326.762 39.0797 323.949 36.1939 323.478 31.4734H342.657V29.3774C342.657 21.8258 338.438 15.793 330.511 15.793C322.585 15.793 317.483 22.0323 317.483 30.1125C317.483 38.6058 322.959 44.4321 330.777 44.4321H330.771ZM330.457 21.0907C334.417 21.0907 336.294 23.7091 336.349 26.7589H323.786C324.722 23.0348 327.227 21.0907 330.457 21.0907Z" fill="white"/>
<path d="M351.882 30.1125C351.882 24.4989 354.804 21.1939 359.072 21.1939C362.411 21.1939 364.439 23.454 365.224 26.443L370.488 23.5572C369.027 19.1466 364.964 15.793 359.072 15.793C351.254 15.793 345.628 21.6131 345.628 30.1125C345.628 38.6119 351.254 44.4321 359.072 44.4321C365.013 44.4321 369.184 40.9145 370.591 36.4552L365.224 33.7274C364.445 36.7711 362.411 38.9764 359.072 38.9764C354.798 38.9764 351.882 35.7201 351.882 30.1065V30.1125Z" fill="white"/>
</g>
<path d="M54.74 181.9H24.84L9.5 269H0.92L33.42 84.92H42L26.4 173.58H56.04L71.64 84.92H80.22L47.98 269H39.4L54.74 181.9ZM107.169 232.6L81.4286 232.6L71.2886 269H62.4486L115.749 84.92H124.329L113.409 269H104.829L107.169 232.6ZM83.7686 224.8L107.689 224.8L114.189 130.16L119.389 89.86L110.289 130.16L83.7686 224.8ZM135.933 269H127.873L160.373 84.92H167.393L177.273 214.4L178.313 253.92L184.293 204.78L205.613 84.92H213.673L181.173 269H174.153L164.273 137.18L163.233 97.92L157.253 147.58L135.933 269ZM235.783 84.92H253.463C270.883 84.92 281.543 95.84 277.643 117.42L256.063 238.58C252.683 259.9 240.723 269 220.963 269H203.283L235.783 84.92ZM242.803 92.72L213.423 260.94H220.443C236.563 260.94 244.623 254.44 247.743 237.28L269.063 116.9C271.923 99.48 264.903 92.72 251.643 92.72H242.803ZM271.832 269L304.072 84.92L323.052 84.92C343.852 84.92 348.792 96.36 345.932 111.96L339.432 148.62C337.092 163.18 331.372 170.46 318.372 172.8C331.372 176.18 333.712 186.58 330.852 201.14L323.312 244.04C320.192 261.46 312.912 269 291.072 269H271.832ZM311.092 92.2L297.572 169.16H305.632C322.012 169.16 327.992 163.96 330.852 148.62L337.352 111.7C339.432 99.48 336.832 92.2 321.492 92.2H311.092ZM296.272 176.7L281.452 261.2H291.592C307.972 261.2 312.652 254.7 314.992 241.7L322.272 199.84C325.132 185.54 322.012 176.7 304.332 176.7H296.272ZM363.854 270.82C345.654 270.82 338.894 258.6 342.274 241.18L365.154 111.7C369.054 91.16 377.634 83.36 391.934 83.36C408.054 83.36 417.154 93.76 414.034 112.22L390.634 244.3C387.514 261.46 380.234 270.82 363.854 270.82ZM364.374 262.76C375.554 262.76 379.714 256.26 382.054 243.26L405.454 111.44C407.794 98.44 403.114 90.9 391.154 90.9C381.794 90.9 376.074 97.14 373.994 110.4L350.594 241.96C348.514 254.96 352.154 262.76 364.374 262.76ZM432.916 270.82C414.716 270.82 407.956 258.6 411.336 241.18L434.216 111.7C438.116 91.16 446.696 83.36 460.996 83.36C477.116 83.36 486.216 93.76 483.096 112.22L459.696 244.3C456.576 261.46 449.296 270.82 432.916 270.82ZM433.436 262.76C444.616 262.76 448.776 256.26 451.116 243.26L474.516 111.44C476.856 98.44 472.176 90.9 460.216 90.9C450.856 90.9 445.136 97.14 443.056 110.4L419.656 241.96C417.576 254.96 421.216 262.76 433.436 262.76ZM517.566 158.76L497.026 199.58L485.066 269H476.486L508.986 84.92H517.306L502.746 167.6L496.766 191.78L504.566 173.06L549.806 84.92H558.126L523.546 152.78L528.226 269H519.646L516.786 176.44L517.566 158.76Z" fill="#F9F9FB"/>
<defs>
<clipPath id="clip0_4910_3410">
<rect width="193.182" height="50" fill="white" transform="translate(177.409)"/>
</clipPath>
</defs>
</svg>
