<svg width="559" height="250" viewBox="0 0 559 250" fill="none" xmlns="http://www.w3.org/2000/svg">
<path d="M185.847 1.04721C184.174 0.349097 182.281 0 180.169 0C172.407 0 167.593 3.6921 165.728 11.0764C165.07 13.7885 164.562 16.1111 164.206 18.0445C164.068 18.9036 164 19.6286 164 20.2195C164 23.0389 165.028 25.2139 167.086 26.7444C169.17 28.2481 171.845 29 175.108 29C179.058 29 182.213 28.1005 184.571 26.3014C186.93 24.4755 188.59 21.7231 189.55 18.0445C190.126 15.7889 190.619 13.4661 191.031 11.0764C191.168 10.2171 191.236 9.50557 191.236 8.94166C191.236 7.06206 190.757 5.45094 189.797 4.10838C188.837 2.73887 187.52 1.71853 185.847 1.04721ZM183.378 11.1972C183.049 13.0768 182.569 15.2787 181.938 17.8029C181.472 19.6286 180.69 20.9846 179.593 21.8708C178.523 22.757 177.221 23.2 175.685 23.2C173.052 23.2 171.735 21.9649 171.735 19.4944C171.735 18.9036 171.79 18.3399 171.899 17.8029C172.393 15.1981 172.887 12.9963 173.381 11.1972C173.847 9.37129 174.615 8.01529 175.685 7.12915C176.782 6.24302 178.098 5.80003 179.634 5.80003C182.24 5.80003 183.543 7.02175 183.543 9.46526C183.543 10.056 183.488 10.6333 183.378 11.1972ZM219.768 2.25557C217.93 1.02034 215.489 0.402761 212.445 0.402761H201.501C201.226 0.402761 200.966 0.496732 200.719 0.684756C200.472 0.8727 200.321 1.11439 200.266 1.40974L194.589 27.5903C194.534 27.8588 194.575 28.1005 194.712 28.3153C194.876 28.5032 195.11 28.5972 195.411 28.5972H201.007C201.281 28.5972 201.542 28.5032 201.788 28.3153C202.035 28.1274 202.186 27.8856 202.241 27.5903L204.134 18.7694H209.688C213.281 18.7694 216.106 18.031 218.164 16.5541C220.248 15.0774 221.633 12.7949 222.319 9.70695C222.484 8.98196 222.566 8.28377 222.566 7.61253C222.566 5.27643 221.633 3.49072 219.768 2.25557ZM214.708 9.62642C214.433 10.781 213.857 11.6671 212.98 12.2847C212.129 12.9023 211.128 13.2111 209.976 13.2111H205.245L206.808 6.00141H211.745C212.87 6.00141 213.665 6.21623 214.132 6.64586C214.598 7.04862 214.831 7.63933 214.831 8.41806C214.831 8.76715 214.79 9.16991 214.708 9.62642ZM252.407 0.684756C252.517 0.845828 252.572 1.00698 252.572 1.16805C252.572 1.24859 252.558 1.32912 252.531 1.40974L251.585 5.71942C251.529 6.01485 251.379 6.25646 251.132 6.44448C250.913 6.63243 250.652 6.7264 250.35 6.7264H243.068L238.501 27.5903C238.446 27.8856 238.295 28.1274 238.048 28.3153C237.802 28.5032 237.541 28.5972 237.267 28.5972H231.836C231.534 28.5972 231.301 28.5032 231.137 28.3153C230.972 28.1005 230.917 27.8588 230.972 27.5903L235.539 6.7264H228.215C227.913 6.7264 227.68 6.63243 227.516 6.44448C227.379 6.22967 227.338 5.98798 227.392 5.71942L228.339 1.40974C228.393 1.11439 228.545 0.8727 228.791 0.684756C229.038 0.496732 229.299 0.402761 229.573 0.402761H251.708C252.01 0.402761 252.243 0.496732 252.407 0.684756ZM265.964 0.684756C266.074 0.845828 266.129 1.00698 266.129 1.16805C266.129 1.24859 266.115 1.32912 266.088 1.40974L260.41 27.5903C260.355 27.8856 260.204 28.1274 259.958 28.3153C259.711 28.5032 259.45 28.5972 259.176 28.5972H253.622C253.32 28.5972 253.086 28.5032 252.922 28.3153C252.758 28.1005 252.703 27.8588 252.758 27.5903L258.476 1.40974C258.531 1.11439 258.682 0.8727 258.929 0.684756C259.176 0.496732 259.436 0.402761 259.711 0.402761H265.265C265.567 0.402761 265.8 0.496732 265.964 0.684756ZM302.326 0.684756C302.435 0.845828 302.49 1.00698 302.49 1.16805C302.49 1.24859 302.477 1.32912 302.449 1.40974L296.771 27.5903C296.716 27.8856 296.566 28.1274 296.319 28.3153C296.072 28.5032 295.811 28.5972 295.537 28.5972H290.559C290.257 28.5972 290.024 28.5032 289.859 28.3153C289.722 28.1005 289.681 27.8588 289.736 27.5903L292.945 12.7278L286.65 20.9041C286.376 21.1995 286.115 21.4279 285.868 21.5889C285.622 21.75 285.333 21.8305 285.004 21.8305H282.865C282.289 21.8305 281.891 21.5218 281.672 20.9041L278.751 12.3653L275.459 27.5903C275.404 27.8856 275.253 28.1274 275.006 28.3153C274.76 28.5032 274.499 28.5972 274.225 28.5972H269.288C268.986 28.5972 268.753 28.5032 268.588 28.3153C268.424 28.1274 268.369 27.8856 268.424 27.5903L274.101 1.40974C274.156 1.11439 274.307 0.8727 274.554 0.684756C274.801 0.496732 275.075 0.402761 275.377 0.402761H279.82C280.479 0.402761 280.904 0.698112 281.096 1.2889L285.581 13.9764L295.578 1.2889C295.715 1.07408 295.907 0.8727 296.154 0.684756C296.428 0.496732 296.757 0.402761 297.142 0.402761H301.626C301.927 0.402761 302.161 0.496732 302.326 0.684756ZM317.946 0.684756C318.057 0.845828 318.112 1.00698 318.112 1.16805C318.112 1.24859 318.097 1.32912 318.07 1.40974L312.392 27.5903C312.337 27.8856 312.186 28.1274 311.94 28.3153C311.693 28.5032 311.433 28.5972 311.158 28.5972H305.604C305.302 28.5972 305.068 28.5032 304.904 28.3153C304.74 28.1005 304.684 27.8588 304.74 27.5903L310.459 1.40974C310.514 1.11439 310.664 0.8727 310.911 0.684756C311.158 0.496732 311.418 0.402761 311.693 0.402761H317.247C317.549 0.402761 317.782 0.496732 317.946 0.684756ZM345.544 3.86669C346.45 4.96756 346.902 6.06851 346.902 7.16946C346.902 7.49169 346.889 7.71994 346.861 7.85414C346.806 8.09583 346.683 8.29721 346.491 8.45836C346.326 8.61943 346.12 8.69997 345.874 8.69997H340.36C339.757 8.69997 339.345 8.4718 339.127 8.01529C339.099 7.39772 338.769 6.87411 338.138 6.44448C337.508 6.01485 336.685 5.80003 335.67 5.80003C334.463 5.80003 333.463 6.01485 332.666 6.44448C331.899 6.87411 331.419 7.50513 331.227 8.33752C331.199 8.4718 331.186 8.64631 331.186 8.86112C331.186 9.50557 331.57 10.0426 332.338 10.4722C333.133 10.875 334.518 11.2912 336.493 11.7208C339.565 12.3116 341.8 13.1574 343.199 14.2584C344.625 15.3593 345.338 16.8227 345.338 18.6486C345.338 19.2662 345.256 19.9375 345.092 20.6625C344.489 23.4014 343.022 25.4824 340.69 26.9055C338.385 28.3019 335.299 29 331.432 29C329.018 29 326.948 28.6779 325.22 28.0334C323.519 27.3889 322.23 26.5296 321.352 25.4555C320.502 24.3815 320.076 23.1865 320.076 21.8708C320.076 21.656 320.104 21.3339 320.159 20.9041C320.214 20.6625 320.323 20.4611 320.489 20.3C320.681 20.1389 320.9 20.0583 321.147 20.0583H326.413C326.742 20.0583 326.989 20.112 327.153 20.2195C327.345 20.3269 327.537 20.5148 327.729 20.7834C327.921 21.4815 328.36 22.0589 329.046 22.5154C329.76 22.9717 330.734 23.2 331.967 23.2C333.531 23.2 334.793 22.9584 335.753 22.475C336.712 21.9916 337.288 21.3339 337.48 20.5014C337.508 20.394 337.522 20.2329 337.522 20.018C337.522 19.3468 337.096 18.8231 336.246 18.4471C335.396 18.0445 333.832 17.5745 331.555 17.0375C328.895 16.4736 326.88 15.6278 325.508 14.5C324.136 13.3454 323.45 11.8417 323.45 9.98886C323.45 9.34442 323.533 8.68661 323.697 8.01529C324.246 5.51804 325.603 3.5579 327.771 2.13473C329.965 0.711549 332.791 0 336.246 0C338.33 0 340.182 0.362533 341.801 1.08752C343.419 1.8125 344.666 2.73886 345.544 3.86669ZM384 1.16805C384 1.24859 383.985 1.32912 383.959 1.40974L378.28 27.5903C378.225 27.8856 378.074 28.1274 377.828 28.3153C377.581 28.5032 377.321 28.5972 377.046 28.5972H372.068C371.766 28.5972 371.533 28.5032 371.369 28.3153C371.232 28.1005 371.19 27.8588 371.245 27.5903L374.454 12.7278L368.16 20.9041C367.885 21.1995 367.624 21.4279 367.378 21.5889C367.131 21.75 366.843 21.8305 366.513 21.8305H364.374C363.798 21.8305 363.4 21.5218 363.181 20.9041L360.26 12.3653L356.968 27.5903C356.913 27.8856 356.763 28.1274 356.516 28.3153C356.269 28.5032 356.009 28.5972 355.734 28.5972H350.797C350.496 28.5972 350.262 28.5032 350.098 28.3153C349.933 28.1274 349.878 27.8856 349.933 27.5903L355.611 1.40974C355.666 1.11439 355.816 0.8727 356.063 0.684756C356.31 0.496732 356.585 0.402761 356.887 0.402761H361.33C361.988 0.402761 362.413 0.698112 362.605 1.2889L367.09 13.9764L377.088 1.2889C377.225 1.07408 377.417 0.8727 377.664 0.684756C377.937 0.496732 378.267 0.402761 378.651 0.402761H383.136C383.437 0.402761 383.67 0.496732 383.835 0.684756C383.944 0.845828 384 1.00698 384 1.16805Z" fill="#FF0420"/>
<path d="M54.74 160.9H24.84L9.5 248H0.92L33.42 63.92H42L26.4 152.58H56.04L71.64 63.92H80.22L47.98 248H39.4L54.74 160.9ZM107.169 211.6L81.4286 211.6L71.2886 248H62.4486L115.749 63.92H124.329L113.409 248H104.829L107.169 211.6ZM83.7686 203.8L107.689 203.8L114.189 109.16L119.389 68.86L110.289 109.16L83.7686 203.8ZM135.933 248H127.873L160.373 63.92H167.393L177.273 193.4L178.313 232.92L184.293 183.78L205.613 63.92H213.673L181.173 248H174.153L164.273 116.18L163.233 76.92L157.253 126.58L135.933 248ZM235.783 63.92L253.463 63.92C270.883 63.92 281.543 74.84 277.643 96.42L256.063 217.58C252.683 238.9 240.723 248 220.963 248H203.283L235.783 63.92ZM242.803 71.72L213.423 239.94H220.443C236.563 239.94 244.623 233.44 247.743 216.28L269.063 95.9C271.923 78.48 264.903 71.72 251.643 71.72H242.803ZM271.832 248L304.072 63.92H323.052C343.852 63.92 348.792 75.36 345.932 90.96L339.432 127.62C337.092 142.18 331.372 149.46 318.372 151.8C331.372 155.18 333.712 165.58 330.852 180.14L323.312 223.04C320.192 240.46 312.912 248 291.072 248H271.832ZM311.092 71.2L297.572 148.16H305.632C322.012 148.16 327.992 142.96 330.852 127.62L337.352 90.7C339.432 78.48 336.832 71.2 321.492 71.2H311.092ZM296.272 155.7L281.452 240.2H291.592C307.972 240.2 312.652 233.7 314.992 220.7L322.272 178.84C325.132 164.54 322.012 155.7 304.332 155.7H296.272ZM363.854 249.82C345.654 249.82 338.894 237.6 342.274 220.18L365.154 90.7C369.054 70.16 377.634 62.36 391.934 62.36C408.054 62.36 417.154 72.76 414.034 91.22L390.634 223.3C387.514 240.46 380.234 249.82 363.854 249.82ZM364.374 241.76C375.554 241.76 379.714 235.26 382.054 222.26L405.454 90.44C407.794 77.44 403.114 69.9 391.154 69.9C381.794 69.9 376.074 76.14 373.994 89.4L350.594 220.96C348.514 233.96 352.154 241.76 364.374 241.76ZM432.916 249.82C414.716 249.82 407.956 237.6 411.336 220.18L434.216 90.7C438.116 70.16 446.696 62.36 460.996 62.36C477.116 62.36 486.216 72.76 483.096 91.22L459.696 223.3C456.576 240.46 449.296 249.82 432.916 249.82ZM433.436 241.76C444.616 241.76 448.776 235.26 451.116 222.26L474.516 90.44C476.856 77.44 472.176 69.9 460.216 69.9C450.856 69.9 445.136 76.14 443.056 89.4L419.656 220.96C417.576 233.96 421.216 241.76 433.436 241.76ZM517.566 137.76L497.026 178.58L485.066 248H476.486L508.986 63.92L517.306 63.92L502.746 146.6L496.766 170.78L504.566 152.06L549.806 63.92L558.126 63.92L523.546 131.78L528.226 248H519.646L516.786 155.44L517.566 137.76Z" fill="#F9F9FB"/>
</svg>
