<svg width="20" height="21" viewBox="0 0 20 21" fill="none" xmlns="http://www.w3.org/2000/svg">
<path fill-rule="evenodd" clip-rule="evenodd" d="M2 3.51172C2 2.68329 2.67157 2.01172 3.5 2.01172H12.5C13.3284 2.01172 14 2.68329 14 3.51172V15.2617C14 16.7805 15.2312 18.0117 16.75 18.0117H4.75C3.23122 18.0117 2 16.7805 2 15.2617V3.51172ZM5.75 10.5117C5.33579 10.5117 5 10.8475 5 11.2617C5 11.6759 5.33579 12.0117 5.75 12.0117H10.25C10.6642 12.0117 11 11.6759 11 11.2617C11 10.8475 10.6642 10.5117 10.25 10.5117H5.75ZM5.75 13.5117C5.33579 13.5117 5 13.8475 5 14.2617C5 14.6759 5.33579 15.0117 5.75 15.0117H10.25C10.6642 15.0117 11 14.6759 11 14.2617C11 13.8475 10.6642 13.5117 10.25 13.5117H5.75ZM5 5.76172C5 5.34751 5.33579 5.01172 5.75 5.01172H10.25C10.6642 5.01172 11 5.34751 11 5.76172V8.26172C11 8.67593 10.6642 9.01172 10.25 9.01172H5.75C5.33579 9.01172 5 8.67593 5 8.26172V5.76172Z" fill="#FF0420"/>
<path d="M16.5 6.51172H15.5V15.2617C15.5 15.9521 16.0596 16.5117 16.75 16.5117C17.4404 16.5117 18 15.9521 18 15.2617V8.01172C18 7.18329 17.3284 6.51172 16.5 6.51172Z" stroke="#FF0420" stroke-width="1.5" stroke-linecap="round" stroke-linejoin="round"/>
</svg>
