<svg width="20" height="20" viewBox="0 0 20 20" fill="none" xmlns="http://www.w3.org/2000/svg">
  <!-- Filled document with dog-ear -->
  <path d="M5 3.25h6.9c.3 0 .6.12.82.34l2.59 2.59c.22.22.34.52.34.82V15.5c0 .69-.56 1.25-1.25 1.25H5c-.69 0-1.25-.56-1.25-1.25V4.5C3.75 3.81 4.31 3.25 5 3.25Z" fill="#FF0420"/>
  <path d="M12 3.25V6c0 .69.56 1.25 1.25 1.25h2.75" fill="#FF0420"/>
  <!-- Knockout code glyphs (white) -->
  <path d="M7.25 8.75l-1.5 1.5 1.5 1.5" stroke="white" stroke-width="1.5" stroke-linecap="round" stroke-linejoin="round"/>
  <path d="M12.75 8.75l1.5 1.5-1.5 1.5" stroke="white" stroke-width="1.5" stroke-linecap="round" stroke-linejoin="round"/>
  <path d="M9.5 12.5l1.25-5.0" stroke="white" stroke-width="1.5" stroke-linecap="round" stroke-linejoin="round"/>
  <!-- Stroke outline to match set -->
  <path d="M5 3.25h6.9c.3 0 .6.12.82.34l2.59 2.59c.22.22.34.52.34.82V15.5c0 .69-.56 1.25-1.25 1.25H5c-.69 0-1.25-.56-1.25-1.25V4.5C3.75 3.81 4.31 3.25 5 3.25Z" stroke="#FF0420" stroke-width="1.5" stroke-linecap="round" stroke-linejoin="round"/>
  <path d="M12 3.25V6c0 .69.56 1.25 1.25 1.25h2.75" stroke="#FF0420" stroke-width="1.5" stroke-linecap="round" stroke-linejoin="round"/>
  <!-- Check badge circle and tick in white overlay -->
  <circle cx="15.25" cy="15.25" r="2.75" fill="#FF0420"/>
  <path d="M14.25 15.25l.8.8 1.6-1.6" stroke="white" stroke-width="1.5" stroke-linecap="round" stroke-linejoin="round"/>
</svg>