<svg width="1207" height="247" viewBox="0 0 1207 247" fill="none" xmlns="http://www.w3.org/2000/svg">
<path d="M484.667 0C484.07 4.99484 484.124 10.0501 484.825 15.0303C485.125 17.0951 485.437 19.2993 486.165 21.2529C486.385 21.8451 486.973 23.5732 487.97 23.5732C488.733 23.573 489.275 22.0072 489.504 21.2529C489.681 20.6776 492.131 13.5867 492.15 13.5332C493.241 10.3471 496.749 0.0222661 496.755 0.00390625H501.169L499.349 5.40137C499.075 6.20785 498.941 7.0582 498.953 7.91309C498.986 10.2971 499.174 12.6763 499.515 15.0342C499.815 17.099 500.125 19.3033 500.853 21.2568C501.075 21.849 501.663 23.5771 502.659 23.5771C503.423 23.5768 503.964 22.0111 504.195 21.2568C504.372 20.6797 506.839 13.5361 506.839 13.5361C507.93 10.3529 511.431 0.04666 511.444 0.0078125L515.871 0C515.871 0 509.736 18.1761 508.662 21.25C507.817 23.6824 506.916 25.9998 504.293 26C501.67 26 499.798 21.2154 499.196 19.3691C498.937 18.5766 498.023 15.7181 496.975 12.4316C495.641 16.3673 494.402 20.0186 493.97 21.25C493.124 23.6826 492.226 26 489.601 26C486.976 26 485.205 21.1777 484.504 19.3691C483.086 15.7255 478.315 0 478.315 0H484.667ZM527.908 0C535.09 9.84301e-05 540.908 5.82272 540.908 13.001C540.908 20.1792 535.086 25.9999 527.908 26C520.729 26 514.908 20.1811 514.908 13.001C514.908 5.8208 520.729 0 527.908 0ZM544.633 0C547.309 0.000302838 548.842 3.09541 550.045 5.09375C552.061 8.44407 552.7 9.58854 554.645 12.9834C559.099 20.7493 561.237 21.8848 562.115 22.4404C562.426 14.7912 561.299 7.38285 557.042 0.454102H563.056V25.541C563.056 25.541 562.458 26 561.256 26L561.064 25.9922C556.987 25.6663 551.092 15.1968 549.904 12.9961C548.813 10.9589 545.019 3.55207 543.775 3.55078C543.464 11.1999 544.588 18.6084 548.845 25.5371H542.833V0.458984C542.846 0.449746 543.444 0 544.633 0ZM668.252 0C670.981 0.000255406 671.928 2.31749 672.816 4.75L680.538 26H675.736C675.729 25.9798 673.984 21.0561 672.527 16.9609H662.717C662.61 19.9791 662.736 23.0012 663.097 26H656.463C656.478 25.9555 662.201 8.7692 662.928 6.63086C663.563 4.78463 665.524 0 668.252 0ZM683.299 0C685.98 0 687.51 3.09532 688.712 5.09375C690.729 8.44396 691.367 9.58859 693.314 12.9834C697.765 20.7484 699.902 21.8847 700.781 22.4404C701.092 14.7913 699.966 7.38279 695.71 0.454102H701.722V25.541C701.708 25.5521 701.11 25.9999 699.923 26L699.73 25.9922C695.653 25.6653 689.759 15.1966 688.572 12.9961C687.481 10.9584 683.684 3.55078 682.443 3.55078C682.13 11.1999 683.255 18.6084 687.512 25.5371H681.5V0.458984C681.518 0.445721 682.115 6.4172e-05 683.299 0ZM528.017 0.881836C523.683 0.881891 520.17 6.31149 520.169 13.0098C520.169 19.7083 523.683 25.1386 528.017 25.1387C532.349 25.1387 535.874 19.7083 535.874 13.0098C535.873 6.31146 532.351 0.881836 528.017 0.881836ZM574.437 0C585.284 1.6822e-05 589.056 5.60078 589.056 12.5107C589.056 19.4208 585.29 25.037 574.441 25.0371H567.871V0H574.437ZM608.7 5.79004C604.649 1.49084 600.546 0.6865 596.092 0.963867V12.2148C598.799 12.3961 601.609 11.7158 604.06 9.1123L604.08 12.2471V12.8018L604.06 15.9316C601.609 13.3283 598.794 12.6442 596.092 12.8291V24.0645C600.561 24.3307 605.193 23.1692 609.24 18.8701L609.278 25.0371L596.087 25.0205V25.0312H591.945V0.00878906H595.757L608.738 0L608.7 5.79004ZM613.129 0.00683594C615.256 0.00683594 624.206 -0.038741 625.965 0.103516C627.982 0.266143 630 0.609773 631.513 2.09375C632.305 2.87359 632.822 3.91991 632.774 5.05078C632.601 9.23632 627.522 10.3376 624.423 11.5332C623.923 11.7272 623.362 11.9865 623.205 12.5039C623.047 13.0212 623.346 13.5271 623.633 13.9668C626.342 18.0953 629.476 21.9971 633.352 25.0371H627.528C627.514 25.024 626.108 23.6963 625.511 23.0176C623.48 20.7566 621.686 18.2901 620.157 15.6582C619.819 15.0668 619.485 14.3902 619.658 13.7305C619.801 13.1762 620.263 12.7825 620.727 12.4609C623.026 10.8755 626.475 10.3745 627.948 7.74316C628.903 6.03373 628.698 3.70094 627.285 2.30566C626.122 1.15807 624.334 0.934958 622.781 0.907227C620.986 0.873962 619.177 0.931641 617.389 0.931641L617.208 0.923828V25.0039H613.129V0.00683594ZM641.347 24.0645C645.821 24.3307 650.492 23.1688 654.538 18.8682V25.0371L637.204 25.0312V0H641.347V24.0645ZM714.065 0C724.913 0 728.685 5.60077 728.685 12.5107C728.685 19.4209 724.919 25.0371 714.069 25.0371H707.5V0H714.065ZM574.558 0.841797C573.726 0.844918 572.899 0.968897 572.102 1.21094V23.833C572.899 24.0719 573.726 24.1932 574.558 24.1934C582.226 24.1934 584.488 18.9625 584.488 12.5146C584.488 6.06686 582.226 0.841797 574.558 0.841797ZM714.187 0.841797C713.355 0.844896 712.527 0.968832 711.73 1.21094V23.833C712.527 24.072 713.355 24.1933 714.187 24.1934C721.855 24.1932 724.118 18.9624 724.118 12.5146C724.118 6.06695 721.855 0.84194 714.187 0.841797ZM666.562 2.42676C665.52 2.42676 664.905 4.15492 664.675 4.74707C663.909 6.70442 663.59 8.9087 663.276 10.9697C663.019 12.6832 662.846 14.3975 662.758 16.1123H672.228C671.688 14.6169 671.226 13.2984 670.927 12.4668C670.905 12.404 668.355 5.32252 668.165 4.74707C667.925 3.99663 667.359 2.42728 666.562 2.42676Z" fill="url(#paint0_linear_5134_3046)"/>
<path d="M51.92 60.92H69.6C87.02 60.92 97.68 71.84 93.78 93.42L72.2 214.58C68.82 235.9 56.86 245 37.1 245H19.42L51.92 60.92ZM58.94 68.72L29.56 236.94H36.58C52.7 236.94 60.76 230.44 63.88 213.28L85.2 92.9C88.06 75.48 81.04 68.72 67.78 68.72H58.94ZM113.721 246.82C95.5208 246.82 88.7608 234.6 92.1408 217.18L115.021 87.7C118.921 67.16 127.501 59.36 141.801 59.36C157.921 59.36 167.021 69.76 163.901 88.22L140.501 220.3C137.381 237.46 130.101 246.82 113.721 246.82ZM114.241 238.76C125.421 238.76 129.581 232.26 131.921 219.26L155.321 87.44C157.661 74.44 152.981 66.9 141.021 66.9C131.661 66.9 125.941 73.14 123.861 86.4L100.461 217.96C98.3808 230.96 102.021 238.76 114.241 238.76ZM170.606 245H162.806L182.566 60.92H190.886L174.246 202.36L169.826 230.18L177.106 202.88L219.486 60.92L225.206 60.92L216.366 202.36L213.766 229.14L219.226 201.32L252.766 60.92H260.826L215.586 245H207.786L216.106 101.22L219.486 76.26L213.766 101.22L170.606 245ZM253.71 245H245.65L278.15 60.92H285.17L295.05 190.4L296.09 229.92L302.07 180.78L323.39 60.92H331.45L298.95 245H291.93L282.05 113.18L281.01 73.92L275.03 123.58L253.71 245ZM401.413 68.98L370.473 245H361.893L392.833 68.98H375.153L376.713 60.92L420.653 60.92L419.093 68.98H401.413ZM455.115 157.9H425.215L409.875 245H401.295L433.795 60.92L442.375 60.92L426.775 149.58H456.415L472.015 60.92H480.595L448.355 245H439.775L455.115 157.9ZM507.804 245H470.104L502.604 60.92L539.524 60.92L537.964 68.98H509.624L495.584 148.8L521.844 148.8L520.284 157.12L494.024 157.12L479.984 236.68H509.104L507.804 245ZM579.33 159.72L564.25 245H555.67L588.17 60.92H605.59C625.87 60.92 632.89 70.02 628.99 90.56L621.45 134.24C619.11 148.28 613.39 154.26 603.25 156.08C612.35 158.94 615.47 165.44 613.13 179.48L603.51 234.6C602.47 239.02 602.99 242.66 604.81 245H595.45C594.15 242.92 593.89 239.54 594.93 234.6L604.29 180C607.15 165.7 603.77 159.72 590.51 159.72H579.33ZM595.19 68.2L580.63 151.92H591.55C604.03 151.92 611.05 146.72 613.39 133.2L620.93 89C623.27 74.7 619.37 68.2 604.03 68.2L595.19 68.2ZM660.903 208.6L635.163 208.6L625.023 245H616.183L669.483 60.92H678.063L667.143 245H658.563L660.903 208.6ZM637.503 200.8L661.423 200.8L667.923 106.16L673.123 65.86L664.023 106.16L637.503 200.8ZM681.347 245L713.588 60.92H732.568C753.368 60.92 758.308 72.36 755.448 87.96L748.948 124.62C746.608 139.18 740.888 146.46 727.888 148.8C740.888 152.18 743.228 162.58 740.368 177.14L732.828 220.04C729.708 237.46 722.428 245 700.588 245H681.347ZM720.608 68.2L707.088 145.16H715.148C731.528 145.16 737.508 139.96 740.368 124.62L746.868 87.7C748.948 75.48 746.348 68.2 731.008 68.2H720.608ZM705.788 152.7L690.968 237.2H701.108C717.488 237.2 722.168 230.7 724.508 217.7L731.788 175.84C734.648 161.54 731.528 152.7 713.848 152.7H705.788ZM747.617 245L779.857 60.92L798.837 60.92C819.637 60.92 824.577 72.36 821.717 87.96L815.217 124.62C812.877 139.18 807.157 146.46 794.157 148.8C807.157 152.18 809.497 162.58 806.637 177.14L799.097 220.04C795.977 237.46 788.697 245 766.857 245H747.617ZM786.877 68.2L773.357 145.16H781.417C797.797 145.16 803.777 139.96 806.637 124.62L813.137 87.7C815.217 75.48 812.617 68.2 797.277 68.2H786.877ZM772.057 152.7L757.237 237.2H767.377C783.757 237.2 788.437 230.7 790.777 217.7L798.057 175.84C800.917 161.54 797.797 152.7 780.117 152.7H772.057ZM805.845 245L807.145 236.94L820.145 236.94L849.785 68.72H836.785L838.085 60.92L872.665 60.92L871.365 68.72H858.365L828.725 236.94H841.465L840.165 245L805.845 245ZM908.718 68.98L877.778 245H869.198L900.138 68.98H882.458L884.018 60.92H927.958L926.398 68.98H908.718ZM994.412 157.9H964.512L949.172 245H940.592L973.092 60.92H981.672L966.072 149.58H995.712L1011.31 60.92L1019.89 60.92L987.652 245H979.072L994.412 157.9ZM1035.4 246.82C1017.2 246.82 1010.44 234.6 1013.82 217.18L1036.7 87.7C1040.6 67.16 1049.18 59.36 1063.48 59.36C1079.6 59.36 1088.7 69.76 1085.58 88.22L1062.18 220.3C1059.06 237.46 1051.78 246.82 1035.4 246.82ZM1035.92 238.76C1047.1 238.76 1051.26 232.26 1053.6 219.26L1077 87.44C1079.34 74.44 1074.66 66.9 1062.7 66.9C1053.34 66.9 1047.62 73.14 1045.54 86.4L1022.14 217.96C1020.06 230.96 1023.7 238.76 1035.92 238.76ZM1078.97 245L1111.47 60.92H1120.05L1088.85 236.68H1116.41L1115.11 245H1078.97ZM1166.69 245H1128.99L1161.49 60.92L1198.41 60.92L1196.85 68.98H1168.51L1154.47 148.8H1180.73L1179.17 157.12H1152.91L1138.87 236.68H1167.99L1166.69 245Z" fill="#F9F9FB"/>
<defs>
<linearGradient id="paint0_linear_5134_3046" x1="728.685" y1="13.0001" x2="478.315" y2="13.0001" gradientUnits="userSpaceOnUse">
<stop stop-color="#FCCC50"/>
<stop offset="0.823718" stop-color="#C55FA3"/>
<stop offset="1" stop-color="#625CBF"/>
</linearGradient>
</defs>
</svg>
