<svg width="33" height="32" viewBox="0 0 33 32" fill="none" xmlns="http://www.w3.org/2000/svg">
<path d="M19.5 8.11592C19.5 7.64238 19.7481 7.21435 20.0349 6.8376C20.3295 6.4508 20.5 5.992 20.5 5.5C20.5 4.11929 19.1569 3 17.5 3C15.8431 3 14.5 4.11929 14.5 5.5C14.5 5.992 14.6705 6.4508 14.9651 6.8376C15.2519 7.21435 15.5 7.64238 15.5 8.11592V8.11592C15.5 8.59762 15.1055 8.98662 14.624 8.97275C12.7525 8.91885 10.9011 8.7846 9.07319 8.57333C9.32168 10.7237 9.46358 12.9065 9.49349 15.1164C9.50009 15.6043 9.1039 15.9999 8.61592 16V16C8.14238 16 7.71435 15.7519 7.3376 15.4651C6.9508 15.1705 6.492 15 6 15C4.61929 15 3.5 16.3431 3.5 18C3.5 19.6569 4.61929 21 6 21C6.492 21 6.9508 20.8295 7.3376 20.5349C7.71435 20.2481 8.14238 20 8.61592 20V20C9.02817 20 9.35542 20.3477 9.3252 20.7588C9.15741 23.0415 8.8699 25.2909 8.4689 27.5008C10.4928 27.7542 12.546 27.9131 14.6241 27.973C15.1057 27.9868 15.5002 27.5978 15.5002 27.116V27.116C15.5002 26.6424 15.2521 26.2144 14.9652 25.8377C14.6707 25.4509 14.5002 24.9921 14.5002 24.5001C14.5002 23.1194 15.8433 22.0001 17.5002 22.0001C19.157 22.0001 20.5002 23.1194 20.5002 24.5001C20.5002 24.9921 20.3296 25.4509 20.0351 25.8377C19.7482 26.2144 19.5002 26.6424 19.5002 27.116V27.116C19.5002 27.5598 19.8709 27.9142 20.3139 27.8882C22.7657 27.7441 25.1803 27.462 27.5501 27.0496C27.9094 24.9853 28.1698 22.887 28.3262 20.7598C28.3564 20.3482 28.0288 20.0001 27.6161 20.0001V20.0001C27.1425 20.0001 26.7145 20.2481 26.3378 20.535C25.951 20.8295 25.4922 21.0001 25.0002 21.0001C23.6194 21.0001 22.5002 19.6569 22.5002 18.0001C22.5002 16.3432 23.6194 15.0001 25.0002 15.0001C25.4922 15.0001 25.951 15.1706 26.3378 15.4651C26.7145 15.752 27.1425 16.0001 27.6161 16.0001V16.0001C28.1045 16.0001 28.5011 15.6041 28.4945 15.1157C28.4618 12.6988 28.2951 10.3143 28.0015 7.9693C25.487 8.42554 22.9213 8.73487 20.3137 8.88807C19.8707 8.9141 19.5 8.55972 19.5 8.11592V8.11592Z" stroke="url(#paint0_linear_2012_752)" stroke-width="1.5" stroke-linecap="round" stroke-linejoin="round"/>
<defs>
<linearGradient id="paint0_linear_2012_752" x1="28.5005" y1="15.4961" x2="3.5" y2="15.4961" gradientUnits="userSpaceOnUse">
<stop stop-color="#FCCC50"/>
<stop offset="0.823718" stop-color="#C55FA3"/>
<stop offset="1" stop-color="#625CBF"/>
</linearGradient>
</defs>
</svg>
