<svg width="290" height="32" viewBox="0 0 290 32" fill="none" xmlns="http://www.w3.org/2000/svg">
<mask id="path-1-inside-1_5078_3360" fill="white">
<path d="M25.7251 8.5C25.7251 3.80558 29.5307 0 34.2251 0H255.775C260.47 0 264.275 3.80558 264.275 8.5C264.275 13.1944 260.47 17 255.775 17H34.2251C29.5307 17 25.7251 13.1944 25.7251 8.5Z"/>
</mask>
<path d="M25.7251 8.5C25.7251 3.25329 29.9784 -1 35.2251 -1H254.775C260.022 -1 264.275 3.25329 264.275 8.5C264.275 4.35786 260.47 1 255.775 1H34.2251C29.5307 1 25.7251 4.35786 25.7251 8.5ZM264.275 17H25.7251H264.275ZM25.7251 17V0V17ZM264.275 0V17V0Z" fill="white" mask="url(#path-1-inside-1_5078_3360)"/>
<mask id="path-3-inside-2_5078_3360" fill="white">
<path d="M0.725098 15.5H50.7251V16.5H0.725098V15.5Z"/>
</mask>
<path d="M0.725098 15.5H50.7251V16.5H0.725098V15.5Z" fill="white"/>
<path d="M50.7251 16.5V15.5H0.725098V16.5V17.5H50.7251V16.5Z" fill="white" mask="url(#path-3-inside-2_5078_3360)"/>
<path d="M71.7974 13.5653C71.7519 13.1619 71.5644 12.8494 71.2349 12.6278C70.9053 12.4034 70.4905 12.2912 69.9905 12.2912C69.6326 12.2912 69.3229 12.348 69.0616 12.4616C68.8002 12.5724 68.5971 12.7259 68.4522 12.9219C68.3101 13.1151 68.2391 13.3352 68.2391 13.5824C68.2391 13.7898 68.2874 13.9687 68.384 14.1193C68.4834 14.2699 68.6127 14.3963 68.7718 14.4986C68.9337 14.598 69.107 14.6818 69.2917 14.75C69.4763 14.8153 69.6539 14.8693 69.8244 14.9119L70.6766 15.1335C70.955 15.2017 71.2405 15.294 71.5332 15.4105C71.8258 15.527 72.0971 15.6804 72.3471 15.8707C72.5971 16.0611 72.7988 16.2969 72.9522 16.5781C73.1084 16.8594 73.1866 17.196 73.1866 17.5881C73.1866 18.0824 73.0587 18.5213 72.803 18.9048C72.5502 19.2884 72.1823 19.5909 71.6994 19.8125C71.2192 20.0341 70.6383 20.1449 69.9565 20.1449C69.303 20.1449 68.7377 20.0412 68.2604 19.8338C67.7832 19.6264 67.4096 19.3324 67.1397 18.9517C66.8698 18.5682 66.7207 18.1136 66.6922 17.5881H68.0133C68.0388 17.9034 68.1411 18.1662 68.3201 18.3764C68.5019 18.5838 68.7334 18.7386 69.0147 18.8409C69.2988 18.9403 69.6099 18.9901 69.9479 18.9901C70.3201 18.9901 70.6511 18.9318 70.9408 18.8153C71.2334 18.696 71.4636 18.5312 71.6312 18.321C71.7988 18.108 71.8826 17.8594 71.8826 17.5753C71.8826 17.3168 71.8087 17.1051 71.661 16.9403C71.5161 16.7756 71.3187 16.6392 71.0687 16.5312C70.8215 16.4233 70.5417 16.3281 70.2292 16.2457L69.1979 15.9645C68.4991 15.7741 67.9451 15.4943 67.536 15.125C67.1297 14.7557 66.9266 14.267 66.9266 13.6591C66.9266 13.1562 67.063 12.7173 67.3357 12.3423C67.6084 11.9673 67.9778 11.6761 68.4437 11.4688C68.9096 11.2585 69.4351 11.1534 70.0204 11.1534C70.6113 11.1534 71.1326 11.2571 71.5843 11.4645C72.0388 11.6719 72.3968 11.9574 72.6582 12.321C72.9195 12.6818 73.0559 13.0966 73.0672 13.5653H71.7974ZM76.7601 20V11.2727H78.0768V15.0653H82.4277V11.2727H83.7487V20H82.4277V16.1946H78.0768V20H76.7601ZM88.4035 20H87.0058L90.1464 11.2727H91.6677L94.8084 20H93.4106L90.9433 12.858H90.8751L88.4035 20ZM88.6379 16.5824H93.172V17.6903H88.6379V16.5824ZM98.0687 20V11.2727H101.179C101.856 11.2727 102.417 11.3892 102.863 11.6222C103.312 11.8551 103.647 12.1776 103.868 12.5895C104.09 12.9986 104.201 13.4716 104.201 14.0085C104.201 14.5426 104.089 15.0128 103.864 15.419C103.643 15.8224 103.307 16.1364 102.858 16.3608C102.412 16.5852 101.851 16.6974 101.175 16.6974H98.8187V15.5639H101.056C101.482 15.5639 101.829 15.5028 102.096 15.3807C102.366 15.2585 102.563 15.081 102.688 14.848C102.813 14.6151 102.875 14.3352 102.875 14.0085C102.875 13.679 102.812 13.3935 102.684 13.152C102.559 12.9105 102.361 12.7259 102.091 12.598C101.824 12.4673 101.473 12.402 101.039 12.402H99.3854V20H98.0687ZM102.377 16.0625L104.533 20H103.033L100.92 16.0625H102.377ZM107.803 20V11.2727H113.275V12.4062H109.12V15.0653H112.989V16.1946H109.12V18.8665H113.326V20H107.803ZM121.779 12.4062V11.2727H128.533V12.4062H125.81V20H124.498V12.4062H121.779ZM132.026 20V11.2727H133.342V15.0653H137.693V11.2727H139.014V20H137.693V16.1946H133.342V20H132.026ZM144.249 11.2727V20H142.932V11.2727H144.249ZM152.926 13.5653C152.881 13.1619 152.693 12.8494 152.364 12.6278C152.034 12.4034 151.619 12.2912 151.119 12.2912C150.761 12.2912 150.452 12.348 150.19 12.4616C149.929 12.5724 149.726 12.7259 149.581 12.9219C149.439 13.1151 149.368 13.3352 149.368 13.5824C149.368 13.7898 149.416 13.9687 149.513 14.1193C149.612 14.2699 149.742 14.3963 149.901 14.4986C150.063 14.598 150.236 14.6818 150.421 14.75C150.605 14.8153 150.783 14.8693 150.953 14.9119L151.806 15.1335C152.084 15.2017 152.369 15.294 152.662 15.4105C152.955 15.527 153.226 15.6804 153.476 15.8707C153.726 16.0611 153.928 16.2969 154.081 16.5781C154.237 16.8594 154.315 17.196 154.315 17.5881C154.315 18.0824 154.188 18.5213 153.932 18.9048C153.679 19.2884 153.311 19.5909 152.828 19.8125C152.348 20.0341 151.767 20.1449 151.085 20.1449C150.432 20.1449 149.867 20.0412 149.389 19.8338C148.912 19.6264 148.538 19.3324 148.269 18.9517C147.999 18.5682 147.85 18.1136 147.821 17.5881H149.142C149.168 17.9034 149.27 18.1662 149.449 18.3764C149.631 18.5838 149.862 18.7386 150.144 18.8409C150.428 18.9403 150.739 18.9901 151.077 18.9901C151.449 18.9901 151.78 18.9318 152.07 18.8153C152.362 18.696 152.592 18.5312 152.76 18.321C152.928 18.108 153.011 17.8594 153.011 17.5753C153.011 17.3168 152.938 17.1051 152.79 16.9403C152.645 16.7756 152.448 16.6392 152.198 16.5312C151.95 16.4233 151.671 16.3281 151.358 16.2457L150.327 15.9645C149.628 15.7741 149.074 15.4943 148.665 15.125C148.259 14.7557 148.056 14.267 148.056 13.6591C148.056 13.1562 148.192 12.7173 148.465 12.3423C148.737 11.9673 149.107 11.6761 149.573 11.4688C150.038 11.2585 150.564 11.1534 151.149 11.1534C151.74 11.1534 152.261 11.2571 152.713 11.4645C153.168 11.6719 153.526 11.9574 153.787 12.321C154.048 12.6818 154.185 13.0966 154.196 13.5653H152.926ZM163.802 20H162.404L165.545 11.2727H167.066L170.207 20H168.809L166.342 12.858H166.274L163.802 20ZM164.036 16.5824H168.57V17.6903H164.036V16.5824ZM173.467 20V11.2727H176.578C177.254 11.2727 177.815 11.3892 178.261 11.6222C178.71 11.8551 179.045 12.1776 179.267 12.5895C179.488 12.9986 179.599 13.4716 179.599 14.0085C179.599 14.5426 179.487 15.0128 179.263 15.419C179.041 15.8224 178.706 16.1364 178.257 16.3608C177.811 16.5852 177.25 16.6974 176.574 16.6974H174.217V15.5639H176.454C176.88 15.5639 177.227 15.5028 177.494 15.3807C177.764 15.2585 177.961 15.081 178.086 14.848C178.211 14.6151 178.274 14.3352 178.274 14.0085C178.274 13.679 178.21 13.3935 178.082 13.152C177.957 12.9105 177.76 12.7259 177.49 12.598C177.223 12.4673 176.872 12.402 176.437 12.402H174.784V20H173.467ZM177.775 16.0625L179.932 20H178.432L176.318 16.0625H177.775ZM182.771 12.4062V11.2727H189.525V12.4062H186.802V20H185.49V12.4062H182.771ZM194.335 11.2727V20H193.018V11.2727H194.335ZM205.501 14.1108H204.171C204.12 13.8267 204.025 13.5767 203.886 13.3608C203.747 13.1449 203.576 12.9616 203.374 12.8111C203.173 12.6605 202.947 12.5469 202.697 12.4702C202.45 12.3935 202.187 12.3551 201.909 12.3551C201.406 12.3551 200.955 12.4815 200.558 12.7344C200.163 12.9872 199.85 13.358 199.62 13.8466C199.393 14.3352 199.279 14.9318 199.279 15.6364C199.279 16.3466 199.393 16.946 199.62 17.4347C199.85 17.9233 200.164 18.2926 200.562 18.5426C200.96 18.7926 201.407 18.9176 201.904 18.9176C202.18 18.9176 202.441 18.8807 202.688 18.8068C202.938 18.7301 203.164 18.6179 203.366 18.4702C203.568 18.3224 203.738 18.142 203.877 17.929C204.019 17.7131 204.117 17.4659 204.171 17.1875L205.501 17.1918C205.43 17.6207 205.292 18.0156 205.087 18.3764C204.886 18.7344 204.626 19.044 204.308 19.3054C203.992 19.5639 203.632 19.7642 203.225 19.9062C202.819 20.0483 202.376 20.1193 201.896 20.1193C201.14 20.1193 200.467 19.9403 199.876 19.5824C199.285 19.2216 198.819 18.706 198.478 18.0355C198.14 17.3651 197.971 16.5653 197.971 15.6364C197.971 14.7045 198.141 13.9048 198.482 13.2372C198.823 12.5668 199.289 12.0526 199.88 11.6946C200.471 11.3338 201.143 11.1534 201.896 11.1534C202.359 11.1534 202.791 11.2202 203.191 11.3537C203.595 11.4844 203.957 11.6776 204.278 11.9332C204.599 12.1861 204.864 12.4957 205.075 12.8622C205.285 13.2259 205.427 13.642 205.501 14.1108ZM209.076 20V11.2727H210.393V18.8665H214.348V20H209.076ZM217.85 20V11.2727H223.322V12.4062H219.167V15.0653H223.036V16.1946H219.167V18.8665H223.373V20H217.85Z" fill="white"/>
<mask id="path-6-inside-3_5078_3360" fill="white">
<path d="M239.275 15.5H289.275V16.5H239.275V15.5Z"/>
</mask>
<path d="M239.275 15.5H289.275V16.5H239.275V15.5Z" fill="white"/>
<path d="M289.275 16.5V15.5H239.275V16.5V17.5H289.275V16.5Z" fill="white" mask="url(#path-6-inside-3_5078_3360)"/>
<mask id="path-8-inside-4_5078_3360" fill="white">
<path d="M25.7251 23.5C25.7251 18.8056 29.5307 15 34.2251 15H255.775C260.47 15 264.275 18.8056 264.275 23.5C264.275 28.1944 260.47 32 255.775 32H34.2251C29.5307 32 25.7251 28.1944 25.7251 23.5Z"/>
</mask>
<path d="M25.7251 15H264.275H25.7251ZM264.275 23.5C264.275 28.7467 260.022 33 254.775 33H35.2251C29.9784 33 25.7251 28.7467 25.7251 23.5C25.7251 27.6421 29.5307 31 34.2251 31H255.775C260.47 31 264.275 27.6421 264.275 23.5ZM25.7251 32V15V32ZM264.275 15V32V15Z" fill="white" mask="url(#path-8-inside-4_5078_3360)"/>
</svg>
