<svg width="252" height="26" viewBox="0 0 252 26" fill="none" xmlns="http://www.w3.org/2000/svg">
<path d="M7.1665 0C6.57043 4.99484 6.62353 10.0501 7.32471 15.0303C7.62504 17.0951 7.93651 19.2993 8.66455 21.2529C8.88481 21.8451 9.47266 23.5732 10.4702 23.5732C11.2329 23.573 11.775 22.0072 12.0044 21.2529C12.1811 20.6776 14.6314 13.5867 14.6499 13.5332C15.7411 10.3471 19.2492 0.0221927 19.2554 0.00390625H23.6694L21.8491 5.40137C21.5752 6.20785 21.4411 7.0582 21.4526 7.91309C21.4858 10.2971 21.6738 12.6763 22.0151 15.0342C22.3155 17.099 22.625 19.3033 23.353 21.2568C23.5751 21.849 24.163 23.5771 25.1587 23.5771C25.9231 23.5768 26.4637 22.0111 26.6948 21.2568C26.8721 20.6797 29.3394 13.5361 29.3394 13.5361C30.4296 10.3529 33.9307 0.046604 33.9438 0.0078125L38.3706 0C38.3706 0 32.2356 18.1761 31.1616 21.25C30.3171 23.6824 29.4161 25.9998 26.7935 26C24.1703 26 22.2983 21.2154 21.6958 19.3691C21.4372 18.5766 20.5235 15.7181 19.4751 12.4316C18.1408 16.3673 16.9016 20.0186 16.4702 21.25C15.6238 23.6826 14.7259 26 12.1011 26C9.47614 26 7.70523 21.1777 7.00439 19.3691C5.58628 15.7255 0.814941 0 0.814941 0H7.1665ZM50.4077 0C57.5901 9.84459e-05 63.4077 5.82272 63.4077 13.001C63.4077 20.1792 57.5864 25.9999 50.4077 26C43.229 26 37.4077 20.1811 37.4077 13.001C37.4077 5.8208 43.2289 0 50.4077 0ZM67.1333 0C69.8088 0.000302861 71.3416 3.09542 72.5454 5.09375C74.5607 8.44407 75.1999 9.58854 77.145 12.9834C81.5986 20.7493 83.7366 21.8848 84.6147 22.4404C84.926 14.7912 83.799 7.38285 79.5415 0.454102H85.5562V25.541C85.5562 25.541 84.9583 26 83.7563 26C79.6752 26 73.6112 15.2316 72.4038 12.9961C71.3134 10.9589 67.5187 3.55207 66.2749 3.55078C65.9636 11.1999 67.0878 18.6084 71.3452 25.5371H65.3335V0.458984C65.3456 0.449746 65.9436 0 67.1333 0ZM190.752 0C193.481 0.000255423 194.428 2.31749 195.316 4.75L203.038 26H198.236C198.229 25.9798 196.484 21.0561 195.027 16.9609H185.217C185.11 19.9791 185.236 23.0012 185.597 26H178.963C178.978 25.9554 184.701 8.7692 185.428 6.63086C186.063 4.78463 188.024 0 190.752 0ZM205.799 0C208.48 0 210.01 3.09532 211.212 5.09375C213.229 8.44396 213.867 9.58859 215.814 12.9834C220.265 20.7484 222.402 21.8847 223.281 22.4404C223.592 14.7913 222.466 7.38279 218.21 0.454102H224.222V25.541C224.208 25.5521 223.61 25.9999 222.423 26C218.342 26 212.277 15.2316 211.072 12.9961C209.981 10.9584 206.184 3.55078 204.943 3.55078C204.63 11.1999 205.755 18.6084 210.012 25.5371H204V0.458984C204.018 0.445721 204.615 6.41645e-05 205.799 0ZM50.5171 0.881836C46.1833 0.881891 42.6696 6.31149 42.6694 13.0098C42.6694 19.7083 46.1832 25.1386 50.5171 25.1387C54.8492 25.1387 58.3735 19.7083 58.3735 13.0098C58.3734 6.31146 54.8509 0.881836 50.5171 0.881836ZM96.937 0C107.784 1.67442e-05 111.556 5.60078 111.556 12.5107C111.556 19.4208 107.79 25.037 96.9409 25.0371H90.3706V0H96.937ZM131.2 5.79004C127.149 1.49084 123.046 0.6865 118.592 0.963867V12.2148C121.299 12.3961 124.109 11.7158 126.56 9.1123L126.58 12.2471V12.8018L126.56 15.9316C124.109 13.3283 121.294 12.6442 118.592 12.8291V24.0645C123.061 24.3307 127.693 23.1692 131.74 18.8701L131.778 25.0371L118.587 25.0205V25.0312H114.445V0.00878906H118.257L131.238 0L131.2 5.79004ZM135.629 0.00683594C137.756 0.00683594 146.706 -0.038741 148.465 0.103516C150.482 0.266143 152.5 0.609773 154.013 2.09375C154.805 2.87359 155.322 3.91991 155.274 5.05078C155.101 9.23632 150.022 10.3376 146.923 11.5332C146.423 11.7272 145.862 11.9865 145.705 12.5039C145.547 13.0212 145.846 13.5271 146.133 13.9668C148.842 18.0953 151.976 21.9971 155.852 25.0371H150.028C150.014 25.0241 148.608 23.6963 148.011 23.0176C145.98 20.7566 144.186 18.2901 142.657 15.6582C142.319 15.0668 141.985 14.3902 142.158 13.7305C142.301 13.1762 142.763 12.7825 143.227 12.4609C145.526 10.8755 148.975 10.3745 150.448 7.74316C151.403 6.03373 151.198 3.70094 149.785 2.30566C148.622 1.15807 146.834 0.934958 145.281 0.907227C143.486 0.873962 141.677 0.931641 139.889 0.931641L139.708 0.923828V25.0039H135.629V0.00683594ZM163.847 24.0645C168.321 24.3307 172.992 23.1688 177.038 18.8682V25.0371L159.704 25.0312V0H163.847V24.0645ZM236.565 0C247.413 0 251.185 5.60077 251.185 12.5107C251.185 19.4209 247.419 25.0371 236.569 25.0371H230V0H236.565ZM97.0581 0.841797C96.226 0.844918 95.3986 0.968897 94.6021 1.21094V23.833C95.3991 24.0719 96.2264 24.1932 97.0581 24.1934C104.726 24.1934 106.988 18.9625 106.988 12.5146C106.988 6.06686 104.726 0.841797 97.0581 0.841797ZM236.687 0.841797C235.855 0.844896 235.027 0.968832 234.23 1.21094V23.833C235.027 24.072 235.855 24.1933 236.687 24.1934C244.355 24.1932 246.618 18.9624 246.618 12.5146C246.618 6.06695 244.355 0.84194 236.687 0.841797ZM189.062 2.42676C188.02 2.42676 187.405 4.15492 187.175 4.74707C186.409 6.70442 186.09 8.9087 185.776 10.9697C185.519 12.6832 185.346 14.3975 185.258 16.1123H194.728C194.188 14.6169 193.726 13.2984 193.427 12.4668C193.405 12.404 190.855 5.32252 190.665 4.74707C190.425 3.99663 189.859 2.42728 189.062 2.42676Z" fill="url(#paint0_linear_4980_13327)"/>
<defs>
<linearGradient id="paint0_linear_4980_13327" x1="251.185" y1="13.0001" x2="0.81493" y2="13.0001" gradientUnits="userSpaceOnUse">
<stop stop-color="#FCCC50"/>
<stop offset="0.823718" stop-color="#C55FA3"/>
<stop offset="1" stop-color="#625CBF"/>
</linearGradient>
</defs>
</svg>
