<svg width="558" height="246" viewBox="0 0 558 246" fill="none" xmlns="http://www.w3.org/2000/svg">
<path d="M160.166 0.000115177C159.57 4.99495 159.623 10.0502 160.324 15.0304C160.625 17.0952 160.936 19.2995 161.664 21.253C161.884 21.8452 162.472 23.5734 163.47 23.5734C164.232 23.5731 164.775 22.0073 165.004 21.253C165.181 20.6777 167.631 13.5868 167.649 13.5333C168.741 10.3472 172.249 0.0223813 172.255 0.00402143H176.669L174.849 5.40148C174.575 6.20797 174.441 7.05831 174.452 7.9132C174.485 10.2972 174.673 12.6764 175.015 15.0343C175.315 17.0991 175.624 19.3034 176.353 21.257C176.575 21.8491 177.162 23.5773 178.158 23.5773C178.923 23.5769 179.463 22.0112 179.694 21.257C179.872 20.6798 182.339 13.5362 182.339 13.5362C183.429 10.3531 186.93 0.0467752 186.943 0.00792768L191.37 0.000115177C191.37 0.000115177 185.235 18.1762 184.161 21.2501C183.317 23.6826 182.416 25.9999 179.793 26.0001C177.17 26.0001 175.298 21.2155 174.695 19.3693C174.437 18.5767 173.523 15.7182 172.475 12.4318C171.14 16.3674 169.901 20.0187 169.47 21.2501C168.623 23.6827 167.725 26.0001 165.101 26.0001C162.476 26.0001 160.705 21.1778 160.004 19.3693C158.586 15.7256 153.814 0.000115177 153.814 0.000115177H160.166ZM203.407 0.000115177C210.59 0.000213607 216.407 5.82284 216.407 13.0011C216.407 20.1793 210.586 26 203.407 26.0001C196.228 26.0001 190.407 20.1812 190.407 13.0011C190.407 5.82092 196.228 0.000115177 203.407 0.000115177ZM220.133 0.000115177C222.808 0.000418016 224.341 3.09553 225.545 5.09387C227.56 8.44418 228.199 9.58866 230.145 12.9835C234.598 20.7494 236.736 21.8849 237.614 22.4405C237.926 14.7913 236.798 7.38297 232.541 0.454217H238.556V25.5411C238.556 25.5411 237.958 26.0001 236.756 26.0001L236.563 25.9923C232.487 25.6664 226.592 15.1969 225.403 12.9962C224.313 10.959 220.518 3.55219 219.274 3.5509C218.963 11.2 220.087 18.6085 224.345 25.5372H218.333V0.4591C218.345 0.449861 218.943 0.000115177 220.133 0.000115177ZM343.752 0.000115177C346.48 0.000370584 347.428 2.3176 348.315 4.75012L356.037 26.0001H351.235C351.228 25.98 349.484 21.0562 348.026 16.9611H338.217C338.109 19.9792 338.236 23.0014 338.597 26.0001H331.963C331.978 25.9556 337.7 8.76932 338.428 6.63097C339.063 4.78474 341.023 0.000115177 343.752 0.000115177ZM358.799 0.000115177C361.48 0.000115177 363.01 3.09543 364.212 5.09387C366.229 8.44407 366.867 9.5887 368.813 12.9835C373.265 20.7485 375.402 21.8849 376.28 22.4405C376.592 14.7914 375.466 7.3829 371.21 0.454217H377.222V25.5411C377.207 25.5522 376.61 26 375.423 26.0001L375.229 25.9923C371.153 25.6654 365.258 15.1968 364.071 12.9962C362.981 10.9585 359.184 3.5509 357.942 3.5509C357.629 11.2 358.754 18.6085 363.012 25.5372H357V0.4591C357.018 0.445836 357.615 0.000179349 358.799 0.000115177ZM203.517 0.881951C199.183 0.882006 195.669 6.31161 195.669 13.0099C195.669 19.7084 199.183 25.1387 203.517 25.1388C207.849 25.1388 211.373 19.7084 211.373 13.0099C211.373 6.31157 207.85 0.881951 203.517 0.881951ZM249.937 0.000115177C260.784 0.000131999 264.556 5.60089 264.556 12.5109C264.556 19.4209 260.789 25.0371 249.94 25.0372H243.37V0.000115177H249.937ZM284.199 5.79015C280.149 1.49096 276.046 0.686615 271.592 0.963982V12.215C274.299 12.3962 277.108 11.716 279.56 9.11242L279.579 12.2472V12.8019L279.56 15.9318C277.108 13.3284 274.293 12.6443 271.592 12.8292V24.0646C276.06 24.3308 280.692 23.1693 284.739 18.8702L284.777 25.0372L271.587 25.0206V25.0314H267.444V0.00890424H271.257L284.237 0.000115177L284.199 5.79015ZM288.629 0.00695111C290.756 0.00695111 299.705 -0.0386258 301.465 0.103631C303.482 0.266258 305.5 0.609888 307.013 2.09387C307.805 2.87371 308.321 3.92003 308.273 5.0509C308.101 9.23643 303.022 10.3377 299.923 11.5333C299.422 11.7274 298.862 11.9866 298.704 12.504C298.547 13.0213 298.845 13.5272 299.133 13.9669C301.841 18.0954 304.975 21.9972 308.852 25.0372H303.027C303.014 25.0242 301.608 23.6964 301.011 23.0177C298.98 20.7567 297.185 18.2902 295.656 15.6583C295.319 15.0669 294.985 14.3903 295.157 13.7306C295.3 13.1763 295.763 12.7826 296.227 12.4611C298.526 10.8756 301.975 10.3746 303.447 7.74328C304.403 6.03384 304.198 3.70105 302.784 2.30578C301.622 1.15818 299.833 0.935073 298.28 0.907342C296.485 0.874077 294.677 0.931756 292.889 0.931756L292.707 0.923943V25.004H288.629V0.00695111ZM316.847 24.0646C321.321 24.3308 325.992 23.1689 330.037 18.8683V25.0372L312.703 25.0314V0.000115177H316.847V24.0646ZM389.564 0.000115177C400.412 0.000115177 404.184 5.60088 404.185 12.5109C404.185 19.421 400.418 25.0372 389.568 25.0372H383V0.000115177H389.564ZM250.058 0.841912C249.225 0.845033 248.398 0.969012 247.602 1.21105V23.8331C248.399 24.0721 249.226 24.1934 250.058 24.1935C257.726 24.1935 259.987 18.9626 259.987 12.5148C259.987 6.06697 257.725 0.841912 250.058 0.841912ZM389.687 0.841912C388.854 0.845012 388.026 0.968947 387.229 1.21105V23.8331C388.027 24.0721 388.855 24.1934 389.687 24.1935C397.355 24.1933 399.617 18.9625 399.617 12.5148C399.617 6.06706 397.355 0.842055 389.687 0.841912ZM342.062 2.42687C341.02 2.42687 340.405 4.15503 340.175 4.74719C339.409 6.70453 339.089 8.90881 338.775 10.9698C338.518 12.6834 338.345 14.3976 338.258 16.1124H347.728C347.188 14.617 346.725 13.2985 346.427 12.4669C346.404 12.4041 343.854 5.32264 343.664 4.74719C343.425 3.99675 342.858 2.4274 342.062 2.42687Z" fill="url(#paint0_linear_2007_2999)"/>
<path d="M54.2165 156.54H24.3165L8.97648 243.64H0.396484L32.8965 59.56H41.4765L25.8765 148.22H55.5165L71.1165 59.56H79.6965L47.4565 243.64H38.8765L54.2165 156.54Z" fill="#F9F9FB"/>
<path d="M106.645 207.24H80.9051L70.7651 243.64H61.9251L115.225 59.56H123.805L112.885 243.64H104.305L106.645 207.24ZM83.2451 199.44H107.165L113.665 104.8L118.865 64.5L109.765 104.8L83.2451 199.44Z" fill="#F9F9FB"/>
<path d="M135.41 243.64H127.35L159.85 59.56H166.87L176.75 189.04L177.79 228.56L183.77 179.42L205.09 59.56H213.15L180.65 243.64H173.63L163.75 111.82L162.71 72.56L156.73 122.22L135.41 243.64Z" fill="#F9F9FB"/>
<path d="M235.26 59.56H252.94C270.36 59.56 281.02 70.48 277.12 92.06L255.54 213.22C252.16 234.54 240.2 243.64 220.44 243.64H202.76L235.26 59.56ZM242.28 67.36L212.9 235.58H219.92C236.04 235.58 244.1 229.08 247.22 211.92L268.54 91.54C271.4 74.12 264.38 67.36 251.12 67.36H242.28Z" fill="#F9F9FB"/>
<path d="M271.308 243.64L303.548 59.56H322.528C343.328 59.56 348.268 71 345.408 86.6L338.908 123.26C336.568 137.82 330.848 145.1 317.848 147.44C330.848 150.82 333.188 161.22 330.328 175.78L322.788 218.68C319.668 236.1 312.388 243.64 290.548 243.64H271.308ZM310.568 66.84L297.048 143.8H305.108C321.488 143.8 327.468 138.6 330.328 123.26L336.828 86.34C338.908 74.12 336.308 66.84 320.968 66.84H310.568ZM295.748 151.34L280.928 235.84H291.068C307.448 235.84 312.128 229.34 314.468 216.34L321.748 174.48C324.608 160.18 321.488 151.34 303.808 151.34H295.748Z" fill="#F9F9FB"/>
<path d="M363.33 245.46C345.13 245.46 338.37 233.24 341.75 215.82L364.63 86.34C368.53 65.8 377.11 58 391.41 58C407.53 58 416.63 68.4 413.51 86.86L390.11 218.94C386.99 236.1 379.71 245.46 363.33 245.46ZM363.85 237.4C375.03 237.4 379.19 230.9 381.53 217.9L404.93 86.08C407.27 73.08 402.59 65.54 390.63 65.54C381.27 65.54 375.55 71.78 373.47 85.04L350.07 216.6C347.99 229.6 351.63 237.4 363.85 237.4Z" fill="#F9F9FB"/>
<path d="M432.393 245.46C414.193 245.46 407.433 233.24 410.813 215.82L433.693 86.34C437.593 65.8 446.173 58 460.473 58C476.593 58 485.693 68.4 482.573 86.86L459.173 218.94C456.053 236.1 448.773 245.46 432.393 245.46ZM432.913 237.4C444.093 237.4 448.253 230.9 450.593 217.9L473.993 86.08C476.333 73.08 471.653 65.54 459.693 65.54C450.333 65.54 444.613 71.78 442.533 85.04L419.133 216.6C417.053 229.6 420.693 237.4 432.913 237.4Z" fill="#F9F9FB"/>
<path d="M517.043 133.4L496.503 174.22L484.543 243.64H475.963L508.463 59.56H516.783L502.223 142.24L496.243 166.42L504.043 147.7L549.283 59.56H557.603L523.023 127.42L527.703 243.64H519.123L516.263 151.08L517.043 133.4Z" fill="#F9F9FB"/>
<defs>
<linearGradient id="paint0_linear_2007_2999" x1="404.185" y1="13.0001" x2="153.814" y2="13.0001" gradientUnits="userSpaceOnUse">
<stop stop-color="#FCCC50"/>
<stop offset="0.823718" stop-color="#C55FA3"/>
<stop offset="1" stop-color="#625CBF"/>
</linearGradient>
</defs>
</svg>
