<svg width="24" height="24" viewBox="0 0 24 24" fill="none" xmlns="http://www.w3.org/2000/svg">
<g clip-path="url(#clip0_221_16195)">
<path fill-rule="evenodd" clip-rule="evenodd" d="M14.4491 1.00947L22.9905 9.55091C24.3378 10.8982 24.3378 13.0824 22.9905 14.4296L14.4316 22.9915C13.0843 24.3388 10.9001 24.3388 9.55285 22.9915L1.0085 14.4501C-0.33877 13.1028 -0.33877 10.9186 1.0085 9.57132L9.57034 1.00947C10.9176 -0.337793 13.1018 -0.337793 14.4491 1.00947ZM11.4309 3.17618L11.3959 3.20826L3.2102 11.3939C2.88359 11.7205 2.87484 12.2396 3.17812 12.5808L3.2102 12.6158L11.3842 20.7898C11.7108 21.1164 12.2299 21.1251 12.5682 20.8219L12.6032 20.7898L20.7888 12.6041C21.1242 12.2688 21.1242 11.7234 20.7888 11.3852L12.6148 3.21117C12.2882 2.88456 11.7691 2.87582 11.4309 3.1791V3.17618ZM12.157 6.77764L17.2194 11.843C17.304 11.9276 17.304 12.0617 17.2194 12.1492L12.1482 17.2204C12.0637 17.305 11.9266 17.305 11.842 17.2204L6.77958 12.155C6.69501 12.0705 6.69501 11.9363 6.77958 11.8488L11.8508 6.77764C11.9353 6.69307 12.0724 6.69307 12.157 6.77764Z" fill="#8C7EFF"/>
</g>
<defs>
<clipPath id="clip0_221_16195">
<rect width="24" height="24" fill="white"/>
</clipPath>
</defs>
</svg>
