<svg width="33" height="32" viewBox="0 0 33 32" fill="none" xmlns="http://www.w3.org/2000/svg">
<path d="M16.4996 17C18.0309 17 19.5371 17.1076 21.011 17.3155C22.3928 17.5105 23.499 18.6045 23.499 20C23.499 24.9706 20.365 29 16.499 29C12.633 29 9.49902 24.9706 9.49902 20C9.49902 18.6047 10.605 17.5108 11.9867 17.3157C13.4611 17.1076 14.9678 17 16.4996 17ZM16.4996 17C20.3433 17 24.0291 17.6777 27.4433 18.9201C27.2773 21.726 26.7497 24.4346 25.9065 27M16.4996 17C12.6559 17 8.97083 17.6777 5.55664 18.9201C5.72269 21.726 6.25029 24.4346 7.0935 27M16.4996 17C18.1564 17 19.4997 15.6569 19.4997 14C19.4997 13.9536 19.4987 13.9074 19.4966 13.8615M16.4996 17C14.8427 17 13.4997 15.6569 13.4997 14C13.4997 13.9536 13.5008 13.9074 13.5029 13.8615M16.5002 11C17.8267 11 19.128 10.8924 20.396 10.6854C20.9327 10.5978 21.3837 10.2083 21.4558 9.66928C21.4851 9.45035 21.5002 9.22694 21.5002 9C21.5002 8.15792 21.292 7.36446 20.9244 6.66828M16.5002 11C15.1737 11 13.8724 10.8924 12.6044 10.6854C12.0677 10.5978 11.6167 10.2083 11.5446 9.66928C11.5153 9.45035 11.5002 9.22694 11.5002 9C11.5002 8.15667 11.709 7.3621 12.0777 6.66516M16.5002 11C14.8898 11 13.5752 12.2689 13.5029 13.8615M16.5002 11C18.1106 11 19.4242 12.2689 19.4966 13.8615M12.0777 6.66516C11.5087 6.28662 10.991 5.83717 10.5371 5.32942C10.6307 4.4882 10.8981 3.69947 11.3028 3M12.0777 6.66516C12.9163 5.08005 14.5821 4 16.5002 4C18.4196 4 20.0863 5.08146 20.9244 6.66828M20.9244 6.66828C21.4927 6.29072 22.01 5.84245 22.4637 5.33602C22.3708 4.49232 22.103 3.70129 21.6974 3M7.0613 8C6.78792 9.44115 6.61119 10.9165 6.53809 12.4191C8.76229 13.147 11.0938 13.6378 13.5029 13.8615M25.9381 8C26.2115 9.44115 26.3882 10.9165 26.4613 12.4191C24.2372 13.147 21.9056 13.6378 19.4966 13.8615" stroke="url(#paint0_linear_2012_1324)" stroke-width="1.5" stroke-linecap="round" stroke-linejoin="round"/>
<defs>
<linearGradient id="paint0_linear_2012_1324" x1="27.4433" y1="16" x2="5.55664" y2="16" gradientUnits="userSpaceOnUse">
<stop stop-color="#FCCC50"/>
<stop offset="0.823718" stop-color="#C55FA3"/>
<stop offset="1" stop-color="#625CBF"/>
</linearGradient>
</defs>
</svg>
