<svg width="841" height="384" viewBox="0 0 841 384" fill="none" xmlns="http://www.w3.org/2000/svg">
<path d="M81.0827 250.038H36.0368L12.9262 381.258H0L48.963 103.933H61.8892L38.387 237.503H83.0412L106.543 103.933H119.47L70.8984 381.258H57.9722L81.0827 250.038Z" fill="white"/>
<path d="M160.069 326.42H121.29L106.014 381.258H92.6961L172.995 103.933H185.922L169.47 381.258H156.544L160.069 326.42ZM124.816 314.669H160.853L170.645 172.089L178.479 111.375L164.77 172.089L124.816 314.669Z" fill="white"/>
<path d="M203.404 381.258H191.262L240.225 103.933H250.801L265.685 299.001L267.252 358.539L276.261 284.508L308.381 103.933H320.524L271.561 381.258H260.985L246.1 182.665L244.533 123.518L235.524 198.333L203.404 381.258Z" fill="white"/>
<path d="M353.834 103.933H380.47C406.714 103.933 422.774 120.384 416.898 152.896L384.387 335.429C379.295 367.549 361.276 381.258 331.507 381.258H304.871L353.834 103.933ZM364.41 115.684L320.147 369.115H330.724C355.009 369.115 367.152 359.323 371.852 333.47L403.972 152.112C408.281 125.868 397.705 115.684 377.728 115.684H364.41Z" fill="white"/>
<path d="M408.143 381.258L456.714 103.933H485.309C516.645 103.933 524.087 121.168 519.779 144.67L509.986 199.9C506.461 221.835 497.843 232.803 478.258 236.328C497.843 241.42 501.369 257.088 497.06 279.024L485.7 343.655C481 369.899 470.032 381.258 437.129 381.258H408.143ZM467.29 114.901L446.922 230.844H459.065C483.742 230.844 492.751 223.01 497.06 199.9L506.853 144.278C509.986 125.868 506.069 114.901 482.959 114.901H467.29ZM444.963 242.204L422.636 369.507H437.913C462.59 369.507 469.641 359.715 473.166 340.129L484.134 277.065C488.442 255.522 483.742 242.204 457.106 242.204H444.963Z" fill="white"/>
<path d="M546.779 384C519.359 384 509.175 365.59 514.267 339.346L548.737 144.278C554.613 113.334 567.539 101.583 589.083 101.583C613.368 101.583 627.078 117.251 622.378 145.062L587.124 344.046C582.424 369.899 571.456 384 546.779 384ZM547.562 371.857C564.405 371.857 570.673 362.065 574.198 342.48L609.451 143.887C612.977 124.301 605.926 112.942 587.908 112.942C573.806 112.942 565.189 122.343 562.055 142.32L526.802 340.521C523.668 360.106 529.152 371.857 547.562 371.857Z" fill="white"/>
<path d="M650.825 384C623.406 384 613.221 365.59 618.314 339.346L652.784 144.278C658.659 113.334 671.585 101.583 693.129 101.583C717.415 101.583 731.124 117.251 726.424 145.062L691.171 344.046C686.47 369.899 675.502 384 650.825 384ZM651.609 371.857C668.452 371.857 674.719 362.065 678.244 342.48L713.498 143.887C717.023 124.301 709.972 112.942 691.954 112.942C677.853 112.942 669.235 122.343 666.102 142.32L630.848 340.521C627.715 360.106 633.198 371.857 651.609 371.857Z" fill="white"/>
<path d="M778.355 215.176L747.411 276.674L729.392 381.258H716.466L765.429 103.933H777.964L756.028 228.494L747.019 264.923L758.77 236.72L826.926 103.933H839.461L787.364 206.167L794.415 381.258H781.489L777.18 241.812L778.355 215.176Z" fill="white"/>
<path d="M138.488 1.45737C138.488 1.45737 126.965 33.8325 123.381 43.8172C123.381 43.8172 115.282 66.1899 114.702 67.9908C113.944 70.3526 112.169 75.2535 109.661 75.2535C106.393 75.2535 104.464 69.8448 103.735 67.9908C101.346 61.8736 100.331 54.9711 99.3449 48.5055C98.2248 41.1228 97.6081 33.674 97.4992 26.2096C97.4613 23.5326 97.9022 20.87 98.8013 18.3446L104.775 1.44554H90.2895C90.2895 1.44554 78.7611 33.8207 75.1771 43.8054C75.1771 43.8054 67.0774 66.178 66.498 67.9789C65.7454 70.3408 63.9653 75.2416 61.4625 75.2416C58.1892 75.2416 56.2599 69.833 55.5371 67.9789C53.1478 61.8617 52.1264 54.9592 51.1408 48.4937C48.8399 32.9005 48.6652 17.0728 50.6211 1.43374H29.7804C29.7804 1.43374 45.4363 50.6725 50.0895 62.0802C52.3892 67.7428 58.2011 82.8409 66.8146 82.8409C75.428 82.8409 78.3728 75.5841 81.1504 67.9672C82.566 64.1114 86.6338 52.68 91.0122 40.3571C94.4528 50.6488 97.4514 59.6003 98.2996 62.0802C100.277 67.8609 106.417 82.8409 115.025 82.8409C123.632 82.8409 126.589 75.5841 129.36 67.9672C132.885 58.3426 153.015 1.43374 153.015 1.43374L138.488 1.45737Z" fill="white"/>
<path d="M483.689 4.38621V81.3236H470.404V1.45751C477.333 1.45751 506.489 1.30989 512.217 1.76455C518.787 2.28415 525.358 3.38241 530.286 8.12383C532.866 10.6156 534.551 13.9576 534.396 17.5712C533.834 30.9452 517.288 34.4644 507.193 38.2847C505.563 38.9047 503.735 39.7313 503.221 41.3846C502.707 43.0379 503.681 44.6558 504.619 46.0611C513.441 59.252 523.65 71.7167 536.277 81.4299H517.306C517.306 81.4299 512.689 77.1549 510.735 74.9761C504.119 67.7521 498.275 59.873 493.294 51.4639C492.195 49.5744 491.107 47.4133 491.669 45.3053C492.135 43.5339 493.64 42.2762 495.151 41.2488C502.642 36.1827 513.877 34.5825 518.674 26.1743C521.786 20.7125 521.117 13.2609 516.512 8.80288C512.725 5.1361 506.901 4.42163 501.841 4.33307C495.994 4.22678 490.104 4.40983 484.28 4.40983L483.689 4.38621Z" fill="white"/>
<path d="M310.243 1.4573H290.28C304.413 23.5465 308.152 47.1651 307.119 71.5512C304.204 69.7798 297.108 66.1603 282.324 41.4022C275.867 30.579 273.746 26.9299 267.056 16.2484C263.06 9.8773 257.971 0.0106571 249.089 0.0106571C245.099 0.0106571 243.115 1.47501 243.115 1.47501V81.4238H263.072C248.939 59.3345 245.206 35.716 246.24 11.3299C250.367 11.3299 262.965 34.9484 266.584 41.4435C270.592 48.5704 290.722 82.8999 304.27 82.8999C304.156 82.8999 304.377 82.8999 304.27 82.8999C308.26 82.8999 310.243 81.4356 310.243 81.4356V1.4573Z" fill="white"/>
<path d="M192.952 0.124689C169.483 0.124689 150.452 18.6062 150.452 41.404C150.452 64.2018 169.483 82.6774 192.952 82.6774C216.42 82.6774 235.451 64.1959 235.451 41.404C235.451 18.6121 216.432 0.124689 192.952 0.124689ZM193.31 79.9435C179.141 79.9435 167.655 62.702 167.655 41.4335C167.655 20.165 179.141 2.92348 193.31 2.92348C207.479 2.92348 218.995 20.165 218.995 41.4335C218.995 62.702 207.473 79.9435 193.31 79.9435Z" fill="white"/>
<path d="M602.694 81.4077V61.7157C589.278 75.444 573.79 79.1521 558.952 78.3019V1.48845H545.214V81.39L602.694 81.4077Z" fill="white"/>
<path d="M343.166 1.45879H321.836V81.4075H343.178C378.421 81.4075 390.654 63.4752 390.654 41.4095C390.654 19.3439 378.403 1.45879 343.166 1.45879ZM343.561 78.715C340.858 78.7147 338.17 78.3269 335.58 77.5636V5.32631C338.169 4.55308 340.857 4.15529 343.561 4.14539C368.469 4.14539 375.816 20.8319 375.816 41.4214C375.816 62.0108 368.469 78.715 343.561 78.715Z" fill="white"/>
<path d="M658.974 53.1063C663.561 65.9548 669.056 81.4072 669.056 81.4072H684.139L659.882 14.8738C657.092 7.2568 654.117 0 645.546 0C636.974 0 630.816 14.9801 628.821 20.7607C626.533 27.4625 608.512 81.4072 608.512 81.4072H629.352C628.219 72.0179 627.819 62.5562 628.158 53.1063H658.974ZM629.914 34.3472C630.899 27.8935 631.903 20.991 634.31 14.862C635.033 13.0079 636.962 7.59926 640.236 7.59926C642.738 7.59926 644.518 12.5119 645.271 14.862C645.868 16.6629 653.95 39.0355 653.95 39.0355C654.888 41.6395 656.339 45.7668 658.036 50.4492H628.289C628.564 45.0799 629.105 39.7126 629.914 34.3472Z" fill="white"/>
<path d="M457.633 81.4075L457.508 61.7156C444.086 75.4439 428.723 79.152 413.903 78.3017V42.4251C422.863 41.8347 432.199 44.0194 440.329 52.3331L440.394 42.3366V40.5652L440.329 30.5568C432.199 38.8706 422.881 41.0435 413.903 40.4648V4.5351C428.675 3.6494 442.282 6.21792 455.716 19.9462L455.841 1.45879L400.146 1.4883V81.3898H413.885V81.3544L457.633 81.4075Z" fill="white"/>
<path d="M757.896 1.4573H737.94C752.066 23.5465 755.806 47.1651 754.772 71.5512C751.857 69.7798 744.761 66.1603 729.983 41.4022C723.52 30.579 721.406 26.9299 714.71 16.2484C710.72 9.8773 705.642 0.0106571 696.742 0.0106571C692.752 0.0106571 690.769 1.47501 690.769 1.47501V81.4238H710.726C696.593 59.3345 692.86 35.716 693.899 11.3299C698.021 11.3299 710.624 34.9484 714.244 41.4435C718.246 48.5704 738.376 82.8999 751.923 82.8999C751.816 82.8999 752.031 82.8999 751.923 82.8999C755.913 82.8999 757.896 81.4356 757.896 81.4356V1.4573Z" fill="white"/>
<path d="M792.673 1.45879H771.349V81.4075H792.685C827.927 81.4075 840.16 63.4752 840.16 41.4095C840.16 19.3439 827.909 1.45879 792.673 1.45879ZM793.067 78.715C790.365 78.7147 787.677 78.3269 785.087 77.5636V5.32631C787.675 4.55308 790.364 4.15529 793.067 4.14539C817.976 4.14539 825.323 20.8319 825.323 41.4214C825.323 62.0108 817.976 78.715 793.067 78.715Z" fill="white"/>
</svg>
