<svg width="33" height="57" viewBox="0 0 33 57" fill="none" xmlns="http://www.w3.org/2000/svg">
<path d="M27.3382 56.4484H4.79998C4.0582 56.4485 3.32641 56.2767 2.66221 55.9465C1.99801 55.6162 1.4194 55.1365 0.971834 54.5449C0.524274 53.9534 0.220046 53.2662 0.0828253 52.5372C-0.054395 51.8082 -0.0207555 51.0573 0.181094 50.3436L6.24554 28.8693C3.59826 26.8203 1.65799 23.9947 0.696315 20.7882C-0.265358 17.5816 -0.20036 14.1546 0.882356 10.9869C1.96507 7.81919 4.01123 5.06933 6.73439 3.12227C9.45755 1.1752 12.7215 0.128418 16.0691 0.128418C19.4167 0.128418 22.6806 1.1752 25.4037 3.12227C28.1269 5.06933 30.173 7.81919 31.2557 10.9869C32.3385 14.1546 32.4036 17.5816 31.4419 20.7882C30.4802 23.9947 28.54 26.8203 25.8927 28.8693L31.9571 50.3436C32.159 51.0573 32.1926 51.8082 32.0554 52.5372C31.9182 53.2662 31.6138 53.9534 31.1663 54.5449C30.7187 55.1365 30.1401 55.6162 29.4759 55.9465C28.8117 56.2767 28.08 56.4485 27.3382 56.4484ZM16.053 2.70895C13.1763 2.70917 10.3754 3.6305 8.06029 5.338C5.74523 7.0455 4.03773 9.44943 3.18793 12.1977C2.33813 14.9459 2.39071 17.8941 3.33789 20.6103C4.28507 23.3265 6.07709 25.6681 8.45153 27.2921C8.67394 27.4445 8.84287 27.6629 8.93447 27.9165C9.02608 28.1701 9.0357 28.446 8.96203 28.7054L2.65303 51.0449C2.55916 51.376 2.54364 51.7244 2.60776 52.0625C2.67188 52.4006 2.81391 52.7192 3.02249 52.9929C3.23106 53.2667 3.50044 53.4881 3.80942 53.6397C4.1184 53.7913 4.45846 53.8688 4.8026 53.8662H27.3409C27.6839 53.8667 28.0225 53.7877 28.3297 53.6352C28.637 53.4827 28.9046 53.261 29.1117 52.9876C29.3187 52.7141 29.4595 52.3963 29.5229 52.0592C29.5863 51.7221 29.5706 51.3749 29.4771 51.0449L23.1681 28.7054C23.0944 28.446 23.104 28.1701 23.1956 27.9165C23.2872 27.6629 23.4562 27.4445 23.6786 27.2921C25.5942 25.9886 27.1393 24.2107 28.1631 22.1321C29.1869 20.0535 29.6545 17.7449 29.5201 15.4318C29.3135 12.1113 27.8945 8.98234 25.5327 6.63931C23.1708 4.29627 20.0306 2.90235 16.7086 2.72237C16.4909 2.71431 16.276 2.70895 16.0637 2.70895H16.053Z" fill="white"/>
</svg>
