<svg width="211" height="212" viewBox="0 0 211 212" fill="none" xmlns="http://www.w3.org/2000/svg">
<path d="M29.9674 60.215C24.0988 60.217 18.3611 58.4786 13.4805 55.2196C8.60002 51.9607 4.7956 47.3275 2.54841 41.9062C0.301228 36.4848 -0.287663 30.5189 0.856031 24.7628C1.99972 19.0068 4.82468 13.7192 8.97371 9.56875C13.1227 5.41833 18.4094 2.59146 24.1651 1.44583C29.9208 0.300196 35.8871 0.887239 41.3092 3.1326C46.7312 5.37796 51.3654 9.18079 54.626 14.0602C57.8867 18.9396 59.627 24.6765 59.627 30.5451C59.6191 38.4099 56.492 45.9504 50.9317 51.5126C45.3714 57.0748 37.8322 60.2044 29.9674 60.215ZM29.9674 10.885C26.0762 10.8831 22.2715 12.0352 19.0352 14.1958C15.799 16.3564 13.2762 19.4285 11.7862 23.0231C10.2962 26.6177 9.90597 30.5735 10.6646 34.39C11.4233 38.2066 13.2969 41.7123 16.0484 44.4638C18.7999 47.2153 22.3056 49.0889 26.1221 49.8476C29.9387 50.6062 33.8947 50.2159 37.4893 48.7259C41.084 47.2358 44.1559 44.7131 46.3165 41.4768C48.4771 38.2406 49.629 34.4363 49.627 30.5451C49.6191 25.3334 47.5452 20.3374 43.8599 16.6521C40.1747 12.9669 35.1791 10.893 29.9674 10.885Z" fill="white"/>
<path d="M105.418 60.215C99.5494 60.217 93.8122 58.4786 88.9317 55.2196C84.0512 51.9607 80.2468 47.3275 77.9996 41.9062C75.7524 36.4848 75.1635 30.5189 76.3072 24.7628C77.4509 19.0068 80.2759 13.7192 84.4249 9.56875C88.5739 5.41833 93.8606 2.59146 99.6163 1.44583C105.372 0.300196 111.338 0.887239 116.76 3.1326C122.182 5.37796 126.817 9.18079 130.077 14.0602C133.338 18.9396 135.078 24.6765 135.078 30.5451C135.07 38.4099 131.943 45.9504 126.383 51.5126C120.823 57.0748 113.283 60.2044 105.418 60.215ZM105.418 10.885C101.527 10.8831 97.7226 12.0352 94.4864 14.1958C91.2502 16.3564 88.7274 19.4285 87.2374 23.0231C85.7474 26.6177 85.3571 30.5735 86.1158 34.39C86.8744 38.2066 88.7481 41.7123 91.4996 44.4638C94.2511 47.2153 97.7568 49.0889 101.573 49.8476C105.39 50.6062 109.345 50.2159 112.94 48.7259C116.535 47.2358 119.607 44.7131 121.767 41.4768C123.928 38.2406 125.08 34.4363 125.078 30.5451C125.07 25.3334 122.996 20.3374 119.311 16.6521C115.626 12.9669 110.63 10.893 105.418 10.885Z" fill="white"/>
<path d="M180.868 60.215C174.999 60.217 169.261 58.4786 164.381 55.2196C159.5 51.9607 155.696 47.3275 153.449 41.9062C151.202 36.4848 150.613 30.5189 151.756 24.7628C152.9 19.0068 155.725 13.7192 159.874 9.56875C164.023 5.41833 169.31 2.59146 175.066 1.44583C180.821 0.300196 186.787 0.887239 192.21 3.1326C197.632 5.37796 202.266 9.18079 205.526 14.0602C208.787 18.9396 210.527 24.6765 210.527 30.5451C210.519 38.4099 207.392 45.9504 201.832 51.5126C196.272 57.0748 188.733 60.2044 180.868 60.215ZM180.868 10.885C176.977 10.8831 173.172 12.0352 169.936 14.1958C166.699 16.3564 164.177 19.4285 162.687 23.0231C161.197 26.6177 160.806 30.5735 161.565 34.39C162.324 38.2066 164.197 41.7123 166.949 44.4638C169.7 47.2153 173.206 49.0889 177.023 49.8476C180.839 50.6062 184.795 50.2159 188.39 48.7259C191.984 47.2358 195.056 44.7131 197.217 41.4768C199.377 38.2406 200.529 34.4363 200.527 30.5451C200.519 25.3334 198.446 20.3374 194.761 16.6521C191.076 12.9669 186.079 10.893 180.868 10.885Z" fill="white"/>
<path d="M29.9672 135.665C24.0982 135.667 18.3601 133.929 13.4794 130.669C8.59865 127.41 4.79415 122.776 2.54726 117.354C0.300368 111.932 -0.287674 105.966 0.85683 100.209C2.00133 94.4529 4.82692 89.1653 8.97695 85.0153C13.127 80.8653 18.4149 78.0393 24.1713 76.8948C29.9276 75.7503 35.8939 76.3387 41.3158 78.5856C46.7377 80.8325 51.3713 84.6369 54.6308 89.5176C57.8902 94.3984 59.6288 100.136 59.6269 106.005C59.6163 113.868 56.4882 121.406 50.9281 126.966C45.3681 132.526 37.8303 135.655 29.9672 135.665ZM29.9672 86.3351C26.0764 86.3332 22.2721 87.4851 19.036 89.6453C15.8 91.8055 13.2773 94.8768 11.787 98.4709C10.2967 102.065 9.90612 106.02 10.664 109.836C11.4218 113.653 13.2943 117.159 16.0448 119.91C18.7953 122.662 22.3002 124.537 26.1161 125.297C29.932 126.056 33.887 125.667 37.4818 124.179C41.0766 122.69 44.1496 120.169 46.3114 116.934C48.4732 113.699 49.6269 109.896 49.6269 106.005C49.6216 100.792 47.5492 95.7932 43.8637 92.1058C40.1781 88.4184 35.1806 86.3431 29.9672 86.3351Z" fill="white"/>
<path d="M105.417 135.665C99.5482 135.667 93.8107 133.929 88.9299 130.669C84.0492 127.41 80.2447 122.776 77.9978 117.354C75.7509 111.932 75.1624 105.966 76.3069 100.209C77.4514 94.4529 80.2775 89.1653 84.4275 85.0153C88.5775 80.8653 93.865 78.0393 99.6214 76.8948C105.378 75.7503 111.344 76.3387 116.766 78.5856C122.188 80.8325 126.822 84.6369 130.081 89.5176C133.341 94.3984 135.079 100.136 135.077 106.005C135.067 113.868 131.939 121.406 126.379 126.966C120.819 132.526 113.28 135.655 105.417 135.665ZM105.417 86.3351C101.526 86.3332 97.7226 87.4851 94.4866 89.6453C91.2506 91.8055 88.7279 94.8768 87.2376 98.4709C85.7473 102.065 85.3562 106.02 86.114 109.836C86.8719 113.653 88.7444 117.159 91.4949 119.91C94.2454 122.662 97.7503 124.537 101.566 125.297C105.382 126.056 109.338 125.667 112.932 124.179C116.527 122.69 119.6 120.169 121.761 116.934C123.923 113.699 125.077 109.896 125.077 106.005C125.072 100.792 122.999 95.7932 119.314 92.1058C115.628 88.4184 110.631 86.3431 105.417 86.3351Z" fill="white"/>
<path d="M180.868 135.665C174.999 135.667 169.261 133.929 164.38 130.669C159.499 127.41 155.695 122.776 153.448 117.354C151.201 111.932 150.613 105.966 151.757 100.209C152.902 94.4529 155.728 89.1653 159.878 85.0153C164.028 80.8653 169.315 78.0393 175.072 76.8948C180.828 75.7503 186.794 76.3387 192.216 78.5856C197.638 80.8325 202.272 84.6369 205.531 89.5176C208.791 94.3984 210.529 100.136 210.527 106.005C210.517 113.868 207.389 121.406 201.829 126.966C196.268 132.526 188.731 135.655 180.868 135.665ZM180.868 86.3351C176.977 86.3332 173.173 87.4851 169.937 89.6453C166.701 91.8055 164.178 94.8768 162.687 98.4709C161.197 102.065 160.807 106.02 161.564 109.836C162.322 113.653 164.195 117.159 166.945 119.91C169.696 122.662 173.201 124.537 177.016 125.297C180.832 126.056 184.788 125.667 188.383 124.179C191.978 122.69 195.05 120.169 197.212 116.934C199.374 113.699 200.527 109.896 200.527 106.005C200.522 100.792 198.45 95.7932 194.764 92.1058C191.079 88.4184 186.081 86.3431 180.868 86.3351Z" fill="white"/>
<path d="M29.9672 211.115C24.0982 211.117 18.3601 209.378 13.4794 206.119C8.59865 202.859 4.79415 198.226 2.54726 192.804C0.300368 187.382 -0.287674 181.415 0.85683 175.659C2.00133 169.903 4.82692 164.615 8.97695 160.465C13.127 156.315 18.4149 153.489 24.1713 152.345C29.9276 151.2 35.8939 151.788 41.3158 154.035C46.7377 156.282 51.3713 160.087 54.6308 164.967C57.8902 169.848 59.6288 175.586 59.6269 181.455C59.6163 189.318 56.4882 196.856 50.9281 202.416C45.3681 207.976 37.8303 211.104 29.9672 211.115ZM29.9672 161.785C26.0764 161.783 22.2721 162.935 19.036 165.095C15.8 167.255 13.2773 170.327 11.787 173.921C10.2967 177.515 9.90612 181.47 10.664 185.286C11.4218 189.102 13.2943 192.608 16.0448 195.36C18.7953 198.112 22.3002 199.986 26.1161 200.746C29.932 201.506 33.887 201.117 37.4818 199.629C41.0766 198.14 44.1496 195.619 46.3114 192.384C48.4732 189.149 49.6269 185.346 49.6269 181.455C49.6216 176.241 47.5492 171.243 43.8637 167.555C40.1781 163.868 35.1806 161.793 29.9672 161.785Z" fill="white"/>
<path d="M105.417 211.115C99.5482 211.117 93.8107 209.378 88.9299 206.119C84.0492 202.859 80.2447 198.226 77.9978 192.804C75.7509 187.382 75.1624 181.415 76.3069 175.659C77.4514 169.903 80.2775 164.615 84.4275 160.465C88.5775 156.315 93.865 153.489 99.6214 152.345C105.378 151.2 111.344 151.788 116.766 154.035C122.188 156.282 126.822 160.087 130.081 164.967C133.341 169.848 135.079 175.586 135.077 181.455C135.067 189.318 131.939 196.856 126.379 202.416C120.819 207.976 113.28 211.104 105.417 211.115ZM105.417 161.785C101.526 161.783 97.7226 162.935 94.4866 165.095C91.2506 167.255 88.7279 170.327 87.2376 173.921C85.7473 177.515 85.3562 181.47 86.114 185.286C86.8719 189.102 88.7444 192.608 91.4949 195.36C94.2454 198.112 97.7503 199.986 101.566 200.746C105.382 201.506 109.338 201.117 112.932 199.629C116.527 198.14 119.6 195.619 121.761 192.384C123.923 189.149 125.077 185.346 125.077 181.455C125.072 176.241 122.999 171.243 119.314 167.555C115.628 163.868 110.631 161.793 105.417 161.785Z" fill="white"/>
<path d="M180.868 211.115C174.999 211.117 169.261 209.378 164.38 206.119C159.499 202.859 155.695 198.226 153.448 192.804C151.201 187.382 150.613 181.415 151.757 175.659C152.902 169.903 155.728 164.615 159.878 160.465C164.028 156.315 169.315 153.489 175.072 152.345C180.828 151.2 186.794 151.788 192.216 154.035C197.638 156.282 202.272 160.087 205.531 164.967C208.791 169.848 210.529 175.586 210.527 181.455C210.517 189.318 207.389 196.856 201.829 202.416C196.268 207.976 188.731 211.104 180.868 211.115ZM180.868 161.785C176.977 161.783 173.173 162.935 169.937 165.095C166.701 167.255 164.178 170.327 162.687 173.921C161.197 177.515 160.807 181.47 161.564 185.286C162.322 189.102 164.195 192.608 166.945 195.36C169.696 198.112 173.201 199.986 177.016 200.746C180.832 201.506 184.788 201.117 188.383 199.629C191.978 198.14 195.05 195.619 197.212 192.384C199.374 189.149 200.527 185.346 200.527 181.455C200.522 176.241 198.45 171.243 194.764 167.555C191.079 163.868 186.081 161.793 180.868 161.785Z" fill="white"/>
</svg>
