<svg width="52" height="52" viewBox="0 0 52 52" fill="none" xmlns="http://www.w3.org/2000/svg">
<path d="M25.8045 51.6659C21.8893 51.6659 18.1345 50.1079 15.366 47.3343C12.5976 44.5609 11.0422 40.7993 11.0422 36.8769V28.8635C11.0422 24.9411 12.5976 21.1794 15.366 18.4059C18.1345 15.6324 21.8893 14.0742 25.8045 14.0742C29.7197 14.0742 33.4747 15.6324 36.2429 18.4059C39.0115 21.1794 40.5667 24.9411 40.5667 28.8635V36.8769C40.5633 40.7983 39.0072 44.5579 36.2393 47.3309C33.4717 50.1036 29.7187 51.6629 25.8045 51.6659ZM25.8045 16.5465C22.5418 16.5465 19.4129 17.845 17.1058 20.1562C14.7988 22.4675 13.5026 25.6023 13.5026 28.8709V36.8769C13.5026 40.1456 14.7988 43.2803 17.1058 45.5916C19.4129 47.9026 22.5418 49.2013 25.8045 49.2013C29.0671 49.2013 32.1962 47.9026 34.5031 45.5916C36.8102 43.2803 38.1062 40.1456 38.1062 36.8769V28.8635C38.1052 25.5957 36.8085 22.4622 34.5014 20.152C32.1946 17.8418 29.0663 16.544 25.8045 16.544V16.5465Z" fill="white"/>
<path d="M38.8022 25.5908C38.5354 25.5904 38.2762 25.5034 38.0633 25.3426C37.8503 25.1819 37.6953 24.9563 37.6214 24.6996C37.5475 24.443 37.5592 24.1692 37.654 23.9196C37.7488 23.67 37.9222 23.4581 38.1474 23.3157L43.5605 19.8994L45.7575 14.9376C45.8231 14.7896 45.9172 14.6561 46.0343 14.5446C46.1515 14.4331 46.2892 14.3458 46.4399 14.2876C46.591 14.2295 46.7517 14.2016 46.9131 14.2057C47.0748 14.2098 47.2338 14.2458 47.3815 14.3115C47.5293 14.3772 47.6624 14.4714 47.7738 14.5887C47.8849 14.706 47.9721 14.8442 48.0303 14.9952C48.0882 15.1463 48.1159 15.3073 48.1119 15.4691C48.1079 15.631 48.0719 15.7904 48.0064 15.9383L45.6567 21.2427C45.5572 21.4662 45.3938 21.6549 45.1869 21.785L39.4491 25.4009C39.2554 25.5233 39.0312 25.5891 38.8022 25.5908Z" fill="white"/>
<path d="M46.8892 31.9477H39.331C39.0046 31.9477 38.6919 31.8178 38.4613 31.5867C38.2307 31.3556 38.101 31.0421 38.101 30.7152C38.101 30.3884 38.2307 30.0749 38.4613 29.8438C38.6919 29.6126 39.0046 29.4828 39.331 29.4828H46.3801L49.4898 26.3697C49.6035 26.2519 49.7393 26.1581 49.8894 26.0935C50.0394 26.0289 50.2008 25.9949 50.3642 25.9935C50.5275 25.992 50.6896 26.0232 50.8406 26.0852C50.9917 26.1472 51.1291 26.2387 51.2449 26.3544C51.3603 26.4701 51.4515 26.6077 51.5134 26.7592C51.5753 26.9106 51.6062 27.0729 51.6049 27.2365C51.6036 27.4002 51.5696 27.5619 51.5051 27.7123C51.4405 27.8626 51.347 27.9986 51.2296 28.1123L47.7603 31.5878C47.6458 31.7022 47.51 31.7928 47.3607 31.8546C47.2109 31.9163 47.0509 31.948 46.8892 31.9477Z" fill="white"/>
<path d="M43.0657 51.6659C42.933 51.6649 42.8009 51.6432 42.6748 51.6019C42.5211 51.5506 42.3793 51.4692 42.2575 51.3629C42.1354 51.2562 42.0353 51.1269 41.9634 50.9816C41.8915 50.8366 41.8486 50.6786 41.8376 50.5169C41.8267 50.3552 41.8476 50.1929 41.8995 50.0392L44.8864 41.1212L38.925 39.0386C38.6245 38.9252 38.3803 38.6986 38.2442 38.4072C38.1085 38.1162 38.0915 37.7832 38.197 37.4796C38.3028 37.1759 38.5224 36.9256 38.8099 36.7822C39.097 36.6389 39.4287 36.6136 39.7345 36.7116L46.8448 39.1962C47.1509 39.3029 47.4025 39.5259 47.5452 39.8169C47.6879 40.1082 47.7106 40.4439 47.6077 40.7516L44.2319 50.8256C44.1501 51.0702 43.9934 51.2832 43.7841 51.4339C43.5748 51.5849 43.3236 51.6659 43.0657 51.6659Z" fill="white"/>
<path d="M29.293 8.8762C29.0924 8.8757 28.8949 8.82663 28.7173 8.7332C28.5745 8.6575 28.4479 8.55433 28.3449 8.4296C28.2418 8.3049 28.1642 8.16106 28.1167 8.00633C28.0692 7.8516 28.0526 7.68897 28.0679 7.5278C28.0831 7.36663 28.1299 7.21003 28.2055 7.067L31.6008 0.63363C31.7571 0.35192 32.0174 0.142789 32.3258 0.0510199C32.6342 -0.0407491 32.9662 -0.00785272 33.2506 0.142701C33.5349 0.293254 33.7495 0.549466 33.8477 0.856406C33.9458 1.16335 33.9199 1.4966 33.7758 1.78474L30.3805 8.21806C30.2761 8.4165 30.1198 8.5827 29.9282 8.69866C29.7365 8.81463 29.5169 8.87603 29.293 8.8762Z" fill="white"/>
<path d="M12.4448 26.2781C12.1666 26.2789 11.8965 26.1841 11.6797 26.0094L6.30123 21.7156C6.14648 21.5919 6.02337 21.4331 5.94205 21.2522L3.59242 15.9478C3.45996 15.649 3.45131 15.3098 3.56853 15.0047C3.68572 14.6996 3.91916 14.4537 4.21738 14.321C4.51556 14.1883 4.85421 14.1797 5.15875 14.2971C5.46329 14.4145 5.70878 14.6483 5.84124 14.9471L8.07022 19.9754L13.2125 24.0819C13.4121 24.2412 13.5572 24.4588 13.6278 24.7045C13.6985 24.9501 13.6911 25.2117 13.6068 25.453C13.5225 25.6943 13.3653 25.9033 13.1571 26.0511C12.949 26.199 12.7 26.2783 12.4448 26.2781Z" fill="white"/>
<path d="M12.2763 31.9477H4.71559C4.55392 31.948 4.39388 31.9163 4.24442 31.8546C4.09496 31.7928 3.95908 31.7022 3.84462 31.5878L0.375589 28.1123C0.258094 27.9986 0.164352 27.8626 0.099879 27.7123C0.0354061 27.5619 0.00146588 27.4002 4.64733e-05 27.2365C-0.00137293 27.0729 0.0297347 26.9106 0.0915895 26.7592C0.153444 26.6077 0.244827 26.4701 0.360333 26.3544C0.475838 26.2387 0.61316 26.1472 0.764346 26.0852C0.915533 26.0232 1.07746 25.992 1.2408 25.9935C1.40415 25.9949 1.56561 26.0289 1.7157 26.0935C1.86579 26.1581 2.00155 26.2519 2.11503 26.3697L5.23724 29.4828H12.2887C12.615 29.4828 12.9277 29.6126 13.1585 29.8438C13.3892 30.0749 13.5189 30.3884 13.5189 30.7152C13.5189 31.0421 13.3892 31.3556 13.1585 31.5867C12.9277 31.8178 12.615 31.9477 12.2887 31.9477H12.2763Z" fill="white"/>
<path d="M8.5375 51.6663C8.27971 51.6663 8.02847 51.5853 7.81922 51.4343C7.60997 51.2836 7.45332 51.0706 7.37134 50.826L4.0055 40.7493C3.90263 40.442 3.92472 40.1066 4.06703 39.8153C4.20933 39.5243 4.4603 39.301 4.76575 39.194L11.8763 36.7093C12.0299 36.6516 12.1934 36.625 12.3574 36.6313C12.5215 36.6376 12.6826 36.6766 12.8313 36.7463C12.9799 36.816 13.1132 36.915 13.2232 37.037C13.3331 37.159 13.4176 37.302 13.4716 37.4573C13.5256 37.6123 13.5481 37.777 13.5376 37.941C13.5272 38.1053 13.4841 38.2656 13.4109 38.4126C13.3377 38.56 13.2357 38.691 13.1112 38.798C12.9866 38.905 12.842 38.986 12.6856 39.0363L6.72419 41.119L9.71109 50.037C9.76283 50.1906 9.78382 50.353 9.77284 50.5146C9.7619 50.6763 9.71917 50.8343 9.64721 50.9796C9.5752 51.1246 9.47535 51.2543 9.35334 51.3606C9.23133 51.467 9.08953 51.5483 8.93611 51.5996C8.80758 51.643 8.67302 51.6653 8.5375 51.6663Z" fill="white"/>
<path d="M22.315 8.87637C22.0907 8.87664 21.8705 8.81547 21.6784 8.69947C21.4862 8.58347 21.3295 8.41704 21.225 8.21824L17.8297 1.78491C17.7112 1.50056 17.7033 1.18205 17.8076 0.89217C17.9119 0.602294 18.1208 0.362091 18.3931 0.218873C18.6655 0.075654 18.9814 0.0398037 19.2788 0.118436C19.5762 0.197069 19.8334 0.384467 19.9997 0.643667L23.395 7.07697C23.4942 7.26464 23.5433 7.47477 23.5376 7.68704C23.5319 7.8993 23.4716 8.10647 23.3624 8.28847C23.2533 8.4705 23.0989 8.6212 22.9146 8.7259C22.7302 8.83064 22.522 8.88584 22.31 8.8862L22.315 8.87637Z" fill="white"/>
<path d="M34.2216 19.4922C33.9431 19.4931 33.6723 19.3993 33.454 19.226C31.2797 17.4896 28.5815 16.544 25.801 16.544C23.0204 16.544 20.3222 17.4896 18.148 19.226C17.9906 19.3513 17.805 19.436 17.6074 19.4728C17.4097 19.5096 17.2061 19.4972 17.0143 19.4369C16.8225 19.3766 16.6484 19.2701 16.5072 19.1268C16.366 18.9835 16.262 18.8077 16.2043 18.6147C15.7536 17.1153 15.6593 15.531 15.9288 13.9885C16.1984 12.446 16.8244 10.9881 17.7568 9.73122C18.6892 8.47435 19.9021 7.45345 21.2987 6.75009C22.6952 6.04672 24.2367 5.68042 25.7997 5.68042C27.3628 5.68042 28.9043 6.04672 30.3009 6.75009C31.6974 7.45345 32.9103 8.47435 33.8426 9.73122C34.7753 10.9881 35.4011 12.446 35.6706 13.9885C35.9401 15.531 35.846 17.1153 35.3951 18.6147C35.3376 18.8078 35.2338 18.9838 35.0927 19.1273C34.9516 19.2708 34.7776 19.3775 34.5856 19.438C34.4678 19.474 34.3451 19.4923 34.2216 19.4922ZM25.8022 14.0695C28.4594 14.0608 31.0686 14.7793 33.3482 16.1474C33.3482 16.0044 33.3605 15.8615 33.3605 15.7161C33.3246 13.7311 32.5126 11.8396 31.0988 10.4485C29.685 9.05749 27.7826 8.27812 25.801 8.27812C23.8193 8.27812 21.9169 9.05749 20.5031 10.4485C19.0893 11.8396 18.2772 13.7311 18.2415 15.7161C18.2415 15.8615 18.2415 16.0044 18.2538 16.1474C20.5352 14.7826 23.145 14.0676 25.8022 14.0794V14.0695Z" fill="white"/>
</svg>
