<svg width="340" height="32" viewBox="0 0 340 32" fill="none" xmlns="http://www.w3.org/2000/svg">
<mask id="path-1-inside-1_391_19" fill="white">
<path d="M24.9019 8.5C24.9019 3.80558 28.7074 0 33.4019 0H306.402C311.096 0 314.902 3.80558 314.902 8.5V8.5C314.902 13.1944 311.096 17 306.402 17H33.4019C28.7074 17 24.9019 13.1944 24.9019 8.5V8.5Z"/>
</mask>
<path d="M24.9019 8.5C24.9019 3.25329 29.1552 -1 34.4019 -1H305.402C310.649 -1 314.902 3.25329 314.902 8.5C314.902 4.35786 311.096 1 306.402 1H33.4019C28.7074 1 24.9019 4.35786 24.9019 8.5ZM314.902 17H24.9019H314.902ZM24.9019 17V0V17ZM314.902 0V17V0Z" fill="white" mask="url(#path-1-inside-1_391_19)"/>
<mask id="path-3-inside-2_391_19" fill="white">
<path d="M0 16H50V17H0V16Z"/>
</mask>
<path d="M0 16H50V17H0V16Z" fill="white"/>
<path d="M50 16H0V18H50V16Z" fill="white" mask="url(#path-3-inside-2_391_19)"/>
<path d="M69.6834 14.0298C69.601 13.7713 69.4902 13.5398 69.351 13.3352C69.2147 13.1278 69.0513 12.9517 68.861 12.8068C68.6706 12.6591 68.4533 12.5469 68.209 12.4702C67.9675 12.3935 67.7019 12.3551 67.4121 12.3551C66.9206 12.3551 66.4775 12.4815 66.0826 12.7344C65.6877 12.9872 65.3752 13.358 65.1451 13.8466C64.9178 14.3324 64.8042 14.9276 64.8042 15.6321C64.8042 16.3395 64.9192 16.9375 65.1493 17.4261C65.3794 17.9148 65.6948 18.2855 66.0953 18.5384C66.4959 18.7912 66.9519 18.9176 67.4632 18.9176C67.9377 18.9176 68.351 18.821 68.7033 18.6278C69.0584 18.4347 69.3326 18.1619 69.5257 17.8097C69.7218 17.4545 69.8198 17.0369 69.8198 16.5568L70.1607 16.6207H67.6635V15.5341H71.0939V16.527C71.0939 17.2599 70.9377 17.8963 70.6252 18.4361C70.3155 18.973 69.8865 19.3878 69.3382 19.6804C68.7928 19.973 68.1678 20.1193 67.4632 20.1193C66.6735 20.1193 65.9803 19.9375 65.3837 19.5739C64.79 19.2102 64.3269 18.6946 63.9945 18.027C63.6621 17.3565 63.4959 16.5611 63.4959 15.6406C63.4959 14.9446 63.5925 14.3196 63.7857 13.7656C63.9789 13.2116 64.2502 12.7415 64.5996 12.3551C64.9519 11.9659 65.3652 11.669 65.8397 11.4645C66.3169 11.2571 66.8382 11.1534 67.4036 11.1534C67.8752 11.1534 68.3141 11.223 68.7203 11.3622C69.1294 11.5014 69.4931 11.6989 69.8113 11.9545C70.1323 12.2102 70.3979 12.5142 70.6081 12.8665C70.8184 13.2159 70.9604 13.6037 71.0343 14.0298H69.6834ZM82.3464 15.6364C82.3464 16.5682 82.176 17.3693 81.8351 18.0398C81.4941 18.7074 81.0268 19.2216 80.4331 19.5824C79.8422 19.9403 79.1703 20.1193 78.4174 20.1193C77.6618 20.1193 76.987 19.9403 76.3933 19.5824C75.8024 19.2216 75.3365 18.706 74.9956 18.0355C74.6547 17.3651 74.4842 16.5653 74.4842 15.6364C74.4842 14.7045 74.6547 13.9048 74.9956 13.2372C75.3365 12.5668 75.8024 12.0526 76.3933 11.6946C76.987 11.3338 77.6618 11.1534 78.4174 11.1534C79.1703 11.1534 79.8422 11.3338 80.4331 11.6946C81.0268 12.0526 81.4941 12.5668 81.8351 13.2372C82.176 13.9048 82.3464 14.7045 82.3464 15.6364ZM81.0424 15.6364C81.0424 14.9261 80.9274 14.3281 80.6973 13.8423C80.47 13.3537 80.1575 12.9844 79.7598 12.7344C79.3649 12.4815 78.9174 12.3551 78.4174 12.3551C77.9146 12.3551 77.4657 12.4815 77.0708 12.7344C76.676 12.9844 76.3635 13.3537 76.1333 13.8423C75.9061 14.3281 75.7924 14.9261 75.7924 15.6364C75.7924 16.3466 75.9061 16.946 76.1333 17.4347C76.3635 17.9205 76.676 18.2898 77.0708 18.5426C77.4657 18.7926 77.9146 18.9176 78.4174 18.9176C78.9174 18.9176 79.3649 18.7926 79.7598 18.5426C80.1575 18.2898 80.47 17.9205 80.6973 17.4347C80.9274 16.946 81.0424 16.3466 81.0424 15.6364ZM93.9892 20H91.1639V11.2727H94.0787C94.9338 11.2727 95.6681 11.4474 96.2818 11.7969C96.8954 12.1435 97.3656 12.642 97.6923 13.2926C98.0218 13.9403 98.1866 14.7173 98.1866 15.6236C98.1866 16.5327 98.0204 17.3139 97.688 17.9673C97.3585 18.6207 96.8812 19.1236 96.2562 19.4759C95.6312 19.8253 94.8755 20 93.9892 20ZM92.4806 18.8494H93.9167C94.5815 18.8494 95.1341 18.7244 95.5744 18.4744C96.0147 18.2216 96.3443 17.8565 96.563 17.3793C96.7818 16.8991 96.8912 16.3139 96.8912 15.6236C96.8912 14.9389 96.7818 14.358 96.563 13.8807C96.3471 13.4034 96.0247 13.0412 95.5957 12.794C95.1667 12.5469 94.6341 12.4233 93.9977 12.4233H92.4806V18.8494ZM109.405 15.6364C109.405 16.5682 109.235 17.3693 108.894 18.0398C108.553 18.7074 108.085 19.2216 107.492 19.5824C106.901 19.9403 106.229 20.1193 105.476 20.1193C104.72 20.1193 104.046 19.9403 103.452 19.5824C102.861 19.2216 102.395 18.706 102.054 18.0355C101.713 17.3651 101.543 16.5653 101.543 15.6364C101.543 14.7045 101.713 13.9048 102.054 13.2372C102.395 12.5668 102.861 12.0526 103.452 11.6946C104.046 11.3338 104.72 11.1534 105.476 11.1534C106.229 11.1534 106.901 11.3338 107.492 11.6946C108.085 12.0526 108.553 12.5668 108.894 13.2372C109.235 13.9048 109.405 14.7045 109.405 15.6364ZM108.101 15.6364C108.101 14.9261 107.986 14.3281 107.756 13.8423C107.529 13.3537 107.216 12.9844 106.818 12.7344C106.423 12.4815 105.976 12.3551 105.476 12.3551C104.973 12.3551 104.524 12.4815 104.129 12.7344C103.735 12.9844 103.422 13.3537 103.192 13.8423C102.965 14.3281 102.851 14.9261 102.851 15.6364C102.851 16.3466 102.965 16.946 103.192 17.4347C103.422 17.9205 103.735 18.2898 104.129 18.5426C104.524 18.7926 104.973 18.9176 105.476 18.9176C105.976 18.9176 106.423 18.7926 106.818 18.5426C107.216 18.2898 107.529 17.9205 107.756 17.4347C107.986 16.946 108.101 16.3466 108.101 15.6364ZM114.65 20L112.23 11.2727H113.615L115.315 18.0312H115.396L117.164 11.2727H118.536L120.305 18.0355H120.386L122.082 11.2727H123.471L121.046 20H119.721L117.884 13.4631H117.816L115.98 20H114.65ZM133.716 11.2727V20H132.506L128.069 13.5994H127.988V20H126.672V11.2727H127.89L132.331 17.6818H132.412V11.2727H133.716ZM142.382 12.4062V11.2727H149.136V12.4062H146.413V20H145.101V12.4062H142.382ZM152.629 20V11.2727H153.945V15.0653H158.296V11.2727H159.617V20H158.296V16.1946H153.945V20H152.629ZM163.535 20V11.2727H169.007V12.4062H164.852V15.0653H168.721V16.1946H164.852V18.8665H169.058V20H163.535ZM177.941 20V11.2727H181.052C181.728 11.2727 182.289 11.3892 182.735 11.6222C183.184 11.8551 183.519 12.1776 183.741 12.5895C183.963 12.9986 184.073 13.4716 184.073 14.0085C184.073 14.5426 183.961 15.0128 183.737 15.419C183.515 15.8224 183.18 16.1364 182.731 16.3608C182.285 16.5852 181.724 16.6974 181.048 16.6974H178.691V15.5639H180.928C181.355 15.5639 181.701 15.5028 181.968 15.3807C182.238 15.2585 182.436 15.081 182.561 14.848C182.686 14.6151 182.748 14.3352 182.748 14.0085C182.748 13.679 182.684 13.3935 182.556 13.152C182.431 12.9105 182.234 12.7259 181.964 12.598C181.697 12.4673 181.346 12.402 180.911 12.402H179.258V20H177.941ZM182.249 16.0625L184.406 20H182.906L180.792 16.0625H182.249ZM188.413 20H187.015L190.156 11.2727H191.677L194.818 20H193.42L190.953 12.858H190.884L188.413 20ZM188.647 16.5824H193.181V17.6903H188.647V16.5824ZM198.078 20V11.2727H201.274C201.893 11.2727 202.406 11.375 202.812 11.5795C203.219 11.7812 203.523 12.0554 203.724 12.402C203.926 12.7457 204.027 13.1335 204.027 13.5653C204.027 13.929 203.96 14.2358 203.827 14.4858C203.693 14.733 203.514 14.9318 203.29 15.0824C203.068 15.2301 202.824 15.3381 202.557 15.4062V15.4915C202.846 15.5057 203.129 15.5994 203.405 15.7727C203.683 15.9432 203.913 16.1861 204.095 16.5014C204.277 16.8168 204.368 17.2003 204.368 17.652C204.368 18.098 204.263 18.4986 204.052 18.8537C203.845 19.206 203.524 19.4858 203.089 19.6932C202.655 19.8977 202.099 20 201.423 20H198.078ZM199.395 18.8707H201.295C201.926 18.8707 202.378 18.7486 202.65 18.5043C202.923 18.2599 203.059 17.9545 203.059 17.5881C203.059 17.3125 202.99 17.0597 202.851 16.8295C202.711 16.5994 202.513 16.4162 202.254 16.2798C201.998 16.1435 201.694 16.0753 201.342 16.0753H199.395V18.8707ZM199.395 15.0483H201.159C201.454 15.0483 201.72 14.9915 201.956 14.8778C202.194 14.7642 202.383 14.6051 202.523 14.4006C202.665 14.1932 202.736 13.9489 202.736 13.6676C202.736 13.3068 202.609 13.0043 202.356 12.7599C202.104 12.5156 201.716 12.3935 201.193 12.3935H199.395V15.0483ZM207.93 20V11.2727H211.126C211.745 11.2727 212.258 11.375 212.664 11.5795C213.07 11.7812 213.374 12.0554 213.576 12.402C213.778 12.7457 213.878 13.1335 213.878 13.5653C213.878 13.929 213.812 14.2358 213.678 14.4858C213.545 14.733 213.366 14.9318 213.141 15.0824C212.92 15.2301 212.675 15.3381 212.408 15.4062V15.4915C212.698 15.5057 212.981 15.5994 213.256 15.7727C213.535 15.9432 213.765 16.1861 213.947 16.5014C214.128 16.8168 214.219 17.2003 214.219 17.652C214.219 18.098 214.114 18.4986 213.904 18.8537C213.697 19.206 213.376 19.4858 212.941 19.6932C212.506 19.8977 211.951 20 211.275 20H207.93ZM209.246 18.8707H211.147C211.778 18.8707 212.229 18.7486 212.502 18.5043C212.775 18.2599 212.911 17.9545 212.911 17.5881C212.911 17.3125 212.841 17.0597 212.702 16.8295C212.563 16.5994 212.364 16.4162 212.106 16.2798C211.85 16.1435 211.546 16.0753 211.194 16.0753H209.246V18.8707ZM209.246 15.0483H211.01C211.306 15.0483 211.572 14.9915 211.807 14.8778C212.046 14.7642 212.235 14.6051 212.374 14.4006C212.516 14.1932 212.587 13.9489 212.587 13.6676C212.587 13.3068 212.461 13.0043 212.208 12.7599C211.955 12.5156 211.567 12.3935 211.045 12.3935H209.246V15.0483ZM219.098 11.2727V20H217.781V11.2727H219.098ZM222.585 12.4062V11.2727H229.339V12.4062H226.616V20H225.304V12.4062H222.585ZM238.008 20V11.2727H239.324V15.0653H243.675V11.2727H244.996V20H243.675V16.1946H239.324V20H238.008ZM256.495 15.6364C256.495 16.5682 256.324 17.3693 255.983 18.0398C255.643 18.7074 255.175 19.2216 254.581 19.5824C253.991 19.9403 253.319 20.1193 252.566 20.1193C251.81 20.1193 251.135 19.9403 250.542 19.5824C249.951 19.2216 249.485 18.706 249.144 18.0355C248.803 17.3651 248.633 16.5653 248.633 15.6364C248.633 14.7045 248.803 13.9048 249.144 13.2372C249.485 12.5668 249.951 12.0526 250.542 11.6946C251.135 11.3338 251.81 11.1534 252.566 11.1534C253.319 11.1534 253.991 11.3338 254.581 11.6946C255.175 12.0526 255.643 12.5668 255.983 13.2372C256.324 13.9048 256.495 14.7045 256.495 15.6364ZM255.191 15.6364C255.191 14.9261 255.076 14.3281 254.846 13.8423C254.618 13.3537 254.306 12.9844 253.908 12.7344C253.513 12.4815 253.066 12.3551 252.566 12.3551C252.063 12.3551 251.614 12.4815 251.219 12.7344C250.824 12.9844 250.512 13.3537 250.282 13.8423C250.055 14.3281 249.941 14.9261 249.941 15.6364C249.941 16.3466 250.055 16.946 250.282 17.4347C250.512 17.9205 250.824 18.2898 251.219 18.5426C251.614 18.7926 252.063 18.9176 252.566 18.9176C253.066 18.9176 253.513 18.7926 253.908 18.5426C254.306 18.2898 254.618 17.9205 254.846 17.4347C255.076 16.946 255.191 16.3466 255.191 15.6364ZM260.137 20V11.2727H261.453V18.8665H265.408V20H260.137ZM268.91 20V11.2727H274.382V12.4062H270.227V15.0653H274.096V16.1946H270.227V18.8665H274.433V20H268.91Z" fill="white"/>
<mask id="path-6-inside-3_391_19" fill="white">
<path d="M290 16H340V17H290V16Z"/>
</mask>
<path d="M290 16H340V17H290V16Z" fill="white"/>
<path d="M340 16H290V18H340V16Z" fill="white" mask="url(#path-6-inside-3_391_19)"/>
<mask id="path-8-inside-4_391_19" fill="white">
<path d="M24.9019 23.5C24.9019 18.8056 28.7074 15 33.4019 15H306.402C311.096 15 314.902 18.8056 314.902 23.5V23.5C314.902 28.1944 311.096 32 306.402 32H33.4019C28.7074 32 24.9019 28.1944 24.9019 23.5V23.5Z"/>
</mask>
<path d="M24.9019 15H314.902H24.9019ZM314.902 23.5C314.902 28.7467 310.649 33 305.402 33H34.4019C29.1552 33 24.9019 28.7467 24.9019 23.5C24.9019 27.6421 28.7074 31 33.4019 31H306.402C311.096 31 314.902 27.6421 314.902 23.5ZM24.9019 32V15V32ZM314.902 15V32V15Z" fill="white" mask="url(#path-8-inside-4_391_19)"/>
</svg>
