<svg width="56" height="55" viewBox="0 0 56 55" fill="none" xmlns="http://www.w3.org/2000/svg">
<path d="M8.29592 55C6.37517 54.9985 4.51435 54.3311 3.03052 53.1115C1.54669 51.8918 0.531693 50.1955 0.158355 48.3114C-0.214983 46.4273 0.0765085 44.4721 0.983135 42.7788C1.88976 41.0855 3.35536 39.7589 5.13039 39.0251C6.90542 38.2913 8.87996 38.1956 10.7176 38.7543C12.5553 39.3131 14.1424 40.4917 15.2086 42.0894C16.2747 43.687 16.7539 45.6049 16.5645 47.5163C16.3751 49.4277 15.5289 51.2142 14.17 52.5716C13.3991 53.3434 12.4834 53.9553 11.4753 54.372C10.4672 54.7888 9.38673 55.0022 8.29592 55V55ZM8.29592 41.0208C6.98257 41.0216 5.7101 41.4777 4.69535 42.3115C3.6806 43.1452 2.98637 44.305 2.73087 45.5933C2.47536 46.8815 2.67438 48.2185 3.29411 49.3764C3.91384 50.5343 4.91594 51.4415 6.12957 51.9435C7.3432 52.4454 8.69336 52.5111 9.94997 52.1292C11.2066 51.7474 12.2919 50.9417 13.021 49.8493C13.7502 48.757 14.0779 47.4456 13.9486 46.1387C13.8193 44.8318 13.2408 43.6101 12.3118 42.6818C11.7858 42.1522 11.1601 41.732 10.4709 41.4456C9.78158 41.1591 9.04236 41.0121 8.29592 41.0129V41.0208Z" fill="white"/>
<path d="M22.1029 51.069C20.1815 51.0684 18.3198 50.4015 16.835 49.1821C15.3501 47.9627 14.334 46.2662 13.9597 44.3816C13.5855 42.4971 13.8763 40.541 14.7826 38.8468C15.6888 37.1526 17.1545 35.825 18.9298 35.0902C20.7052 34.3555 22.6804 34.259 24.5189 34.8173C26.3574 35.3755 27.9455 36.554 29.0125 38.1518C30.0796 39.7497 30.5596 41.6681 30.3708 43.5802C30.1819 45.4922 29.336 47.2797 27.977 48.638C27.2065 49.4104 26.2908 50.0228 25.2827 50.44C24.2746 50.8572 23.194 51.071 22.1029 51.069V51.069ZM22.1029 37.0872C20.7896 37.0879 19.5172 37.5441 18.5025 38.3778C17.4878 39.2116 16.7934 40.3714 16.5379 41.6596C16.2824 42.9478 16.4815 44.2848 17.1013 45.4427C17.721 46.6006 18.723 47.5079 19.9366 48.0098C21.1502 48.5118 22.5004 48.5775 23.757 48.1956C25.0136 47.8137 26.0989 47.008 26.8281 45.9157C27.5572 44.8233 27.8851 43.512 27.7558 42.2051C27.6265 40.8981 27.048 39.6764 26.1189 38.7482C25.5918 38.2207 24.9656 37.8024 24.2765 37.5174C23.5873 37.2323 22.8487 37.0861 22.1029 37.0872Z" fill="white"/>
<path d="M12.2164 41.1793C10.2957 41.1777 8.43488 40.5103 6.95105 39.2907C5.46722 38.0711 4.45222 36.3747 4.07889 34.4906C3.70555 32.6065 3.99704 30.6513 4.90367 28.958C5.81029 27.2647 7.27589 25.9381 9.05092 25.2043C10.826 24.4705 12.8006 24.3748 14.6383 24.9335C16.476 25.4923 18.063 26.6709 19.1291 28.2686C20.1952 29.8662 20.6744 31.7841 20.485 33.6955C20.2956 35.6068 19.4495 37.3934 18.0905 38.7508C17.3195 39.5224 16.4037 40.1341 15.3957 40.5508C14.3877 40.9676 13.3072 41.1811 12.2164 41.1793ZM12.2164 27.2C10.9031 27.2008 9.63063 27.6569 8.61588 28.4907C7.60114 29.3244 6.9069 30.4842 6.6514 31.7724C6.3959 33.0607 6.59492 34.3977 7.21464 35.5556C7.83437 36.7135 8.83647 37.6207 10.0501 38.1227C11.2637 38.6247 12.6139 38.6903 13.8705 38.3084C15.1271 37.9266 16.2124 37.1209 16.9416 36.0285C17.6707 34.9362 17.9986 33.6249 17.8693 32.3179C17.74 31.011 17.1615 29.7893 16.2324 28.861C15.7053 28.3335 15.0791 27.9153 14.39 27.6302C13.7008 27.3452 12.9622 27.199 12.2164 27.2Z" fill="white"/>
<path d="M17.1632 39.137C16.9029 39.1374 16.6485 39.0606 16.432 38.9162C16.2154 38.7719 16.0466 38.5665 15.947 38.3261C15.8473 38.0857 15.8213 37.8211 15.8722 37.5659C15.9231 37.3107 16.0487 37.0763 16.2329 36.8925L52.5494 0.576466C52.6706 0.450957 52.8157 0.350822 52.976 0.281952C53.1363 0.213082 53.3088 0.176859 53.4833 0.175343C53.6578 0.173826 53.8307 0.207056 53.9922 0.273129C54.1537 0.339202 54.3004 0.436785 54.4238 0.560168C54.5472 0.683551 54.6448 0.830273 54.7109 0.991769C54.777 1.15327 54.8102 1.3263 54.8087 1.50078C54.8072 1.67527 54.7709 1.84771 54.702 2.00804C54.6332 2.16836 54.5331 2.31335 54.4076 2.43457L18.091 38.7506C17.8452 38.9973 17.5114 39.1362 17.1632 39.137V39.137Z" fill="white"/>
<path d="M48.995 19.8144C48.8223 19.8147 48.6512 19.781 48.4916 19.7151C48.3319 19.6493 48.1869 19.5526 48.0646 19.4307L41.9698 13.3359C41.8443 13.2147 41.7442 13.0697 41.6753 12.9094C41.6064 12.7491 41.5702 12.5766 41.5687 12.4022C41.5671 12.2277 41.6004 12.0546 41.6664 11.8931C41.7325 11.7316 41.8301 11.5849 41.9535 11.4615C42.0769 11.3382 42.2236 11.2406 42.3851 11.1745C42.5466 11.1084 42.7196 11.0752 42.894 11.0767C43.0685 11.0782 43.241 11.1145 43.4013 11.1834C43.5617 11.2522 43.7067 11.3523 43.8279 11.4778L49.9227 17.5725C50.1691 17.819 50.3074 18.1532 50.3074 18.5016C50.3074 18.8501 50.1691 19.1843 49.9227 19.4307C49.8013 19.553 49.6567 19.6499 49.4974 19.7158C49.3381 19.7817 49.1674 19.8152 48.995 19.8144V19.8144Z" fill="white"/>
<path d="M41.4001 21.9818C41.1406 21.9812 40.8871 21.9038 40.6715 21.7594C40.456 21.6149 40.288 21.4099 40.1888 21.1702C40.0895 20.9304 40.0635 20.6666 40.1139 20.4121C40.1644 20.1576 40.2892 19.9237 40.4724 19.7399L50.3386 9.87378C50.5864 9.63441 50.9184 9.50194 51.2629 9.50493C51.6075 9.50793 51.9371 9.64615 52.1807 9.88979C52.4244 10.1334 52.5626 10.463 52.5656 10.8076C52.5686 11.1521 52.4362 11.484 52.1968 11.7319L42.3305 21.5981C42.2082 21.72 42.0632 21.8167 41.9035 21.8825C41.7439 21.9483 41.5728 21.9821 41.4001 21.9818V21.9818Z" fill="white"/>
<path d="M44.1147 24.6908C43.942 24.6911 43.7709 24.6574 43.6112 24.5916C43.4516 24.5257 43.3066 24.4291 43.1843 24.3071L40.472 21.5922C40.2327 21.3444 40.1001 21.0124 40.1031 20.6679C40.1061 20.3233 40.2443 19.9938 40.4879 19.7501C40.7316 19.5065 41.0612 19.3683 41.4058 19.3653C41.7503 19.3623 42.0823 19.4947 42.3301 19.7341L45.0451 22.449C45.2284 22.6329 45.3531 22.8671 45.4035 23.1218C45.4539 23.3766 45.4277 23.6406 45.3282 23.8805C45.2286 24.1203 45.0602 24.3253 44.8442 24.4696C44.6283 24.6138 44.3744 24.6908 44.1147 24.6908V24.6908Z" fill="white"/>
<path d="M53.9787 14.8281C53.806 14.8284 53.6349 14.7946 53.4752 14.7288C53.3156 14.663 53.1705 14.5663 53.0483 14.4443L50.3359 11.7295C50.0895 11.4827 49.9513 11.1482 49.9515 10.7995C49.9518 10.4507 50.0905 10.1164 50.3373 9.87004C50.5841 9.62363 50.9186 9.48535 51.2673 9.4856C51.616 9.48584 51.9503 9.6246 52.1967 9.87135L54.9091 12.5862C55.0924 12.7702 55.2171 13.0043 55.2675 13.2591C55.3179 13.5138 55.2916 13.7778 55.192 14.0177C55.0925 14.2575 54.9242 14.4625 54.7082 14.6068C54.4923 14.751 54.2384 14.828 53.9787 14.8281V14.8281Z" fill="white"/>
</svg>
