<svg width="16" height="16" viewBox="0 0 16 16" fill="none" xmlns="http://www.w3.org/2000/svg">
<path fill-rule="evenodd" clip-rule="evenodd" d="M5.25005 0.911821C5.52012 1.10383 5.58341 1.47842 5.39139 1.74849C5.24088 1.9602 5.11562 2.19077 5.01982 2.43589C5.16815 2.57267 5.32588 2.69935 5.49189 2.81486C6.07753 2.07556 6.98368 1.60024 8.00156 1.60024C9.01944 1.60024 9.92559 2.07556 10.5112 2.81485C10.6772 2.69935 10.835 2.57266 10.9833 2.43589C10.8875 2.19077 10.7622 1.9602 10.6117 1.74849C10.4197 1.47842 10.483 1.10383 10.7531 0.911821C11.0231 0.719811 11.3977 0.783092 11.5897 1.05316C11.8847 1.46802 12.1098 1.93667 12.2473 2.44181C12.3017 2.64171 12.2492 2.85555 12.1083 3.00745C11.7995 3.34047 11.4505 3.63592 11.0689 3.88614C11.1553 4.17617 11.2016 4.48312 11.2016 4.80024C11.2016 5.21636 10.9606 5.57077 10.6232 5.74982C10.329 5.90593 10.0192 6.03657 9.69699 6.13883C9.80124 6.305 9.88173 6.48759 9.93372 6.68183C11.0641 6.54225 12.1567 6.28179 13.1985 5.91384C13.2005 5.80956 13.2016 5.70503 13.2016 5.60024C13.2016 5.07991 13.1761 4.56571 13.1264 4.05879C13.0941 3.729 13.3352 3.43544 13.665 3.40311C13.9948 3.37077 14.2884 3.61191 14.3207 3.9417C14.3742 4.48747 14.4016 5.04075 14.4016 5.60024C14.4016 5.85623 14.3958 6.11093 14.3845 6.36421C14.3738 6.60289 14.2225 6.81249 13.9993 6.89781C12.6952 7.3964 11.3131 7.73712 9.87682 7.8967C9.85166 7.96443 9.82294 8.03042 9.79088 8.09446C10.2526 8.14336 10.7088 8.21097 11.1587 8.29653C12.1361 8.48242 13.0836 8.75298 13.9931 9.1003C14.2363 9.19316 14.3919 9.43223 14.3783 9.69219C14.3042 11.107 14.055 12.4761 13.6518 13.7778C13.5537 14.0943 13.2176 14.2714 12.9011 14.1734C12.5846 14.0753 12.4075 13.7392 12.5055 13.4227C12.8377 12.3503 13.0574 11.2281 13.1507 10.0698C12.7544 9.93134 12.3508 9.80837 11.9407 9.70168C11.9807 9.92869 12.0016 10.1622 12.0016 10.4002C12.0016 11.8512 11.5882 13.0498 10.8606 13.8957C10.1289 14.7463 9.11144 15.2002 8.00156 15.2002C6.89168 15.2002 5.87424 14.7463 5.14253 13.8957C4.41494 13.0498 4.00156 11.8512 4.00156 10.4002C4.00156 10.1622 4.02243 9.92869 4.06245 9.70168C3.6523 9.80837 3.24873 9.93134 2.85245 10.0699C2.9457 11.2281 3.1654 12.3503 3.49761 13.4227C3.59567 13.7392 3.41857 14.0753 3.10204 14.1734C2.78551 14.2714 2.44942 14.0943 2.35136 13.7778C1.9481 12.4761 1.6989 11.107 1.62485 9.69219C1.61124 9.43223 1.76681 9.19316 2.00999 9.1003C2.91956 8.75299 3.86705 8.48242 4.84445 8.29654C5.29437 8.21097 5.75056 8.14336 6.21224 8.09446C6.18018 8.03042 6.15147 7.96443 6.1263 7.89671C4.69 7.73712 3.30795 7.3964 2.00378 6.89781C1.78061 6.81249 1.62932 6.6029 1.61864 6.36422C1.60729 6.11094 1.60156 5.85624 1.60156 5.60024C1.60156 5.04075 1.62893 4.48747 1.68244 3.9417C1.71477 3.61191 2.00833 3.37077 2.33812 3.40311C2.66791 3.43544 2.90905 3.729 2.87671 4.05878C2.82702 4.56571 2.80156 5.07991 2.80156 5.60024C2.80156 5.70503 2.80259 5.80956 2.80465 5.91384C3.84639 6.28179 4.93903 6.54225 6.0694 6.68183C6.12139 6.48759 6.20189 6.305 6.30614 6.13883C5.98387 6.03657 5.67414 5.90593 5.37995 5.74982C5.04253 5.57077 4.80156 5.21636 4.80156 4.80024C4.80156 4.48312 4.84786 4.17617 4.93419 3.88614C4.55264 3.63592 4.20366 3.34047 3.89481 3.00745C3.75393 2.85555 3.70138 2.64171 3.75581 2.44181C3.89335 1.93667 4.11844 1.46802 4.41338 1.05316C4.60539 0.783092 4.97998 0.719811 5.25005 0.911821Z" fill="#978CFB"/>
</svg>
