<svg width="16" height="16" viewBox="0 0 16 16" fill="none" xmlns="http://www.w3.org/2000/svg">
<path fill-rule="evenodd" clip-rule="evenodd" d="M3.40156 1.59961C2.40745 1.59961 1.60156 2.4055 1.60156 3.39961V12.5996C1.60156 13.5937 2.40745 14.3996 3.40156 14.3996H12.6016C13.5957 14.3996 14.4016 13.5937 14.4016 12.5996V3.39961C14.4016 2.4055 13.5957 1.59961 12.6016 1.59961H3.40156ZM6.62583 6.62387C6.86014 6.38956 6.86014 6.00966 6.62583 5.77534C6.39151 5.54103 6.01161 5.54103 5.7773 5.77534L3.9773 7.57535C3.74298 7.80966 3.74298 8.18956 3.9773 8.42387L5.7773 10.2239C6.01161 10.4582 6.39151 10.4582 6.62583 10.2239C6.86014 9.98956 6.86014 9.60966 6.62583 9.37534L5.25009 7.99961L6.62583 6.62387ZM10.2258 5.77534C9.99151 5.54103 9.61161 5.54103 9.3773 5.77534C9.14298 6.00966 9.14298 6.38956 9.3773 6.62387L10.753 7.99961L9.3773 9.37534C9.14298 9.60966 9.14298 9.98956 9.3773 10.2239C9.61161 10.4582 9.99151 10.4582 10.2258 10.2239L12.0258 8.42387C12.2601 8.18956 12.2601 7.80966 12.0258 7.57535L10.2258 5.77534Z" fill="#978CFB"/>
</svg>
