<svg width="16" height="16" viewBox="0 0 16 16" fill="none" xmlns="http://www.w3.org/2000/svg">
<path fill-rule="evenodd" clip-rule="evenodd" d="M6.52705 1.74059C6.23325 1.61902 5.90321 1.61902 5.60941 1.74059L2.34274 3.09232C1.89412 3.27795 1.60156 3.71563 1.60156 4.20114V12.9025C1.60156 13.7575 2.47032 14.3382 3.26038 14.0113L6.06823 12.8494L9.47607 14.2596C9.76987 14.3811 10.0999 14.3811 10.3937 14.2596L13.6604 12.9078C14.109 12.7222 14.4016 12.2845 14.4016 11.799V3.09769C14.4016 2.24266 13.5328 1.66195 12.7427 1.98887L9.9349 3.15074L6.52705 1.74059ZM6.06562 4.0001C6.397 4.0001 6.66562 4.26873 6.66562 4.6001V9.8001C6.66562 10.1315 6.397 10.4001 6.06562 10.4001C5.73425 10.4001 5.46562 10.1315 5.46562 9.8001V4.6001C5.46562 4.26873 5.73425 4.0001 6.06562 4.0001ZM10.5375 6.2001C10.5375 5.86873 10.2689 5.6001 9.9375 5.6001C9.60613 5.6001 9.3375 5.86873 9.3375 6.2001V11.4001C9.3375 11.7315 9.60613 12.0001 9.9375 12.0001C10.2689 12.0001 10.5375 11.7315 10.5375 11.4001V6.2001Z" fill="#978CFB"/>
</svg>
