<svg width="212" height="91" viewBox="0 0 212 91" fill="none" xmlns="http://www.w3.org/2000/svg">
<g opacity="0.8">
<path d="M110.279 12.9468C110.368 12.7625 110.349 12.5377 110.257 12.3551C110.11 12.0658 109.812 11.896 109.52 11.7766C108.918 11.5291 108.264 11.4377 107.614 11.4204C106.359 11.3807 105.108 11.5891 103.934 12.0336C102.676 12.5171 101.602 13.2208 100.567 14.0538C100.093 14.4332 99.2904 14.9142 98.7149 14.4671C98.1269 14.0109 98.5256 13.277 98.8784 12.7811C99.2933 12.1985 99.8938 11.7406 100.51 11.3857C101.418 10.8625 102.444 10.5737 103.459 10.3377C104.526 10.0886 105.625 10.0187 106.711 9.88815C107.657 9.77493 108.651 9.76419 109.466 9.20014C110.679 8.35965 110.085 7.09891 108.977 6.55304C107.652 5.90015 106.185 5.69768 104.722 5.83817C104.203 5.88916 103.687 5.9632 103.175 6.06007C102.549 6.17743 100.746 6.40139 101.123 5.2076C101.21 4.92826 101.431 4.71008 101.67 4.54107C102.939 3.64355 104.504 3.41174 106.033 3.39108C107.35 3.37253 108.66 3.57109 109.912 3.97868C110.965 4.32289 111.911 4.87454 112.757 5.58363C113.458 6.17205 114.01 6.9204 114.765 7.44725C115.147 7.7142 115.753 7.76585 116.105 7.41461C116.517 7.00511 116.365 6.35263 116.067 5.93032C115.67 5.36586 115.041 4.96793 114.464 4.60677C112.607 3.44521 110.425 2.83405 108.258 2.58653C107.173 2.46028 106.077 2.43717 104.988 2.51753C103.47 2.63282 101.959 2.91629 100.521 3.41752C99.5114 3.76917 98.4998 4.20677 97.6151 4.81297C96.9514 5.26627 96.2053 5.93197 96.038 6.75139C95.8374 7.72866 96.5432 8.58527 97.5144 8.71088C98.0949 8.78609 98.6824 8.63981 99.2317 8.43775C100.428 7.99932 101.594 7.47535 102.817 7.10841C103.46 6.91585 104.124 6.72164 104.8 6.73486C105.266 6.74395 106.04 6.84478 106.296 7.30097C106.995 8.54684 103.838 9.10964 103.194 9.3146C102.181 9.63691 101.162 9.95261 100.21 10.4307C98.2463 11.4175 96.4957 12.8902 95.6743 14.9637C95.3485 15.7844 95.383 16.8055 95.8782 17.5546C96.4158 18.3674 97.5244 18.6827 98.4182 18.2778C99.0316 17.9989 99.2475 17.596 99.3491 17.4179C99.8343 16.5716 100.32 15.2774 102.019 14.0914C102.97 13.4268 104.066 12.9965 105.217 12.8359C106.368 12.6753 107.542 12.7891 108.64 13.1679C109.047 13.308 109.514 13.4501 109.932 13.2671C110.08 13.2059 110.203 13.096 110.278 12.9555L110.279 12.9468ZM98.0437 20.0807C97.8385 20.0964 97.6517 20.2253 97.5389 20.396C97.3596 20.667 97.3608 21.0088 97.4016 21.3187C97.4873 21.9592 97.7354 22.5683 98.0441 23.1364C98.6375 24.2358 99.4448 25.2072 100.419 25.9943C101.471 26.8343 102.622 27.4058 103.867 27.8806C104.434 28.0967 105.255 28.5459 105.151 29.2657C105.047 29.9992 104.208 30.0232 103.599 29.9682C102.884 29.9029 102.185 29.6153 101.567 29.2624C100.655 28.7422 99.8925 28.0054 99.178 27.25C98.4274 26.4579 97.8169 25.5476 97.1607 24.6798C96.5889 23.922 96.0825 23.0732 95.1837 22.655C93.8438 22.0319 93.0411 23.1732 93.1189 24.3988C93.2121 25.8641 93.7689 27.2294 94.6232 28.4153C94.9261 28.8356 95.2503 29.2418 95.5898 29.6335C96.0047 30.112 97.102 31.5525 95.8707 31.8261C95.5836 31.8901 95.2832 31.8104 95.016 31.6893C93.5983 31.0455 92.6142 29.8153 91.8314 28.5116C91.1568 27.3884 90.6746 26.1619 90.4046 24.8819C90.1782 23.8054 90.1865 22.7154 90.3812 21.6323C90.5444 20.7348 90.921 19.8864 91.0029 18.9753C91.0433 18.5125 90.7861 17.9662 90.3051 17.8389C89.7433 17.6889 89.2494 18.146 89.0293 18.6133C88.7355 19.2369 88.703 19.9769 88.6764 20.6538C88.5919 22.8315 89.1495 25.0133 90.018 27.0013C90.4506 27.9978 90.978 28.951 91.593 29.848C92.4519 31.0959 93.4547 32.2525 94.6107 33.2384C95.4221 33.931 96.3097 34.5827 97.2793 35.0413C98.0062 35.3851 98.96 35.6942 99.7585 35.4281C100.71 35.1091 101.105 34.0769 100.729 33.1789C100.504 32.6418 100.083 32.2099 99.6324 31.8385C98.6504 31.0298 97.6113 30.2876 96.6797 29.4199C96.1915 28.9649 95.6893 28.4893 95.3626 27.9013C95.1375 27.4963 94.8387 26.7798 95.1088 26.3319C95.8453 25.1075 97.9147 27.541 98.4161 27.993C99.2026 28.7025 99.9891 29.4203 100.881 29.9996C102.725 31.1955 104.884 31.9649 107.103 31.6343C107.982 31.5037 108.855 30.9637 109.261 30.1633C109.701 29.2955 109.422 28.1831 108.621 27.6178C108.072 27.2294 107.612 27.2459 107.406 27.2472C106.426 27.2525 105.054 27.4823 103.17 26.6145C102.115 26.129 101.192 25.4013 100.477 24.4916C99.7619 23.5819 99.2748 22.5163 99.0561 21.3827C98.9758 20.9621 98.8647 20.4893 98.4964 20.2212C98.3689 20.1245 98.2116 20.0745 98.0512 20.0798L98.0437 20.0807ZM110.383 27.0372C110.499 27.2054 110.704 27.3017 110.911 27.3137C111.236 27.3319 111.534 27.1604 111.784 26.9699C112.299 26.5765 112.707 26.0587 113.047 25.5087C113.709 24.4487 114.153 23.2685 114.352 22.0368C114.559 20.7129 114.483 19.4377 114.274 18.1303C114.179 17.5323 114.161 16.6038 114.839 16.3311C115.531 16.0522 115.972 16.7633 116.228 17.315C116.529 17.9629 116.629 18.7084 116.629 19.4158C116.629 20.4588 116.37 21.4835 116.068 22.4757C115.751 23.5178 115.264 24.498 114.834 25.4963C114.46 26.3662 113.972 27.2269 114.057 28.2071C114.183 29.6711 115.579 29.7909 116.61 29.1108C117.841 28.298 118.752 27.1381 119.36 25.8091C119.576 25.3381 119.767 24.8567 119.94 24.3687C120.151 23.7703 120.857 22.1083 121.71 23.0298C121.911 23.2447 121.991 23.5435 122.018 23.8335C122.165 25.3744 121.585 26.8356 120.839 28.1608C120.197 29.3027 119.368 30.3308 118.387 31.2033C117.56 31.9368 116.606 32.4736 115.564 32.848C114.701 33.1562 113.772 33.2566 112.936 33.6413C112.512 33.8364 112.165 34.3331 112.293 34.8099C112.445 35.3678 113.089 35.5649 113.607 35.5203C114.298 35.4608 114.959 35.119 115.563 34.8025C117.504 33.7864 119.128 32.2157 120.428 30.4752C121.08 29.605 121.648 28.6751 122.123 27.698C122.782 26.3352 123.288 24.8939 123.571 23.4071C123.77 22.3625 123.893 21.274 123.809 20.2108C123.746 19.4133 123.538 18.4389 122.907 17.8856C122.155 17.2253 121.056 17.403 120.46 18.1749C120.104 18.6369 119.938 19.2154 119.84 19.7885C119.625 21.0377 119.497 22.3001 119.206 23.5356C119.054 24.1827 118.89 24.8513 118.541 25.4273C118.3 25.8236 117.825 26.4381 117.299 26.4306C115.862 26.4087 116.951 23.4125 117.094 22.7554C117.319 21.7245 117.553 20.6893 117.611 19.6315C117.732 17.4497 117.324 15.2071 115.925 13.4629C115.373 12.7728 114.465 12.2919 113.564 12.3431C112.587 12.3989 111.757 13.1952 111.664 14.1654C111.6 14.8328 111.844 15.2199 111.948 15.3964C112.444 16.2369 113.329 17.3013 113.514 19.3559C113.619 20.5058 113.447 21.6642 113.012 22.7352C112.578 23.8061 111.892 24.7588 111.013 25.5145C110.687 25.7934 110.33 26.1261 110.28 26.5769C110.259 26.7377 110.295 26.9008 110.384 27.0372H110.383Z" fill="#F9F9FB"/>
<path d="M17.9464 61.12L13.7704 56.352L13.7704 64H11.1784L11.1784 52.592H13.6904L18.1224 57.776L22.7624 52.592H25.0984V64H22.5064V56.304L18.1384 61.12H17.9464ZM33.9188 64.32C33.2308 64.32 32.5908 64.272 31.9988 64.176C31.3908 64.08 30.8468 63.92 30.3348 63.696C29.3108 63.28 28.5108 62.64 27.9508 61.776C27.3748 60.912 27.1028 59.792 27.1028 58.416V58.336C27.1028 57.696 27.1668 57.104 27.3268 56.56C27.4708 56.016 27.6948 55.52 27.9828 55.072C28.5588 54.176 29.3748 53.504 30.3988 53.024C31.4228 52.544 32.5908 52.304 33.9028 52.304C34.5588 52.304 35.1828 52.368 35.7588 52.48C36.3348 52.608 36.8948 52.784 37.4228 53.008C38.4468 53.472 39.2628 54.144 39.8548 55.04C40.4468 55.936 40.7508 57.04 40.7508 58.32V58.432C40.7508 59.104 40.6708 59.712 40.5268 60.256C40.3828 60.8 40.1588 61.296 39.8708 61.728C39.2948 62.592 38.4788 63.248 37.4548 63.68C36.4308 64.112 35.2468 64.32 33.9188 64.32ZM33.9028 61.888C34.3188 61.888 34.7188 61.872 35.0868 61.808C35.4388 61.76 35.7748 61.68 36.0788 61.552C36.6868 61.344 37.1508 60.976 37.4868 60.464C37.8068 59.952 37.9828 59.28 37.9828 58.416V58.4C37.9828 57.952 37.9348 57.552 37.8548 57.2C37.7748 56.848 37.6468 56.528 37.4868 56.24C37.1508 55.712 36.6868 55.328 36.0788 55.088C35.4708 54.848 34.7508 54.72 33.9188 54.72C32.6388 54.72 31.6468 55.008 30.9428 55.584C30.2228 56.16 29.8708 57.088 29.8708 58.384V58.4C29.8708 59.6 30.2228 60.48 30.9428 61.04C31.6468 61.616 32.6388 61.888 33.9028 61.888ZM48.7246 54.864L45.4286 54.864V58.032L48.6286 58.032C48.9166 58.032 49.2046 58.032 49.4606 58.016C49.7166 58 49.9726 57.984 50.1966 57.952C50.6446 57.888 51.0126 57.76 51.2686 57.552C51.5246 57.344 51.6526 57.008 51.6526 56.56V56.352C51.6526 56.144 51.6206 55.952 51.5726 55.792C51.5086 55.632 51.4446 55.504 51.3486 55.392C51.1246 55.184 50.8046 55.04 50.3726 54.976C49.9406 54.912 49.3966 54.864 48.7246 54.864ZM48.6446 60.32L45.4286 60.32V64H42.7566V52.592H48.7566C50.7566 52.592 52.1966 52.88 53.0926 53.456C53.9726 54.032 54.4206 54.944 54.4206 56.192C54.4206 57.056 54.2126 57.712 53.8126 58.192C53.3966 58.672 52.7726 59.008 51.9246 59.216C52.7566 59.408 53.3646 59.744 53.7486 60.24C54.1326 60.752 54.3406 61.504 54.3406 62.512V63.264C54.3406 63.408 54.3566 63.552 54.3886 63.68C54.4206 63.824 54.4846 63.936 54.6126 64H51.8126C51.6686 63.952 51.5726 63.856 51.5406 63.696C51.5086 63.536 51.4926 63.392 51.4926 63.232V62.528C51.4926 62.24 51.4606 61.984 51.4286 61.76C51.3806 61.536 51.3166 61.344 51.2366 61.184C51.0446 60.864 50.7566 60.64 50.3406 60.512C49.9246 60.384 49.3646 60.32 48.6446 60.32ZM67.7073 61.664V64H56.4753V52.592H67.3713V54.848H59.0513V57.152H66.0913V59.408H59.0513V61.664H67.7073ZM82.9752 64V59.584H76.3352V64H73.6472V52.592H76.3352V57.024H82.9752V52.592H85.6312V64H82.9752ZM96.2421 59.344L94.1141 55.008L92.0501 59.344H96.2421ZM98.5461 64L97.3301 61.52H91.0101L89.8261 64H86.9301L92.7061 52.592H95.5381L101.41 64H98.5461ZM105.398 56.176L105.286 56.016V64H102.694V52.592H105.382L112.31 60.336L112.406 60.48V52.592H114.982V64H112.406L105.398 56.176ZM117.522 64V52.592H122.834C125.17 52.592 126.93 53.056 128.13 53.952C129.314 54.864 129.922 56.32 129.922 58.32V58.4C129.922 60.384 129.33 61.808 128.146 62.688C126.962 63.568 125.234 64 122.994 64H117.522ZM122.722 54.912H120.178V61.664H122.85C123.378 61.664 123.858 61.648 124.274 61.584C124.69 61.536 125.074 61.456 125.394 61.344C126.018 61.136 126.466 60.784 126.754 60.304C127.042 59.824 127.186 59.168 127.186 58.352V58.304C127.186 57.888 127.138 57.52 127.074 57.2C126.994 56.88 126.882 56.576 126.754 56.32C126.45 55.84 125.97 55.472 125.33 55.248C124.674 55.024 123.81 54.912 122.722 54.912ZM138.36 64H131.928V52.592H138.248C140.136 52.592 141.544 52.816 142.472 53.232C143.4 53.664 143.88 54.448 143.88 55.584V55.68C143.88 56.416 143.688 56.976 143.304 57.344C142.92 57.712 142.328 57.968 141.528 58.112C142.44 58.24 143.112 58.496 143.528 58.864C143.944 59.248 144.168 59.824 144.168 60.624V60.688C144.168 61.104 144.104 61.488 143.992 61.808C143.88 62.144 143.72 62.432 143.496 62.656C143.048 63.136 142.392 63.488 141.528 63.696C140.664 63.904 139.608 64 138.36 64ZM138.408 54.704L134.536 54.704V57.104H138.504C138.776 57.104 139.032 57.104 139.272 57.088C139.496 57.088 139.72 57.072 139.944 57.04C140.344 56.992 140.664 56.88 140.888 56.72C141.112 56.56 141.24 56.304 141.24 55.952V55.888C141.24 55.712 141.208 55.552 141.16 55.424C141.112 55.296 141.048 55.184 140.952 55.088C140.76 54.928 140.456 54.832 140.04 54.784C139.624 54.736 139.08 54.704 138.408 54.704ZM138.216 59.184H134.536V61.76H138.024C138.488 61.76 138.904 61.76 139.256 61.744C139.608 61.728 139.896 61.696 140.152 61.648C140.632 61.584 140.968 61.472 141.16 61.28C141.336 61.104 141.432 60.848 141.432 60.512V60.448C141.432 60.272 141.4 60.112 141.352 59.968C141.304 59.84 141.24 59.728 141.144 59.632C140.952 59.456 140.632 59.344 140.168 59.28C139.688 59.216 139.048 59.184 138.216 59.184ZM152.388 64.32C151.7 64.32 151.06 64.272 150.468 64.176C149.86 64.08 149.316 63.92 148.804 63.696C147.78 63.28 146.98 62.64 146.42 61.776C145.844 60.912 145.572 59.792 145.572 58.416V58.336C145.572 57.696 145.636 57.104 145.796 56.56C145.94 56.016 146.164 55.52 146.452 55.072C147.028 54.176 147.844 53.504 148.868 53.024C149.892 52.544 151.06 52.304 152.372 52.304C153.028 52.304 153.652 52.368 154.228 52.48C154.804 52.608 155.364 52.784 155.892 53.008C156.916 53.472 157.732 54.144 158.324 55.04C158.916 55.936 159.22 57.04 159.22 58.32V58.432C159.22 59.104 159.14 59.712 158.996 60.256C158.852 60.8 158.628 61.296 158.34 61.728C157.764 62.592 156.948 63.248 155.924 63.68C154.9 64.112 153.716 64.32 152.388 64.32ZM152.372 61.888C152.788 61.888 153.188 61.872 153.556 61.808C153.908 61.76 154.244 61.68 154.548 61.552C155.156 61.344 155.62 60.976 155.956 60.464C156.276 59.952 156.452 59.28 156.452 58.416V58.4C156.452 57.952 156.404 57.552 156.324 57.2C156.244 56.848 156.116 56.528 155.956 56.24C155.62 55.712 155.156 55.328 154.548 55.088C153.94 54.848 153.22 54.72 152.388 54.72C151.108 54.72 150.116 55.008 149.412 55.584C148.692 56.16 148.34 57.088 148.34 58.384V58.4C148.34 59.6 148.692 60.48 149.412 61.04C150.116 61.616 151.108 61.888 152.372 61.888ZM167.747 64.32C167.059 64.32 166.419 64.272 165.827 64.176C165.219 64.08 164.675 63.92 164.163 63.696C163.139 63.28 162.339 62.64 161.779 61.776C161.203 60.912 160.931 59.792 160.931 58.416V58.336C160.931 57.696 160.995 57.104 161.155 56.56C161.299 56.016 161.523 55.52 161.811 55.072C162.387 54.176 163.203 53.504 164.227 53.024C165.251 52.544 166.419 52.304 167.731 52.304C168.387 52.304 169.011 52.368 169.587 52.48C170.163 52.608 170.723 52.784 171.251 53.008C172.275 53.472 173.091 54.144 173.683 55.04C174.275 55.936 174.579 57.04 174.579 58.32V58.432C174.579 59.104 174.499 59.712 174.355 60.256C174.211 60.8 173.987 61.296 173.699 61.728C173.123 62.592 172.307 63.248 171.283 63.68C170.259 64.112 169.075 64.32 167.747 64.32ZM167.731 61.888C168.147 61.888 168.547 61.872 168.915 61.808C169.267 61.76 169.603 61.68 169.907 61.552C170.515 61.344 170.979 60.976 171.315 60.464C171.635 59.952 171.811 59.28 171.811 58.416V58.4C171.811 57.952 171.763 57.552 171.683 57.2C171.603 56.848 171.475 56.528 171.315 56.24C170.979 55.712 170.515 55.328 169.907 55.088C169.299 54.848 168.579 54.72 167.747 54.72C166.467 54.72 165.475 55.008 164.771 55.584C164.051 56.16 163.699 57.088 163.699 58.384V58.4C163.699 59.6 164.051 60.48 164.771 61.04C165.475 61.616 166.467 61.888 167.731 61.888ZM186.153 64L182.217 58.352L179.273 60.832V64H176.585V52.592H179.273V58.08L185.529 52.592H189.145L184.169 56.896L189.353 64H186.153ZM195.752 64.336C195 64.336 194.312 64.304 193.704 64.224C193.096 64.16 192.552 64.032 192.072 63.872C191.112 63.568 190.392 63.088 189.88 62.448C189.368 61.808 189 60.976 188.808 59.952L191.72 59.952C191.912 60.752 192.344 61.28 193.048 61.568C193.752 61.856 194.664 62 195.816 62C196.856 62 197.624 61.904 198.12 61.68C198.6 61.472 198.856 61.136 198.856 60.656C198.856 60.48 198.824 60.32 198.76 60.192C198.696 60.064 198.6 59.952 198.488 59.872C198.232 59.712 197.784 59.584 197.16 59.52C196.52 59.456 195.624 59.392 194.472 59.328C193.896 59.296 193.368 59.248 192.888 59.168C192.408 59.104 191.976 59.008 191.592 58.88C190.824 58.656 190.264 58.32 189.896 57.84C189.528 57.36 189.352 56.72 189.352 55.92C189.352 54.832 189.816 53.952 190.76 53.296C191.688 52.64 193.096 52.304 194.952 52.304C196.92 52.304 198.44 52.624 199.528 53.232C200.616 53.84 201.288 54.864 201.56 56.288H198.696C198.536 55.568 198.12 55.104 197.48 54.88C196.84 54.656 195.976 54.544 194.904 54.544C193.832 54.544 193.096 54.672 192.68 54.896C192.264 55.12 192.072 55.44 192.072 55.84C192.072 56.048 192.104 56.224 192.184 56.352C192.264 56.496 192.44 56.608 192.696 56.704C192.936 56.8 193.304 56.88 193.784 56.944C194.264 57.008 194.92 57.056 195.72 57.088C196.392 57.12 197.016 57.184 197.576 57.248C198.136 57.328 198.632 57.424 199.064 57.536C199.928 57.776 200.552 58.128 200.952 58.592C201.352 59.072 201.56 59.696 201.56 60.464C201.56 61.68 201.08 62.64 200.152 63.312C199.208 64 197.736 64.336 195.752 64.336ZM36.4934 80.152C36.3974 80.696 36.2694 81.192 36.0934 81.64C35.9174 82.104 35.6934 82.52 35.4214 82.904C34.8774 83.672 34.1094 84.28 33.1494 84.696C32.1734 85.112 30.9574 85.32 29.5174 85.32C28.8454 85.32 28.2054 85.272 27.6294 85.176C27.0374 85.08 26.4934 84.92 25.9974 84.712C24.9894 84.312 24.2054 83.672 23.6614 82.808C23.1014 81.944 22.8294 80.808 22.8294 79.416V79.336C22.8294 78.696 22.8934 78.104 23.0534 77.56C23.1974 77.016 23.4214 76.52 23.7254 76.072C24.3174 75.176 25.1334 74.504 26.1894 74.024C27.2294 73.544 28.4294 73.304 29.7894 73.304C30.3654 73.304 30.9254 73.352 31.4374 73.432C31.9494 73.528 32.4454 73.656 32.9094 73.816C33.8374 74.168 34.5894 74.712 35.1974 75.416C35.8054 76.12 36.2054 77.016 36.4294 78.104H33.5334C33.3894 77.352 33.0054 76.76 32.3974 76.344C31.7734 75.928 30.9094 75.72 29.8054 75.72C28.4934 75.72 27.4534 76.008 26.7174 76.568C25.9654 77.128 25.5974 78.056 25.5974 79.352V79.384C25.5974 80.6 25.9494 81.496 26.6694 82.056C27.3734 82.616 28.3814 82.888 29.6934 82.888C30.9574 82.888 31.8854 82.664 32.4774 82.184C33.0694 81.704 33.4374 81.032 33.5654 80.152H36.4934ZM44.786 85.32C44.098 85.32 43.458 85.272 42.866 85.176C42.258 85.08 41.714 84.92 41.202 84.696C40.178 84.28 39.378 83.64 38.818 82.776C38.242 81.912 37.97 80.792 37.97 79.416V79.336C37.97 78.696 38.034 78.104 38.194 77.56C38.338 77.016 38.562 76.52 38.85 76.072C39.426 75.176 40.242 74.504 41.266 74.024C42.29 73.544 43.458 73.304 44.77 73.304C45.426 73.304 46.05 73.368 46.626 73.48C47.202 73.608 47.762 73.784 48.29 74.008C49.314 74.472 50.13 75.144 50.722 76.04C51.314 76.936 51.618 78.04 51.618 79.32V79.432C51.618 80.104 51.538 80.712 51.394 81.256C51.25 81.8 51.026 82.296 50.738 82.728C50.162 83.592 49.346 84.248 48.322 84.68C47.298 85.112 46.114 85.32 44.786 85.32ZM44.77 82.888C45.186 82.888 45.586 82.872 45.954 82.808C46.306 82.76 46.642 82.68 46.946 82.552C47.554 82.344 48.018 81.976 48.354 81.464C48.674 80.952 48.85 80.28 48.85 79.416V79.4C48.85 78.952 48.802 78.552 48.722 78.2C48.642 77.848 48.514 77.528 48.354 77.24C48.018 76.712 47.554 76.328 46.946 76.088C46.338 75.848 45.618 75.72 44.786 75.72C43.506 75.72 42.514 76.008 41.81 76.584C41.09 77.16 40.738 78.088 40.738 79.384V79.4C40.738 80.6 41.09 81.48 41.81 82.04C42.514 82.616 43.506 82.888 44.77 82.888ZM60.3918 82.12L56.2158 77.352V85H53.6238V73.592H56.1358L60.5677 78.776L65.2078 73.592H67.5438V85H64.9518V77.304L60.5838 82.12H60.3918ZM78.3481 85H69.5961V82.504H72.7001V75.976H69.5961V73.592H78.3481V75.976H75.2441V82.504H78.3481V85ZM83.0934 77.176L82.9814 77.016V85H80.3894V73.592H83.0774L90.0054 81.336L90.1014 81.48V73.592H92.6774V85H90.1014L83.0934 77.176ZM106.033 85L105.873 81.88C105.697 83.016 105.201 83.88 104.369 84.456C103.537 85.032 102.417 85.32 100.993 85.32C100.369 85.32 99.7771 85.272 99.2331 85.176C98.6891 85.08 98.1771 84.92 97.6971 84.712C96.7371 84.296 96.0011 83.656 95.4731 82.792C94.9291 81.928 94.6731 80.824 94.6731 79.448V79.368C94.6731 78.728 94.7371 78.136 94.8971 77.592C95.0411 77.048 95.2651 76.552 95.5531 76.104C96.1451 75.208 96.9611 74.504 98.0011 74.024C99.0251 73.544 100.209 73.304 101.537 73.304C103.377 73.304 104.881 73.656 106.049 74.328C107.201 75.016 107.921 76.104 108.177 77.592L105.105 77.592C104.977 76.984 104.625 76.52 104.065 76.2C103.505 75.88 102.689 75.72 101.617 75.72C100.289 75.72 99.2651 76.024 98.5291 76.6C97.7931 77.176 97.4411 78.12 97.4411 79.416V79.432C97.4411 80.632 97.7771 81.528 98.4491 82.12C99.1211 82.728 100.129 83.016 101.473 83.016C102.705 83.016 103.665 82.856 104.353 82.52C105.041 82.2 105.473 81.704 105.633 81.064H101.169V78.84L108.257 78.84V85H106.033ZM120.447 85.336C119.695 85.336 119.007 85.304 118.399 85.224C117.791 85.16 117.247 85.032 116.767 84.872C115.807 84.568 115.087 84.088 114.575 83.448C114.063 82.808 113.695 81.976 113.503 80.952H116.415C116.607 81.752 117.039 82.28 117.743 82.568C118.447 82.856 119.359 83 120.511 83C121.551 83 122.319 82.904 122.815 82.68C123.295 82.472 123.551 82.136 123.551 81.656C123.551 81.48 123.519 81.32 123.455 81.192C123.391 81.064 123.295 80.952 123.183 80.872C122.927 80.712 122.479 80.584 121.855 80.52C121.215 80.456 120.319 80.392 119.167 80.328C118.591 80.296 118.063 80.248 117.583 80.168C117.103 80.104 116.671 80.008 116.287 79.88C115.519 79.656 114.959 79.32 114.591 78.84C114.223 78.36 114.047 77.72 114.047 76.92C114.047 75.832 114.511 74.952 115.455 74.296C116.383 73.64 117.791 73.304 119.647 73.304C121.615 73.304 123.135 73.624 124.223 74.232C125.311 74.84 125.983 75.864 126.255 77.288H123.391C123.231 76.568 122.815 76.104 122.175 75.88C121.535 75.656 120.671 75.544 119.599 75.544C118.527 75.544 117.791 75.672 117.375 75.896C116.959 76.12 116.767 76.44 116.767 76.84C116.767 77.048 116.799 77.224 116.879 77.352C116.959 77.496 117.135 77.608 117.391 77.704C117.631 77.8 117.999 77.88 118.479 77.944C118.959 78.008 119.615 78.056 120.415 78.088C121.087 78.12 121.711 78.184 122.271 78.248C122.831 78.328 123.327 78.424 123.759 78.536C124.623 78.776 125.247 79.128 125.647 79.592C126.047 80.072 126.255 80.696 126.255 81.464C126.255 82.68 125.775 83.64 124.847 84.312C123.903 85 122.431 85.336 120.447 85.336ZM134.505 85.32C133.817 85.32 133.177 85.272 132.585 85.176C131.977 85.08 131.433 84.92 130.921 84.696C129.897 84.28 129.097 83.64 128.537 82.776C127.961 81.912 127.689 80.792 127.689 79.416V79.336C127.689 78.696 127.753 78.104 127.913 77.56C128.057 77.016 128.281 76.52 128.569 76.072C129.145 75.176 129.961 74.504 130.985 74.024C132.009 73.544 133.177 73.304 134.489 73.304C135.145 73.304 135.769 73.368 136.345 73.48C136.921 73.608 137.481 73.784 138.009 74.008C139.033 74.472 139.849 75.144 140.441 76.04C141.033 76.936 141.337 78.04 141.337 79.32V79.432C141.337 80.104 141.257 80.712 141.113 81.256C140.969 81.8 140.745 82.296 140.457 82.728C139.881 83.592 139.065 84.248 138.041 84.68C137.017 85.112 135.833 85.32 134.505 85.32ZM134.489 82.888C134.905 82.888 135.305 82.872 135.673 82.808C136.025 82.76 136.361 82.68 136.665 82.552C137.273 82.344 137.737 81.976 138.073 81.464C138.393 80.952 138.569 80.28 138.569 79.416V79.4C138.569 78.952 138.521 78.552 138.441 78.2C138.361 77.848 138.233 77.528 138.073 77.24C137.737 76.712 137.273 76.328 136.665 76.088C136.057 75.848 135.337 75.72 134.505 75.72C133.225 75.72 132.233 76.008 131.529 76.584C130.809 77.16 130.457 78.088 130.457 79.384V79.4C130.457 80.6 130.809 81.48 131.529 82.04C132.233 82.616 133.225 82.888 134.489 82.888ZM149.864 85.32C149.176 85.32 148.536 85.272 147.944 85.176C147.336 85.08 146.792 84.92 146.28 84.696C145.256 84.28 144.456 83.64 143.896 82.776C143.32 81.912 143.048 80.792 143.048 79.416V79.336C143.048 78.696 143.112 78.104 143.272 77.56C143.416 77.016 143.64 76.52 143.928 76.072C144.504 75.176 145.32 74.504 146.344 74.024C147.368 73.544 148.536 73.304 149.848 73.304C150.504 73.304 151.128 73.368 151.704 73.48C152.28 73.608 152.84 73.784 153.368 74.008C154.392 74.472 155.208 75.144 155.8 76.04C156.392 76.936 156.696 78.04 156.696 79.32V79.432C156.696 80.104 156.616 80.712 156.472 81.256C156.328 81.8 156.104 82.296 155.816 82.728C155.24 83.592 154.424 84.248 153.4 84.68C152.376 85.112 151.192 85.32 149.864 85.32ZM149.848 82.888C150.264 82.888 150.664 82.872 151.032 82.808C151.384 82.76 151.72 82.68 152.024 82.552C152.632 82.344 153.096 81.976 153.432 81.464C153.752 80.952 153.928 80.28 153.928 79.416V79.4C153.928 78.952 153.88 78.552 153.8 78.2C153.72 77.848 153.592 77.528 153.432 77.24C153.096 76.712 152.632 76.328 152.024 76.088C151.416 75.848 150.696 75.72 149.864 75.72C148.584 75.72 147.592 76.008 146.888 76.584C146.168 77.16 145.816 78.088 145.816 79.384V79.4C145.816 80.6 146.168 81.48 146.888 82.04C147.592 82.616 148.584 82.888 149.848 82.888ZM161.406 77.176L161.294 77.016V85H158.702V73.592H161.39L168.318 81.336L168.414 81.48V73.592H170.99V85H168.414L161.406 77.176ZM175.178 85.24C174.522 85.24 174.058 85.128 173.77 84.872C173.482 84.632 173.354 84.2 173.354 83.576C173.354 82.968 173.498 82.552 173.818 82.296C174.138 82.04 174.586 81.912 175.178 81.912C175.754 81.912 176.202 82.04 176.522 82.296C176.826 82.552 176.986 82.968 176.986 83.576C176.986 84.168 176.826 84.6 176.522 84.856C176.218 85.112 175.77 85.24 175.178 85.24ZM181.053 85.24C180.397 85.24 179.933 85.128 179.645 84.872C179.357 84.632 179.229 84.2 179.229 83.576C179.229 82.968 179.373 82.552 179.693 82.296C180.013 82.04 180.461 81.912 181.053 81.912C181.629 81.912 182.077 82.04 182.397 82.296C182.701 82.552 182.861 82.968 182.861 83.576C182.861 84.168 182.701 84.6 182.397 84.856C182.093 85.112 181.645 85.24 181.053 85.24ZM186.928 85.24C186.272 85.24 185.808 85.128 185.52 84.872C185.232 84.632 185.104 84.2 185.104 83.576C185.104 82.968 185.248 82.552 185.568 82.296C185.888 82.04 186.336 81.912 186.928 81.912C187.504 81.912 187.952 82.04 188.272 82.296C188.576 82.552 188.736 82.968 188.736 83.576C188.736 84.168 188.576 84.6 188.272 84.856C187.968 85.112 187.52 85.24 186.928 85.24Z" fill="#F9F9FB"/>
</g>
</svg>
