<svg xmlns="http://www.w3.org/2000/svg" width="186" height="125" viewBox="275 170 530 330"><path fill="#f9f9fb" stroke="#f9f9fb" d="m622.5 179 2.5 1v23.5l-3.5.5h-2l-7 1q-6.9-2.1-5.5-12.5l4.5-6.5q6.3-1.7 8 1zm-6.5 10-2 1-3 4 1 6q1 2 7 1 3-2 2-8zM350 180h4v8h2.5q1.3-2.2 6-1l2.5 1q2.6 3.2 2 10.5l-1 5 .5 1.5H363v-9.5l-3.5-5.5-5.5 2.5v10l-1 1 .5 1.5H349v-10.5l1-1zM516.5 180h7.5v3q-4.6-1.2-6 1.5v3.5h7v4h-6.5l-.5 1.5-1 1v9.5h-4v-11.5l-3.5-.5-1.5-4h5v-4.5zM689.5 180q5.9-1.7 4.5 2-4.7 1-4.5-2ZM663 181q5.6-2.2 4 3.5 1.9 3.3 8 1.5v4h-8v8.5l7 3-.5 2.5h-8l-2.5-3.5v-10l-1.5-1.5-2 1-1.5-2.5q1.2-2.5 5-1.5zM330 182q6.4-2.1 4 5h6.5l.5 1.5q2.3 1.3-.5 2.5H334v9.5q1.4 2.8 6 1.5l-1.5 4q-6.4.4-8.5-3.5v-10l-1.5-1.5q-5.7 1.6-3.5-4 3.8 1 5-1.5zM640.5 185q6.4-.4 8.5 3.5l1 2V204l-5.5-1q-1.4 2.6-6 2l-4.5-3.5q-1-5.5 2.5-6.5l8.5-2q2.1-5.2-2.5-4h-2l-4 3-2.5-1 3.5-5zm4.5 10-8 4 3 3 4-1 2-3zM537.5 186q10.3-2.2 12.5 3.5l1 9-4.5 5.5-6 1-7.5-5.5q-1.8-10.8 4.5-13.5Zm3.5 3-2 1-3 5q0 4 4 6l6-1q2-2 1-7-2-4-6-4ZM559.5 186l2.5.5v11l2.5 3.5q5.5 1 6.5-2.5v-12l4-.5v17.5l-3.5.5-2-1q-1.2 3.3-7 2l-2.5-1-2-8.5q2.5-1.5 1-7-2.2-1.2.5-2.5ZM583 186l6.5 1q1.5-2.5 7-1l3.5 3.5V204l-4-1.5v-11l-2.5-2.5q-4.7-.7-5.5 2.5l-1 2V204l-4-.5zM683 186h9.5l1.5 1.5V201h7v3h-18.5l-.5-3q6.3 1.5 8-2.5l-1-6q2.2-1.2-.5-2.5-7.8 2.4-5.5-4ZM712.5 186q8.7-1.7 11.5 2.5 2.8 2.7 2 9l-3.5 5.5-7 2-6.5-3.5-2-8 3.5-6.5zm3.5 3-2 1-3 5q0 4 4 6l6-1 1-3-1-5zM733 186l6.5 1q1.5-2.5 7-1l3.5 3.5V204l-4-.5v-12q-.7-3.2-5.5-2.5l-3.5 3.5V204l-4-.5zM304.5 187q9.5-2 11.5 3.5l1 6.5h-12.5l-1.5 1.5 2.5 3.5 4 1 4-3q4.5 2 1 4-2.3 2.7-8 2l-6.5-4.5-1-8 3.5-5.5zm2.5 3-4 3 1 2h8l1-2q-1-4-6-3ZM379.5 187q9-1.5 11.5 3.5l1 6.5h-12.5l-1.5 1.5 2.5 3.5 3 1 5-3q4.5 2 1 4-2.3 2.7-8 2l-6.5-4.5-1-9 3.5-4.5zm2.5 3-2 1-2 4h9l1-1-1-3zM401 187l6.5 1q1.5-2.5 7-1l2.5 3.5-3.5 1.5-5-2-2.5 1-1 2.5V205l-4-.5zM429.5 187q9-1.5 11.5 3.5l1 6.5h-12.5l-1.5 1.5 2.5 3.5 3 1 5-3q4.5 2 1 4-2.3 2.7-8 2l-7.5-5.5q-1.7-9.7 3.5-12.5zm2.5 3-4 3 1 2h8l1-2q-1-4-6-3ZM450 187l4 1.5v12l1.5 1.5q5.5 1 6.5-2.5v-12l4-.5v17.5l-1.5 1.5-5-1q-1.3 2.2-6 1l-3.5-3.5zM473 187l5.5 1 4-1 3 1 5-1 2.5 3.5v14l-2.5 1.5-1.5-1.5V191l-2.5-1-1.5 1.5v13l-1.5 1.5-2.5-1.5v-13l-1.5-1.5-2.5 1.5v13l-1.5 1.5-2.5-1.5zM626.5 229q14.5-1 20.5 6.5l3 5 1 11-6 29-6 40-3 11-1 11-2 6-3 23-3 11q-2.2 6.8-7.5 10.5l-6 3-11 1-9-3-4.5-4.5q-4.5-5.5-3-17l3-12 4-29 3-11v-5l2-6v-5l2-6v-6l2-6 6-37 5-12 5.5-5.5zm-.5 6-4 2-4 4-4 11-1 11-6 27-1 12-6 28-5 34-2 6v13l3 5 8 3h5l6-2q5-4 7-12l7-44 5-22 3-23 7-34q2-10-2-14-4-7-16-5ZM689.5 229q14.9-.9 20.5 7.5 4.2 5.8 3 17l-8 39v6l-9 45v6l-2 6-3 21-5 12-4.5 4.5-6 3-11 1-9-3-4.5-4.5q-4.2-5.8-3-17l4-17 2-17 2-6 1-11 3-11v-5l2-6 1-12 2-6v-6l5-25q2.4-12.1 10.5-18.5zm-1.5 6-4 2-7 11-9 55-2 6v5l-5 22-2 18-4 17v12l1 2q3 4 10 6h5l6-2 4-4 4-12 8-50 6-28v-6l7-33q2-10-1-15-4-8-17-6ZM741.5 230l1.5 2.5-4 18-2 17-3 11-3 23-5 17v4l2-1q20.6-47.4 45.5-90.5l5.5.5-30 58v18l1 1v26l1 1v23l1 1v25l1 1v9.5h-6.5l-.5-.5v-26l-1-1v-27l-1-1-.5-42.5-19.5 38.5-3 23-7 36.5h-6v-4.5l9-46 3-23 5-22 7-45 2-6 2-17.5zM309.5 231q7.3-2.6 5.5 3.5l-4 17-6 40-3 11v7.5h26.5l.5-1.5 9-46 3-24 2-7.5h6v5.5l-2 6-2 17-2 6v6l-6 28-1 12-2 6-1 11-3 11v5l-9 50.5h-6.5l-.5-1.5 14-76.5h-27.5l-.5 2.5-14 75.5h-6v-4.5l5-23v-6l9-45v-6l2-6 5-33 2-6 3-23 2-10zM382 231h7v14.5l-1 1v17l-1 1-1 32-1 1-1 30-1 1v16l-1 1v17l-1 1-1 31.5h-7v-6.5l1-1 1-24-1.5-1.5h-21l-2.5 2.5-8 30.5-7-.5zm3 8-4 11-4 22-24 84 15 1h2l2-1 2 1 2-2 5-83 3-17v-7l1-1zM423.5 231q6.3-2.2 4.5 3.5l1 1 1 25 1 1v11l1 1v13l1 1v12l1 1v12l1 1v14l1 1v10l1 1v25l1 1 .5 14.5 1.5-2.5 3-31 1-1 1-13 2-5 1-12 2-6v-6l6-27v-6l5-23v-5l2-10 1.5-1.5h4.5v6.5l-6 28v6l-4 17-1 11-2 6-1 11-2 6-2 17-2 6v5l-2 6-6 38.5h-6v-10.5l-1-1-2-40-1-1v-11l-1-1-1-29-1-1v-10l-1-1-1-44.5q-3.7-1.3-2 4.5l-1 1v8l-2 8-2 22L400 395h-6v-3.5l6-28 6-40 3-11 2-17 2-6v-6l5-22 4-29zM491.5 231h22q6.9 1.5 10.5 6.5 5.7 6.3 4 20l-11 57-5 34-3 11-1 11q-2.3 13.2-11.5 19.5l-13 5H462l6-38.5 5-22 4-29 6-28 3-23q3.7-9.3 4-22zm6.5 5-3 6v5l-4 16-2 18-7 34-12 74q14 2 23-4 6-4 8-13l11-61 1-11 8-40v-13l-2-4-6-6zM552 231h25.5q6.5 1.5 9.5 6.5l2 4v14l-6 29v5l-5 12-2.5 2.5-9.5 4 1.5 3 6.5 4.5q3.9 6.1 2 18l-3 11-5 33q-2.2 7.8-7.5 12.5l-5 3-8 2H524zm7 5-2 2v5l-5 22v6l-5 23-1 12q14 2 23-3l4-4 3-8 7-39q1-8-2-11l-7-5zm-15 76-13 77h17l7-3q5-4 7-11l3-23 4-17v-7l1-1-2-8q-3-5-9-7zM398.5 461q3.8-.7 4.5 1.5-1.7 10.8 1 17h-1l-6-17zM420.5 461l2.5 1.5-2 4-.5 10.5-.5-2q-2.7-1.1-2 1.5l-5 12.5-5-.5 3-4 6-18zM438.5 461q3.8-1.2 2.5 2.5L431 489l-5-.5 3-4 6-18zM477.5 461h2l4.5 4.5q5.1 12.4 14.5 20.5 3-.8 1.5 3h-3.5l-3.5-2-15.5-23q-2.2.8-1.5-1.5zM495 461h5v13.5h-1v-4zM506 461l4 .5V489l-4-.5zM536.5 461l2.5.5V489l-4-.5v-26zM547.5 461h6.5v2.5l.5 1.5-7-3zM562.5 461l2.5.5V489l-4-.5v-26zM590.5 461l2.5.5V489l-4-.5v-26zM625.5 461q4-.5 4.5 2.5l9 25.5h-4v-1.5l-8-21-3-4zM644.5 461l4.5 1 11 18.5 5.5 5.5q3-.8 1.5 3h-3.5l-7.5-7.5q-4.2-10.3-11.5-17.5-2.2.8-1.5-1.5zM662 461h5v12.5h-1q-.7-8-4-12.5ZM674 461l4 1.5-1 4 1 1v14l-1 2 1 2v2q.9 3-3.5 1.5-2.7-1.2-.5-2.5v-8l-1-1 1-2-1-2 1-3-1-2 1-1zM450.5 462l1.5.5q-6.4 4.6-5 17l6 9-1.5-.5-7.5-5.5q-3.2-3.3-2-11l6.5-8.5zM462.5 462q6.1 1.4 8.5 6.5l1 11-4.5 6.5-5 3 1.5-2.5q4.7-4.8 3-16zM520.5 462q6.1 1.4 8.5 6.5 2.5 3.5 1 11l-4.5 6.5-5 2v-1l3.5-2.5q3.3-4.7 2-14zM577.5 462q4.8.3 6.5 3.5l-1 4.5-4.5 2 .5-1.5 1-5-1-2.5zM688.5 462l8.5 6.5 1 10-4.5 7.5-5 2 1-2q2.3.8 1.5-1.5 4-3.5 3-12-1.6-7.4-5.5-10.5ZM352 467q7.6-1.1 11 1l1 5.5h-1q.8-4.7-2.5-5.5H354v8h6.5l1-1 3.5 4.5v3l-1 2.5q-3.7 2.2-12 1zm2 10v8l9-1q2-1 1-4l-2-3zM619.5 470l.5 2.5-1 1V489h-5.5l-.5-1.5zM369.5 472l3.5 8.5h-1zM379.5 473l.5 1.5-2.5 5.5-.5-1.5zM476.5 473q.8 9.7 5.5 15.5l-6 .5zM547.5 473q3.4-.9 1.5 4.5l-2.5-1.5-2.5-.5zM570.5 475q2.3-.7 1.5 1.5l11 12-4.5.5q-6.6-4.4-9.5-12.5zM643.5 475l5.5 13.5-6 .5zM376.5 481l.5 1.5-4.5 8.5.5-1.5 1-5-1-2 1.5.5q2.5.7 2-2ZM554.5 484l.5 5-8-.5zM608.5 484l.5 5-8-.5z" opacity=".973"/><path fill="#fdfefe" stroke="#fdfefe" d="m354.5 179 .5 7.5h-1zM620.5 179l.5 7-3-.5 2-.5zM688.5 179l.5 3h5v-2.5h1l-1.5 3.5q-4.5 1-5.5-1.5zM514.5 180l-1 2zM329.5 181q4.5-1 5.5 1.5l-.5 3.5-.5-4h-5v2.5h-1zM512.5 183l.5 3.5q-1.2 2.5-5 1.5-2.2 5.6 3.5 4l1.5 1.5v11h-1v-11l-3.5-.5q-2.7-1.4-1.5-6 6.8 2.4 5.5-4ZM524.5 183l-1 2q-5.9-1.7-4.5 2l6 .5-5.5.5-1.5-2.5zM539.5 184l5.5.5-5.5.5zM592.5 184l2.5.5-2.5.5zM613.5 184l3.5.5-3.5.5zM639.5 184l5.5.5-5.5.5zM714.5 184l4.5.5-4.5.5zM742.5 184l2.5.5-2.5.5zM562.5 185l1.5 1.5v12l1.5 1.5 2.5.5-2.5.5-2.5-2.5v-12zM574.5 185l1.5 1.5v18q-.7 2.3-4.5 1.5l-2.5-1.5 1.5-.5 4.5 1v-18.5zM582 185l2 .5-1 1-.5 18.5zM587.5 185l1 2zM597.5 185l2 3zM658.5 185l-.5 1.5-.5 2.5-.5-2.5zM675.5 185l.5 2.5h-1zM693.5 185l1.5 1.5V199l5 .5-6 .5v-13.5zM720.5 185l2.5 1.5-1.5-.5zM732.5 185l.5 3.5h-1zM737.5 185l2.5.5q-2.1 3.3-2.5-.5ZM747.5 185l2 3zM303.5 186l1.5.5-2.5 1.5zM362.5 186l3.5 2.5-2.5-1.5zM378.5 186l1.5.5-2.5 1.5zM386.5 186l2.5 1.5-1.5-.5zM401.5 186q3.8-.7 4.5 1.5l-1.5-.5q-4 .8-3-1ZM428.5 186l1.5.5-2.5 1.5zM436.5 186l2.5 1.5-1.5-.5zM449.5 186q4.5-1 5.5 1.5l-.5 12.5-.5-13h-4.5zM461.5 186q5.4-.6 5.5.5v19l-3.5 1.5v-1l2.5-.5V187h-4.5zM472.5 186l5 1 1.5-.5q-1.2 2.8-2.5.5-5 1-4-1ZM482.5 186l2.5 1.5-1.5-.5zM535.5 186l-1 2zM635.5 186l-1.5 2.5-.5 1.5-.5-1.5zM710.5 186l-2.5 3.5-.5 1.5-.5-1.5zM724.5 188l1 2zM300.5 189l-1 2zM440.5 189l1 2zM526.5 189l.5 2.5-2 1zM643.5 189l1.5 2.5-3.5 1.5v-1q3.3 1.1 2.5-1.5zM374.5 190l-.5 1.5-.5 1.5-.5-1.5zM493.5 190l.5 15.5q-.7 2.3-4.5 1.5l-1.5-1.5v-13l-1-1 2 1v13l4 .5zM539.5 190l-1.5 2.5-.5 1.5-.5-1.5zM617.5 190l2.5 1.5-1.5-.5zM650.5 190l.5 14.5h-1zM682.5 190q5.3-1.2 6.5 1.5v8l-2.5.5v-1l1.5-.5V191h-5.5zM714.5 190l-1.5 2.5-.5 1.5-.5-1.5zM739.5 190l-1 2zM305.5 191l-.5 1.5-.5 1.5-.5-1.5zM310.5 191l1 2zM324.5 191h4.5v9.5h-1V192h-3.5zM335.5 191l6.5.5-7 .5v7.5l1 1-2-1q-1.7-6.7 1.5-8.5ZM380.5 191l-1 2zM407.5 191l-1 2zM411.5 191l1 2zM417.5 191l-1 2-1.5-.5zM430.5 191l-.5 1.5-.5 1.5-.5-1.5zM435.5 191l1.5 2.5h-1zM479.5 191l1.5 1.5V206l4-.5v-13h1v13l-1.5 1.5q-3.7.8-4.5-1.5v-13zM606.5 191l.5 2.5h-1zM726.5 191l.5 7.5h-1zM392.5 192l.5 2.5h-1zM477.5 192l.5 13.5q-.7 2.3-4.5 1.5l-1-2 4.5 1zM635.5 192l3.5 1.5-5.5 3.5 2-3 1.5-.5zM706.5 192l.5 6.5h-1zM361.5 193l.5 12.5h-1zM367.5 193l.5 11.5h-1zM518.5 193l.5 11.5h-1zM620.5 193l.5 2.5h-1zM348.5 194l.5 11.5h-1zM354.5 194l.5 11.5h-1zM606.5 197l.5 2.5h-1zM720.5 197l.5 1.5-2 1zM298.5 198l.5 2.5h-1zM545.5 198l-1 2zM551.5 198l.5 1.5-2 1zM612.5 198l4.5 2.5-2.5.5zM619.5 198l-1 2zM632.5 198l.5 2.5h-1zM313.5 199l3.5 2.5-1.5 3.5-1.5-.5 2-.5-1.5-4zM388.5 199l2.5 1.5-1.5-.5zM437.5 199l1.5.5-2.5 1.5zM538.5 199l4.5 1.5-2.5.5zM311.5 200l-1 2-4.5-.5zM339.5 200l1 2zM386.5 200l-1 2-4.5-.5zM640.5 200l2.5.5-2.5.5zM674.5 200l.5 3.5h-1zM681.5 200l.5 4.5h-1zM707.5 200l5.5 4.5-1.5.5zM715.5 200l2.5.5-2.5.5zM431.5 201l3.5.5-3.5.5zM456.5 201l2.5.5-2.5.5zM533.5 201l2 3zM607.5 201l3 4zM701.5 201l.5 2.5h-1zM299.5 202l2 3zM374.5 202l2 3zM424.5 202l2 3zM633.5 202l2 3zM329.5 203l3.5 2.5-1.5.5zM559.5 203l3.5 2.5-1.5.5zM722.5 203l-1 2zM389.5 204l-1 2-1.5-.5zM450.5 204l1 2zM625.5 204l-1 2-2.5-.5zM643.5 204l3.5.5-3.5.5zM340.5 205l-1 2-5.5-.5zM405.5 205l-1 2-2.5-.5zM539.5 205l5.5.5-5.5.5zM613.5 205l4.5.5-4.5.5zM638.5 205l3.5.5-3.5.5zM667.5 205l5.5.5-5.5.5zM683.5 205l16.5.5-16.5.5zM715.5 205l2.5.5-2.5.5zM306.5 206l4.5.5-4.5.5zM350.5 206l2.5.5-2.5.5zM380.5 206l5.5.5-5.5.5zM431.5 206l4.5.5-4.5.5zM453.5 206l5.5.5-5.5.5zM625.5 228l11.5.5-11.5.5zM687.5 228l11.5.5-11.5.5zM309.5 229h6.5v4.5h-1q1.8-6.1-5.5-3.5zM343.5 229l6.5.5-7.5 1.5zM383.5 229l6.5.5-6.5.5zM423.5 229q4.5-1 5.5 1.5l-1.5-.5-5 1zM463.5 229q6-1.5 7.5 1.5l-.5 1.5-.5-2h-7v3.5h-1q-.7-3.7 1.5-4.5ZM490.5 229l18.5.5-18.5.5zM552.5 229l19.5.5-20 .5-.5 2-.5-1.5zM737.5 229q5.3-1.2 6.5 1.5l-.5 4.5-.5-5h-5.5zM773.5 229l6.5.5-7.5 1.5zM703.5 230l2.5 1.5-1.5-.5zM489.5 231l.5 3.5h-1zM643.5 231l1 2zM680.5 231l-1 2zM771.5 232l-.5 1.5-1.5 2.5.5-1.5zM429.5 233l.5 6.5h-1zM520.5 233q6.4 3.6 8.5 11.5l-2-1-1-4zM349.5 234l.5 2.5h-1zM550.5 234l.5 3.5h-1zM585.5 234l2 3zM469.5 235l.5 2.5h-1zM627.5 235l6.5.5-6.5.5zM647.5 235l1 2zM676.5 235l-1 2zM690.5 235l5.5.5-5.5.5zM709.5 235l1 2zM461.5 236l.5 2.5h-1zM488.5 236l.5 4.5h-1zM559.5 236l10.5.5-10.5.5zM613.5 236l-1 2zM734.5 236l.5 2.5h-1zM306.5 237l.5 2.5h-1zM497.5 237l-.5 1.5-.5 1.5-.5-1.5zM506.5 237l3.5.5-3.5.5zM622.5 237l-3.5 4.5-1.5 3.5-.5-1.5zM638.5 237l4.5 6.5h-1zM684.5 237l-3 4zM700.5 237l4.5 4.5v2h-1v-2zM742.5 237l.5 2.5h-1zM389.5 238l.5 7.5h-1zM420.5 238l.5 2.5h-1zM576.5 238l4.5 3.5-3.5-2.5zM776.5 238l-.5 1.5-1.5 2.5.5-1.5zM557.5 239l.5 3.5h-1zM348.5 240l.5 3.5h-1zM468.5 240l.5 2.5h-1zM516.5 240l1 2zM767.5 240l-.5 1.5-.5 1.5-.5-1.5zM733.5 242l.5 2.5h-1zM305.5 243l.5 2.5h-1zM313.5 243l.5 3.5h-1zM419.5 243l.5 2.5h-1zM487.5 243l.5 2.5h-1zM581.5 243l.5 2.5h-1zM741.5 243l.5 2.5h-1zM383.5 244l.5 4.5-2 1zM590.5 244l.5 6.5h-1zM651.5 244l.5 8.5h-1zM713.5 244l.5 8.5h-1zM556.5 245l.5 2.5h-1zM705.5 245l.5 6.5h-1zM772.5 245l.5 1.5-6.5 11.5.5-1.5zM347.5 246l.5 3.5h-1zM467.5 246l.5 2.5h-1zM528.5 246l.5 2.5h-1zM424.5 247l.5 2.5h-1zM732.5 247l.5 3.5h-1zM459.5 248l.5 2.5h-1zM520.5 248l.5 8.5h-1zM607.5 248l.5 2.5h-1zM418.5 249l.5 2.5h-1zM430.5 249l.5 5.5h-1zM486.5 249l.5 2.5h-1zM494.5 249l.5 2.5h-1zM615.5 249l.5 2.5h-1zM669.5 249l.5 2.5h-1zM338.5 250l.5 2.5h-1zM555.5 251l.5 3.5h-1zM346.5 252l.5 2.5h-1zM466.5 252l.5 2.5h-1zM581.5 252l.5 2.5h-1zM606.5 252l.5 3.5h-1zM381 253q3.7-1.3 2 4.5h-1zM423.5 253l.5 2.5h-1zM642.5 253l.5 3.5h-1zM668.5 253l.5 3.5h-1zM311.5 254l.5 4.5h-1zM417.5 254l.5 4.5h-1zM493.5 254l.5 2.5h-1zM528.5 254l.5 5.5h-1zM589.5 254l.5 3.5h-1zM614.5 254l.5 2.5h-1zM704.5 254l.5 3.5h-1zM731.5 254l.5 2.5h-1zM337.5 255l.5 3.5h-1zM485.5 255l.5 2.5h-1zM388.5 256l.5 6.5h-1zM712.5 256l.5 2.5h-1zM345.5 257l.5 2.5h-1zM425.5 257l.5 22.5h-1zM465.5 257l.5 4.5h-1zM554.5 257l.5 3.5h-1zM580.5 257l.5 2.5h-1zM605.5 257l.5 3.5h-1zM641.5 258l.5 4.5h-1zM302.5 259l.5 2.5h-1zM738.5 259l.5 2.5h-1zM416.5 260l.5 3.5h-1zM484.5 260l.5 2.5h-1zM492.5 260l.5 2.5h-1zM588.5 260l.5 2.5h-1zM667.5 260l.5 2.5h-1zM730.5 260l.5 2.5h-1zM310.5 261l.5 3.5h-1zM336.5 261l.5 3.5h-1zM381.5 261l.5 5.5h-1zM527.5 261l.5 4.5h-1zM703.5 261l.5 2.5h-1zM422.5 262l.5 3.5h-1zM431.5 262l.5 4.5h-1zM579.5 262l.5 4.5h-1zM344.5 263l.5 2.5h-1zM464.5 263l.5 3.5h-1zM553.5 263l.5 2.5h-1zM301.5 264l.5 2.5h-1zM456.5 264l.5 2.5h-1zM737.5 264l.5 2.5h-1zM587.5 265l.5 2.5h-1zM604.5 265l.5 2.5h-1zM612.5 265l.5 2.5h-1zM640.5 265l.5 3.5h-1zM666.5 265l.5 2.5h-1zM491.5 266l.5 3.5h-1zM674.5 266l.5 2.5h-1zM309.5 267l.5 2.5h-1zM415.5 267l.5 2.5h-1zM702.5 267l.5 2.5h-1zM710.5 267l.5 2.5h-1zM753.5 267l-1 2zM526.5 268l.5 2.5h-1zM544.5 268l.5 2.5h-1zM380.5 269l.5 7.5h-1zM463.5 269l.5 3.5h-1zM578.5 269l.5 3.5h-1zM300.5 270l.5 3.5h-1zM421.5 270l.5 3.5h-1zM603.5 270l.5 2.5h-1zM611.5 270l.5 3.5h-1zM736.5 270l.5 2.5h-1zM751.5 270l.5 1.5-2 1zM387.5 271l.5 6.5h-1zM482.5 271l.5 2.5h-1zM517.5 271l.5 2.5h-1zM673.5 271l.5 3.5h-1zM490.5 272l.5 3.5h-1zM647.5 272l.5 2.5h-1zM701.5 272l.5 2.5h-1zM525.5 273l.5 3.5h-1zM334.5 274l.5 2.5h-1zM543.5 274l.5 2.5h-1zM551.5 274l.5 2.5h-1zM299.5 275l.5 3.5h-1zM462.5 275l.5 2.5h-1zM749.5 275l-.5 1.5-.5 1.5-.5-1.5zM432.5 276l.5 4.5h-1zM454.5 276l.5 2.5h-1zM481.5 276l.5 3.5h-1zM516.5 276l.5 3.5h-1zM577.5 276l.5 2.5h-1zM664.5 276l.5 2.5h-1zM735.5 276l.5 3.5h-1zM375.5 277l.5 2.5h-1zM646.5 277l.5 2.5h-1zM672.5 277l.5 3.5h-1zM333.5 279l.5 2.5h-1zM420.5 279l.5 3.5h-1zM542.5 279l.5 3.5h-1zM708.5 279l.5 2.5h-1zM341.5 280l.5 2.5h-1zM453.5 281l.5 3.5h-1zM576.5 281l.5 2.5h-1zM601.5 281l.5 2.5h-1zM734.5 281l.5 4.5h-1zM746.5 281l-1 2zM298.5 282l.5 2.5h-1zM480.5 282l.5 3.5h-1zM609.5 282l.5 3.5h-1zM637.5 282l.5 2.5h-1zM412.5 283l.5 2.5h-1zM426.5 283l.5 9.5h-1zM515.5 283l.5 2.5h-1zM671.5 283l.5 3.5h-1zM373.5 284l.5 2.5h-1zM379.5 284l.5 8.5h-1zM523.5 284l.5 2.5h-1zM645.5 284l.5 3.5h-1zM707.5 284l.5 4.5h-1zM332.5 285l.5 2.5h-1zM340.5 285l.5 4.5h-1zM549.5 285l.5 2.5h-1zM541.5 286l.5 2.5h-1zM419.5 287l.5 3.5h-1zM433.5 287l.5 5.5h-1zM479.5 287l.5 3.5h-1zM583.5 287l.5 2.5h-1zM636.5 287l.5 2.5h-1zM725.5 287l.5 2.5h-1zM386.5 288l.5 6.5h-1zM608.5 288l.5 2.5h-1zM698.5 288l.5 2.5h-1zM733.5 288l.5 2.5h-1zM487.5 289l.5 2.5h-1zM514.5 289l.5 2.5h-1zM644.5 289l.5 3.5h-1zM670.5 289l.5 2.5h-1zM339.5 291l.5 2.5h-1zM459.5 291l.5 2.5h-1zM540.5 291l.5 2.5h-1zM706.5 291l.5 2.5h-1zM749.5 291l.5 2.5h-1zM363.5 292l.5 2.5h-1zM582.5 292l.5 2.5-1.5 2.5-.5-1.5zM599.5 292l.5 2.5h-1zM418.5 293l.5 2.5h-1zM607.5 293l.5 3.5h-1zM635.5 293l.5 2.5h-1zM661.5 293l.5 2.5h-1zM697.5 293l.5 3.5h-1zM724.5 293l.5 2.5h-1zM304.5 294l.5 2.5h-1zM410.5 294l.5 2.5h-1zM478.5 294l.5 2.5h-1zM513.5 294l.5 2.5h-1zM669.5 294l.5 2.5h-1zM732.5 294l.5 2.5h-1zM521.5 295l.5 2.5h-1zM547.5 296l.5 2.5h-1zM643.5 296l.5 2.5h-1zM338.5 297l.5 2.5h-1zM427.5 298l.5 5.5h-1zM450.5 298l.5 2.5h-1zM571.5 298l-4 5zM598.5 298l.5 2.5h-1zM634.5 298l.5 2.5h-1zM660.5 298l.5 3.5h-1zM723.5 298l.5 3.5h-1zM743.5 298l.5 4.5h-1l-1-3zM361.5 299l.5 2.5h-1zM378.5 299l.5 6.5h-1zM417.5 299l.5 2.5h-1zM434.5 299l.5 5.5h-1zM606.5 299l.5 2.5h-1zM696.5 299l.5 3.5h-1zM731.5 299l.5 2.5h-1zM303.5 300l.5 3.5h-1zM409.5 300l.5 2.5h-1zM485.5 300l.5 3.5h-1zM520.5 300l.5 3.5h-1zM579.5 300l-4 5zM668.5 300l.5 2.5h-1zM329.5 301l.5 2.5h-1zM642.5 301l.5 2.5h-1zM457.5 302l.5 2.5h-1zM538.5 302l.5 2.5h-1zM546.5 302l.5 3 12 .5-13 .5zM597.5 302l.5 3.5h-1zM704.5 302l.5 2.5h-1zM337.5 303l.5 3.5h-1zM385.5 303l.5 13.5h-1zM633.5 303l.5 4.5h-1zM659.5 303l.5 4.5h-1zM416.5 304l.5 2.5h-1zM695.5 304l.5 4.5h-1zM734.5 304l-.5 1.5-2.5 5.5-.5-1.5zM294.5 305l.5 2.5h-1zM408.5 305l.5 3.5h-1zM667.5 305l.5 2.5h-1zM722.5 305l.5 2.5h-1zM302.5 306l.5 3h24.5l.5-1.5h1l-1.5 2.5h-24l-1.5-1.5zM476.5 306l.5 2.5h-1zM484.5 306l.5 2.5h-1zM519.5 306l.5 4.5h-1zM703.5 307l.5 2.5h-1zM750.5 307l.5 10.5h-1zM456.5 308l.5 3.5h-1zM567.5 308l-1 2zM336.5 309l.5 2.5h-1zM632.5 309l.5 3.5h-1zM658.5 309l.5 4.5h-1zM293.5 310l.5 2.5h-1zM568.5 310l2.5 1.5-1.5-.5zM596.5 310l.5 2.5h-1zM604.5 310l.5 2.5h-1zM407.5 311l.5 3.5h-1zM435.5 311l.5 5.5h-1zM510.5 311l.5 2.5h-1zM721.5 311l.5 2.5h-1zM428.5 312l.5 6.5h-1zM518.5 312l.5 3.5h-1zM546.5 312l8.5.5-8.5.5zM640.5 312l.5 2.5h-1zM377.5 314l.5 5.5h-1zM455.5 314l.5 2.5h-1zM536.5 314l.5 2.5h-1zM544.5 314l.5 2.5h-1zM564.5 315l2 3zM292.5 316l.5 2.5h-1zM364.5 316l.5 2.5h-1zM509.5 316l.5 2.5h-1zM631.5 316l.5 2.5h-1zM657.5 316l.5 2.5h-1zM665.5 316l.5 2.5h-1zM720.5 316l.5 2.5h-1zM727.5 316l1 2q-2.8.7-1-2ZM301.5 317l25.5.5-26 .5-.5 2-.5-1.5zM474.5 317l.5 2.5h-1zM406.5 318l.5 2.5h-1zM482.5 318l.5 3.5h-1zM517.5 318l.5 3.5h-1zM701.5 318l.5 2.5h-1zM326.5 319l.5 2.5h-1zM535.5 319l.5 2.5h-1zM291.5 320l.5 4.5h-1zM334.5 320l.5 2.5h-1zM446.5 320l.5 2.5h-1zM454.5 320l.5 3.5h-1zM543.5 320l.5 2.5h-1zM413.5 321l.5 2.5h-1zM508.5 321l.5 3.5h-1zM568.5 321l.5 3.5h-1zM594.5 321l.5 2.5h-1zM602.5 321l.5 2.5h-1zM664.5 321l.5 3.5h-1zM384.5 322l.5 11.5h-1zM473.5 322l.5 2.5h-1zM630.5 322l.5 2.5h-1zM719.5 322l.5 2.5h-1zM299.5 323l.5 2.5h-1zM405.5 323l.5 2.5h-1zM638.5 323l.5 2.5h-1zM692.5 323l.5 2.5h-1zM325.5 324l.5 3.5h-1zM436.5 324l.5 7.5h-1zM481.5 324l.5 2.5h-1zM516.5 324l.5 2.5h-1zM534.5 324l.5 4.5h-1zM333.5 325l.5 2.5h-1zM429.5 325l.5 4.5h-1zM290.5 326l.5 3.5h-1zM412.5 326l.5 2.5h-1zM445.5 326l.5 2.5h-1zM453.5 326l.5 2.5h-1zM542.5 326l.5 2.5h-1zM353.5 327l.5 2.5h-1zM376.5 327l.5 5.5h-1zM472.5 327l.5 3.5h-1zM507.5 327l.5 3.5h-1zM568.5 327l.5 4.5h-1zM655.5 327l.5 2.5h-1zM663.5 327l.5 4.5h-1zM743.5 327l.5 12.5h-1zM298.5 328l.5 2.5h-1zM691.5 328l.5 2.5h-1zM480.5 329l.5 2.5h-1zM515.5 329l.5 2.5h-1zM699.5 329l.5 2.5h-1zM576.5 330l.5 2.5h-1zM751.5 330l.5 12.5h-1zM324.5 331l.5 2.5h-1zM332.5 331l.5 2.5h-1zM444.5 331l.5 3.5h-1zM452.5 331l.5 2.5h-1zM533.5 331l.5 2.5h-1zM541.5 331l.5 2.5h-1zM726.5 331l.5 1.5-1.5 4.5-.5-3.5zM411.5 332l.5 3.5h-1zM600.5 332l.5 3.5h-1zM289.5 333l.5 2.5h-1zM471.5 333l.5 3.5h-1zM662.5 333l.5 3.5h-1zM506.5 334l.5 2.5h-1zM636.5 334l.5 3.5h-1zM437.5 335l.5 10.5h-1zM698.5 335l.5 4.5h-1zM331.5 336l.5 2.5h-1zM532.5 336l.5 3.5h-1zM575.5 336l.5 2.5h-1zM323.5 337l.5 2.5h-1zM451.5 337l.5 2.5h-1zM591.5 337l.5 2.5h-1zM383.5 338l.5 11.5h-1zM410.5 338l.5 3.5h-1zM430.5 338l.5 3.5h-1zM443.5 338l.5 3.5h-1zM470.5 338l.5 3.5h-1zM599.5 338l.5 3.5h-1zM627.5 338l.5 2.5h-1zM653.5 338l.5 2.5h-1zM716.5 338l.5 2.5h-1zM296.5 339l.5 2.5h-1zM661.5 339l.5 3.5h-1zM689.5 339l.5 2.5h-1zM724.5 339l.5 3.5h-1zM402.5 340l.5 2.5h-1zM505.5 340l.5 2.5h-1zM635.5 340l.5 3.5h-1zM357.5 341l.5 2.5h-1zM478.5 341l.5 2.5h-1zM375.5 342l.5 6.5h-1zM450.5 342l.5 2.5h-1zM539.5 342l.5 2.5h-1zM574.5 342l.5 2.5h-1zM697.5 342l.5 2.5h-1zM330.5 343l.5 3.5h-1zM531.5 343l.5 2.5h-1zM626.5 343l.5 2.5h-1zM652.5 343l.5 2.5h-1zM409.5 344l.5 2.5h-1zM598.5 344l.5 2.5h-1zM688.5 344l.5 2.5h-1zM715.5 344l.5 2.5h-1zM295.5 345l.5 2.5h-1zM356.5 345l.5 2.5h-1zM401.5 345l.5 2.5h-1zM504.5 345l.5 2.5h-1zM512.5 345l.5 2.5h-1zM660.5 345l.5 2.5h-1zM442.5 346l.5 4.5h-1zM469.5 346l.5 2.5h-1zM477.5 346l.5 2.5h-1zM634.5 346l.5 3.5h-1zM538.5 347l.5 3.5h-1zM321.5 348l.5 2.5h-1zM329.5 348l.5 4.5h-1zM449.5 348l.5 2.5h-1zM589.5 348l.5 2.5h-1zM530.5 349l.5 2.5h-1zM625.5 349l.5 2.5h-1zM651.5 349l.5 3.5h-1zM714.5 349l.5 3.5h-1zM408.5 350l.5 2.5h-1zM431.5 350l.5 5.5h-1zM597.5 350l.5 2.5h-1zM659.5 350l.5 2.5h-1zM687.5 350l.5 3.5h-1zM722.5 350l.5 2.5h-1zM400.5 351l.5 2.5h-1zM468.5 351l.5 2.5h-1zM503.5 351l.5 2.5h-1zM511.5 351l.5 3.5h-1zM476.5 352l.5 2.5h-1zM633.5 352l.5 2.5h-1zM320.5 353l.5 2.5h-1zM438.5 353l.5 4.5h-1zM572.5 353l.5 4.5h-1zM695.5 353l.5 2.5h-1zM752.5 353l.5 14.5h-1zM328.5 354l.5 3.5h-1zM345.5 354l.5 2.5h-1zM448.5 354l.5 2.5h-1zM529.5 354l.5 2.5h-1zM537.5 354l.5 2.5h-1zM588.5 354l.5 3.5h-1zM624.5 354l.5 3.5h-1zM354.5 355l20.5.5-20.5.5zM596.5 355l.5 2.5h-1zM650.5 355l.5 3.5h-1zM686.5 355l.5 3.5h-1zM713.5 355l.5 3.5h-1zM285.5 356l.5 2.5h-1zM293.5 356l.5 4.5h-1zM399.5 356l.5 3.5h-1zM658.5 356l.5 2.5h-1zM721.5 356l.5 2.5h-1zM744.5 356l.5 11.5h-1zM382.5 357l.5 8.5h-1zM475.5 357l.5 2.5h-1zM563.5 357l.5 2.5h-1zM319.5 358l.5 3.5h-1zM344.5 358l.5 2.5-1.5 3.5-.5-2.5zM694.5 358l.5 2.5h-1zM438.5 359l1.5 14.5-1.5 4.5zM447.5 359l.5 2.5h-1zM571.5 359l.5 3.5h-1zM623.5 359l.5 4.5h-1zM327.5 360l.5 2.5h-1zM536.5 360l.5 3.5h-1zM406.5 361l.5 2.5h-1zM657.5 361l.5 2.5h-1zM720.5 361l.5 2.5h-1zM562.5 362l.5 3.5h-1zM685.5 362l.5 2.5h-1zM292.5 363l.5 2.5h-1zM398.5 363l.5 2.5h-1zM432.5 363l.5 4.5h-1zM440.5 363l.5 2.5h-1zM474.5 363l.5 2.5h-1zM509.5 363l.5 3.5h-1zM318.5 364l.5 3.5h-1zM446.5 365l.5 3.5h-1zM527.5 365l.5 2.5h-1zM283.5 366l.5 2.5h-1zM535.5 366l.5 2.5h-1zM594.5 366l.5 2.5h-1zM622.5 366l.5 3.5h-1zM465.5 367l.5 2.5h-1zM586.5 367l.5 2.5h-1zM648.5 367l.5 2.5h-1zM719.5 367l.5 2.5h-1zM561.5 368l.5 3.5h-1zM630.5 368l.5 2.5h-1zM684.5 368l.5 2.5h-1zM397.5 369l.5 2.5h-1zM508.5 369l.5 2.5h-1zM692.5 369l.5 2.5h-1zM317.5 370l.5 3.5h-1zM373.5 370l.5 7.5h-1zM473.5 370l.5 2.5h-1zM445.5 371l.5 2.5h-1zM526.5 371l.5 2.5h-1zM569.5 371l.5 2.5h-1zM282.5 372l.5 3.5h-1zM404.5 372l.5 2.5h-1zM585.5 372l.5 10.5h-1zM593.5 372l.5 2.5h-1zM464.5 373l.5 2.5h-1zM507.5 373l.5 2.5h-1zM560.5 373l.5 2.5h-1zM629.5 373l.5 2.5h-1zM655.5 373l.5 7.5h-1zM718.5 373l.5 2.5h-1zM290.5 374l.5 2.5h-1zM381.5 374l.5 7.5h-1zM396.5 374l.5 2.5h-1zM647.5 374l.5 7.5h-1zM433.5 375l.5 8.5h-1zM472.5 375l.5 3.5h-1zM324.5 376l.5 2.5h-1zM525.5 376l.5 3.5h-1zM316.5 377l.5 2.5h-1zM403.5 377l.5 4.5h-1zM444.5 377l.5 2.5h-1zM691.5 377l-.5 1.5-.5 1.5-.5-1.5zM281.5 378l.5 2.5h-1zM753.5 378l.5 3.5h-1zM289.5 379l.5 2.5h-1zM463.5 379l.5 2.5h-1zM717.5 379l.5 2.5h-1zM346.5 380l.5 2.5h-1zM558.5 380l-1 2zM681.5 380l.5 1.5-2.5 3.5.5-1.5zM471.5 381l.5 2.5h-1zM494.5 381l-3 4zM627.5 381l.5 2.5-2.5 3.5.5-1.5zM315.5 382l.5 2.5h-1zM443.5 382l.5 2.5h-1zM402.5 383l.5 2.5h-1zM462.5 383l.5 3.5h-1zM524.5 383l.5 2.5h-1zM280.5 384l.5 3.5h-1zM565.5 384l.5 1.5-3.5 4.5.5-1.5zM617.5 384l-1 2zM372.5 385l.5 9.5 1 1-2-1zM595.5 385l2 3zM657.5 385l2 3zM688.5 385l-.5 1.5-2.5 3.5 1.5-2.5zM716.5 385l.5 3.5h-1zM753.5 385l.5 11-2-.5 1-1zM482.5 387l2.5.5-2.5.5zM500.5 387l-2 3zM649.5 387l1.5 2.5-2-1zM314.5 388l.5 2.5h-1zM322.5 388l.5 2.5h-1zM442.5 388l.5 2.5h-1zM532.5 388l12.5.5-12.5.5zM624.5 388l-2 3zM335.5 389l.5 2.5h-1zM401.5 389l.5 2.5h-1zM608.5 389l2.5.5-2.5.5zM663.5 389l4.5.5-4.5.5zM707.5 389l.5 2.5h-1zM745.5 389l1.5 6.5-2-1zM279.5 390l.5 2.5h-1zM380.5 390l.5 4.5q-1 2.5-5.5 1.5v-1h4.5zM434.5 390l1.5 5.5-2-1zM461.5 390l.5 2.5h-1zM496.5 390l-1 2zM588.5 390l3 4zM287.5 391l.5 2.5h-1zM393.5 391l.5 2.5h-1zM559.5 391l-1 2-3 1v-1zM715.5 391l.5 2.5h-1zM620.5 392l-2 3-1.5-.5zM652.5 392l1 2zM313.5 393l1.5 2.5-2-1zM441.5 393l.5 1.5q-.7 2.3-4.5 1.5v-1q4.5 1.3 4-2ZM681.5 393l-1 2-3 1v-1zM321.5 394l-1 2-4.5-.5zM334.5 394l7.5 1.5-6.5.5zM486.5 394l2.5.5-2.5.5zM282.5 395l4.5.5-4.5.5zM395.5 395l4.5.5-4.5.5zM474.5 395l8.5.5-8.5.5zM525.5 395l5.5.5-5.5.5zM533.5 395l13.5.5-13.5.5zM707.5 395l7.5.5-7.5.5zM603.5 397l4.5.5-4.5.5zM665.5 397l4.5.5-4.5.5zM452.5 460l8.5.5-3.5 1.5-5-1-2 1v-1zM476.5 460l3.5.5-4 .5-.5 28-.5-27.5zM624.5 460l4.5.5q-4.6-.6-6 2 2.3 1.2-.5 2.5l-1.5.5 1 2h-1l-1-2zM643.5 460q6.5-1 7.5 3.5l-3.5-2.5q-6.7-2.2-4.5 4.5l1.5-.5 1.5.5-1 1-.5 8.5-1-6-.5 19.5.5 1.5-1.5-.5v-28zM679.5 460l3.5.5-3.5.5zM463.5 461l2.5 1.5-1.5-.5zM481.5 461l2 3zM555.5 461l.5 5.5h-1zM560.5 461l.5 28.5h-1zM588.5 461l.5 28.5h-1zM460.5 462l4 5zM511.5 462l1.5.5-2 .5v24.5q0 1 4.5.5l4.5 1.5-9.5.5-.5-2.5v-24zM542.5 462l3.5.5-3.5.5zM582.5 462l1 2zM678 462l2 .5-1.5 4.5zM682.5 462l3.5.5-3.5.5zM403.5 463l.5 10.5h-1zM417.5 463l.5 1.5-1.5 2.5-.5-1.5zM452.5 463l-2 3zM467.5 463l2 3zM525.5 463l3 4zM539.5 463l.5 10.5h-1zM565.5 463l.5 27-2-.5 1-1zM577.5 463l1 2zM661.5 463l1 2zM687.5 463l1 2zM521.5 464l1 2zM550.5 464l3.5 2.5-2.5-1.5zM584.5 465l.5 2.5h-1zM651.5 465l1 2zM695.5 465l1 2zM352.5 466l8.5.5-8.5.5zM485.5 467l1 2zM351.5 468l.5 13.5h-1zM421.5 468l.5 4.5h-1zM653.5 468l2.5 3.5-2-1zM678.5 468l.5 2.5h-1zM354.5 469l.5 5.5h-1zM578.5 469l-2 4 1.5.5-4.5 2.5-1.5-2.5zM583.5 469l-2 3zM481.5 470l2.5 3.5-2-1zM487.5 470l1 2z" opacity=".224"/><path fill="#fdfefe" stroke="#fdfefe" d="m648.5 470 2.5 3.5-2-1zM698.5 470l.5 9.5h-1zM362.5 471l.5 1.5-2 1zM368 471l3 .5-2 .5-.5 2zM379.5 471l2.5 1.5-1.5-.5-2 1zM501.5 471l.5 2.5h-1zM548.5 471q3.3 1.9 1.5 8l-2-.5q2.3-1.3 1-6h-2zM466.5 472l.5 6.5h-1zM477.5 472l.5 2.5h-1zM498.5 472l.5 3.5h-1zM364.5 473l.5 1.5-1 2q3.3 1.3 2 7l-3 2q3.3-1.2 2-7l-2-3zM489.5 473l1 2zM473.5 474l.5 2.5h-1zM542.5 474l1.5.5-2.5 1.5zM501.5 475l.5 2.5h-1zM418.5 476l1 2q-2.8.7-1-2ZM491.5 476l2.5 3.5-2-1zM645.5 476l.5 3.5h-1zM355.5 477q6.3-1.2 7.5 2.5l-2.5-1.5q-8.2-2.7-5.5 5.5h-1q-1.2-5.2 1.5-6.5ZM404.5 477l.5 2.5h-1zM652.5 477l1 2zM666.5 477l.5 8.5h-1zM524.5 478l.5 3.5h-1zM574.5 478l1 2zM620 478h9.5l1.5 1.5-11 .5-.5 7-.5-6.5zM660.5 479l1 2zM375.5 480l.5 2-2-.5zM487.5 480l7.5 8.5-6-5zM499.5 480l1.5 4.5-2 .5zM654.5 480l2 3zM371.5 481l1.5 3.5h-1zM471.5 481l.5 1.5-6 5zM570.5 481l1 2zM631.5 481l1.5 3.5h-1zM697.5 481l.5 1.5-5 4zM403.5 482l1 2 1.5-.5q-1.5 3-3 0zM423.5 482l.5 1.5-2 1zM678.5 482l.5 6q5.5-1.1 8 1.5l-8.5.5-.5-2.5zM443.5 483l4 5zM480.5 483l2.5 6.5h-1zM496.5 483l1 2zM554.5 483l2.5 1.5-1.5-.5-2 1zM578.5 483l4 5zM608.5 483l1.5.5-2.5 1.5zM663.5 483l1 2zM351.5 484l.5 2 9 .5-8.5.5zM415.5 484l.5 1.5-2 1zM539.5 484l.5 2.5h-1zM690.5 484l-2 3zM406.5 485l1.5 4.5-2-1-1-2zM424.5 485l.5 2-2-.5zM463.5 485l-2 3zM605.5 485l-1 2-1.5-.5zM525.5 486l-1 2zM648.5 486l1 2zM659.5 486l2 3zM453.5 487l2.5 1.5-1.5.5zM545.5 487l2.5.5-2.5.5zM599.5 487l2.5.5-2.5.5zM612.5 487l.5 2.5h-1zM372.5 488l-1 2q-2.2-.7-1.5 1.5l.5 1.5-1.5-2.5zM413.5 488l-1 2zM424.5 488l1 2zM431.5 488l-1 2zM458.5 488l1.5.5-2 1 .5 1.5-3.5-.5zM501.5 488l-2 3-1.5-.5zM540 488l3 .5-3 1.5zM594.5 488q4.8-1.3 3.5 2l-5-.5zM374.5 490l-1 2z" opacity=".224"/><path fill="#f2f5f6" stroke="#f2f5f6" d="M621.5 178q4.5-1 5.5 1.5v26l-1.5.5.5-1.5v-25q0-1-4.5-.5zM348.5 179l.5 14.5h-1zM514.5 179l1.5.5-2.5 1.5zM525.5 179l.5 4.5-2 1zM329.5 180q4.5-1 5.5 1.5l-1.5-.5-5 1zM661.5 181l.5 4-4.5 1 1-2q4 1.1 3-3ZM694.5 182l-.5 1.5 1 2-1.5-.5-11.5-.5 10.5-.5zM545.5 184l5.5 4.5-4.5-3.5zM558.5 184q4.5-1 5.5 1.5l-1.5-.5q-4.5-.5-4.5.5v15h-1v-15zM570.5 184q4.5-1 5.5 1.5l-1.5-.5H570v12.5h-1v-12zM583.5 184l3.5.5-3.5.5zM590.5 184l1.5.5-3.5 1.5v-1zM645.5 184l4.5 3.5-3.5-2.5zM668.5 184l7.5.5-7.5.5zM712.5 184l1.5.5-2.5 1.5zM732.5 184l4.5.5-5 .5v19.5q.1 1.1 5.5.5v1q-5.2 1.3-6.5-1.5v-19zM379.5 185l2.5.5-2.5.5zM409.5 185l3.5.5-3.5.5zM479.5 185l2.5.5-2.5.5zM487.5 185l2.5.5-2.5.5zM598.5 185l3.5 5.5h-1zM610.5 185l-1 2zM722.5 185l3 4zM302.5 186l-3.5 4.5-1.5 9.5-.5-6.5zM313.5 186l4.5 5.5h-1zM364.5 186q4.3.8 3.5 6.5h-1zM388.5 186l5.5 6.5v5h-1v-5zM400.5 186l-.5 1.5v18l1.5.5v1l-2.5-1.5v-18zM415.5 186q4 .5 3.5 5.5l-2 1 1-3zM427.5 186l-3.5 4.5-.5 1.5-.5-1.5zM438.5 186l3 4zM460.5 186l.5 12.5h-1zM467.5 186l.5 19.5-2 1 1-1zM471.5 186l.5 11.5h-1zM491.5 186l3.5 4.5v15l-2 1 1-1v-15zM534.5 186l-.5 1.5-1.5 2.5.5-1.5zM376.5 187l-3 4zM525.5 187l1 2zM506.5 188l1.5 4.5-2-1zM607.5 188l-.5 1.5-.5 1.5-.5-1.5zM632.5 189l.5 3 2 .5-1.5.5q-2.5-1-1-4ZM640.5 189l-1 3 1.5.5-3 .5zM657.5 189l4.5 1-.5 10-.5-9q-5.6 1.7-3.5-2ZM590.5 190l1.5.5-2.5 1.5zM593.5 190l2.5 3.5V205h5v-12.5h1V206h-7v-12.5zM669.5 190l6.5.5-6.5.5zM751.5 190l.5 16-7-.5 6-.5zM359.5 191l1.5 1.5v12h-1v-12zM431.5 191v2l3.5-.5-.5-1.5 1.5 3h-5.5l-.5-1.5zM478.5 191l1.5 1.5v13l1 1-2-1v-13zM486.5 191l1.5 1.5v13l1 1-2-1v-13zM531.5 191l.5 2.5h-1zM613.5 191l-1 2zM719.5 191q2.5 1 1.5 5.5h-1zM305.5 192l6.5 1.5-7 .5zM372.5 192l.5 3.5h-1zM386.5 192l.5 2-8-.5zM526.5 192l-1 2-1.5-.5zM538.5 192l.5 1.5-2 1zM605.5 192l.5 5.5h-1zM727.5 192l.5 5.5h-1zM318.5 193l.5 4.5h-1zM406.5 193l.5 3.5h-1zM413.5 193l2.5.5-2.5.5zM545.5 193l.5 4.5q-.7 3.3-5.5 2.5v-1q3.8.8 4.5-1.5zM552.5 193l.5 3.5h-1zM588.5 194l.5 12-7-.5 6-.5zM634.5 194l-1 2zM422.5 195l.5 2.5h-1zM443.5 195l.5 2.5h-1zM531.5 196q.1 5.9 4 8l3.5 1.5-1.5.5-5.5-4.5zM537.5 196l1.5 2.5h-1zM372.5 197l.5 2.5h-1zM619.5 197l-2 3q-3.7.8-4.5-1.5l1.5.5q4.3.8 5-2ZM641.5 197l3.5.5-3.5.5zM304.5 198l.5 2 2 .5-1.5.5zM313.5 198l3.5 2.5-2.5-1.5-5 2v-1zM388.5 198l-1 2-3 1v-1zM429.5 198l.5 2 2 .5-1.5.5zM438.5 198l3.5 2.5-1.5.5zM564.5 198l4.5 1.5-3.5.5zM638.5 198l1.5 2.5-2-1zM713.5 198l5 1 1.5-.5q-1 2.5-5.5 1.5zM335.5 199l1 2zM379.5 199l2.5 1.5-1.5.5zM390.5 199l1.5 2.5h-1zM406.5 199l.5 6.5-2 1zM436.5 199l-1 2-1.5-.5zM455.5 199l4.5 1.5-5 .5zM700.5 199q2.3-.7 1.5 1.5zM726.5 199l.5 1.5-6.5 5.5v-1l5.5-4.5zM340.5 200q2.5 1 1.5 5.5l-2 1 1-5zM551.5 200l-1 2zM298.5 201l3 4 4.5 1.5-2.5.5-5.5-4.5zM328.5 201l3 5 2.5.5-2.5.5q-4.8-1.3-3-6ZM423.5 201l3 4 4.5 1.5-2.5.5-5.5-4.5zM632.5 201l3 4 5.5 1.5-2.5.5-6.5-4.5zM707.5 201l3 4zM558.5 202l2.5 3.5-3-2zM607.5 202q2.6 4.4 9.5 4.5l-3.5.5q-5.3-1-6-5ZM374.5 203l5.5 3.5-1.5.5zM471.5 203l1.5 3.5-2-1zM548.5 203l.5 2-3.5 1v-1zM390.5 204l1.5.5-2.5 1.5zM620.5 204l1 2h-2l-1.5-.5zM664.5 204l2.5 1.5-1.5.5zM674.5 204l.5 2-2-.5zM701.5 204l.5 2-2-.5zM313.5 205l1.5.5-3.5 1.5v-1zM367.5 205l.5 2-7-.5zM438.5 205l1.5.5-3.5 1.5v-1zM450.5 205l2.5 1.5-1.5.5zM512.5 205l6.5.5-6.5.5zM568.5 205l2.5.5-2.5.5zM642.5 205l8.5.5-8.5.5zM712.5 205l5 1 1.5-.5-3.5 1.5-3-1zM459.5 206l3.5.5-3.5.5zM540.5 206l2.5.5-2.5.5zM562.5 206l4.5.5-4.5.5zM627.5 227l6.5.5-6.5.5zM689.5 227l7.5.5-7.5.5zM622.5 228l2.5.5-3.5 1.5zM307 229l2 .5q-2.7 2.3-2.5 7.5l-.5-4.5zM381 229l2 .5-2 1zM390.5 229l.5 7.5h-1zM422.5 229l-.5 1.5-.5 2.5-.5-2.5zM428.5 229q3-.9 1.5 3.5l1 1v15h-1v-15zM509.5 229l3.5.5-3.5.5zM551.5 229l-.5 1.5-.5 3.5-.5-3.5zM572.5 229l3.5.5-3.5.5zM736.5 229l-1 2zM743.5 229l1.5 3.5h-1zM705.5 230l5 6zM517.5 231l2.5 1.5-1.5-.5zM644.5 231l4 5zM679.5 231l-4 5zM771.5 231l-1 2zM350.5 232l.5 4.5-1.5 5.5-.5-4.5zM380.5 232l.5 2.5-2.5 6.5-.5-2.5zM461.5 232l.5 3.5h-1zM488.5 232l.5 3.5h-1zM583.5 232l1 2zM521.5 233l5 6zM315.5 234l.5 3.5h-1zM586.5 234l1 2zM613.5 234l.5 1.5-2 1zM769.5 234l-.5 1.5-2.5 5.5.5-1.5zM549.5 235l.5 5.5h-1zM340.5 236l.5 2.5h-1zM460.5 237l.5 5.5-1.5 5.5-.5-4.5zM498.5 237l7.5.5-7.5.5zM570.5 237l2.5.5-2.5.5zM674.5 237l-1 2zM487.5 238l.5 4.5h-1zM611.5 238l-.5 1.5-.5 1.5-.5-1.5zM513.5 239l4.5 3.5-2.5-1.5zM577.5 239l3 4zM639.5 239l1 2zM683.5 239l-2 3zM733.5 239l.5 2.5h-1zM305.5 240l.5 2.5h-1zM314.5 240l.5 5.5h-1zM620.5 240l-1 2zM702.5 240l1 2zM742.5 240l.5 2.5h-1zM590.5 241l.5 2.5h-1zM775.5 241l-1 2zM765.5 242l.5 1.5-2.5 3.5.5-1.5zM557.5 243l.5 3.5h-1zM348.5 244l.5 3.5h-1zM486.5 244l.5 4.5h-1zM642.5 244l.5 8.5h-1zM704.5 244l.5 2.5h-1zM495.5 245l.5 2.5h-1zM528.5 245l1.5 1.5v11h-1v-11zM389.5 246l.5 3.5h-1zM418.5 246l.5 2.5h-1zM519.5 246l.5 2.5h-1zM581.5 246l.5 5.5h-1zM313.5 247l.5 3.5-2 1zM338.5 247l.5 2.5h-1zM556.5 248l.5 5.5h-1zM467.5 249l.5 5.5-1.5 5.5-.5-4.5zM547.5 249l.5 2.5h-1zM382.5 250l.5 2.5h-1zM424.5 250l.5 15.5h-1l-1-9zM431.5 250l.5 11.5h-1zM668.5 250l.5 2.5h-1zM731.5 250l.5 3.5-1.5 6.5-.5-5.5zM590.5 251l.5 3.5h-1zM704.5 251l.5 2.5h-1zM494.5 252l.5 3.5h-1zM760.5 252l-.5 1.5-3.5 7.5-.5-1.5zM312.5 253l.5 2.5h-1zM651.5 253l.5 2.5h-1zM713.5 253l.5 2.5h-1zM605.5 254l.5 2.5h-1zM346.5 255l.5 2.5h-1zM381.5 255l.5 5.5-2-1zM555.5 255l.5 2.5h-1zM641.5 255l.5 2.5h-1zM667.5 255l.5 2.5h-1zM302.5 256l.5 2.5h-1zM416.5 256l.5 3.5h-1zM703.5 256l.5 2.5h-1zM739.5 256l.5 2.5h-1zM457.5 257l.5 2.5h-1zM484.5 257l.5 2.5h-1zM519.5 257l.5 2.5h-1zM767.5 257l-1 2zM336.5 258l.5 2.5h-1zM372.5 259l.5 2.5h-1zM493.5 259l.5 3.5-1.5 5.5-.5-4.5zM604.5 259l.5 3.5h-1zM345.5 260l.5 2.5h-1zM528.5 260l.5 3.5h-1zM545.5 260l.5 2.5h-1zM640.5 260l.5 4.5h-1zM703.5 260l-.5 1.5-.5 5.5-.5-5.5zM666.5 261l.5 3.5h-1zM729.5 261l.5 4.5h-1zM415.5 262l.5 4.5-1.5 7.5-.5-6.5zM465.5 262l.5 3.5h-1zM764.5 262l.5 1.5-3.5 5.5.5-1.5zM335.5 263l.5 2.5h-1zM371.5 263l.5 2.5-1.5 3.5-.5-2.5zM379.5 263l1.5 5.5h-1zM388.5 263l.5 5.5h-1zM518.5 263l.5 2.5h-1zM604.5 264l-.5 1.5-.5 4.5-.5-4.5zM711.5 264l.5 2.5h-1zM544.5 265l.5 2.5h-1zM300.5 266l.5 3.5h-1zM422.5 266l.5 6.5h-1zM527.5 266l.5 2.5h-1zM553.5 266l.5 3.5h-1zM578.5 266l.5 2.5h-1zM639.5 266l.5 5.5h-1zM335.5 267l-.5 1.5-.5 3.5-.5-3.5zM464.5 267l.5 2.5h-1zM737.5 267l.5 4.5h-1zM482.5 268l.5 2.5h-1zM517.5 268l.5 2.5h-1zM674.5 269l.5 4.5h-1zM309.5 270l.5 2.5h-1zM369.5 270l.5 2.5h-1zM432.5 270l.5 5.5h-1zM491.5 270l.5 2.5h-1zM577.5 270l.5 3.5h-1zM710.5 270l.5 4.5-2.5 11.5-.5-3.5zM343.5 271l.5 2.5h-1zM379.5 271l.5 12.5h-1zM543.5 271l.5 2.5h-1zM552.5 271l.5 2.5h-1zM750.5 271l-.5 1.5-1.5 3.5.5-1.5zM299.5 272l.5 2.5h-1zM377.5 272l.5 2.5-1.5 4.5-.5-3.5zM454.5 272l.5 3.5h-1zM516.5 273l.5 2.5h-1zM736.5 273l.5 4.5h-1zM308.5 274l.5 2.5h-1zM421.5 274l.5 8.5-2 1 1-1zM611.5 274l.5 3.5-1.5 6.5-.5-5.5zM333.5 275l.5 3.5h-1zM542.5 275l.5 3.5h-1zM647.5 275l.5 4.5-1.5 6.5-.5-5.5zM673.5 275l.5 3.5h-1zM700.5 275l.5 2.5h-1zM413.5 276l.5 2.5h-1zM298.5 277l.5 4.5h-1zM551.5 277l.5 2.5h-1zM576.5 277l.5 3.5h-1zM387.5 278l.5 3.5h-1zM453.5 278l.5 2.5h-1zM462.5 278l.5 2.5h-1zM480.5 279l.5 2.5h-1zM515.5 279l.5 3.5-2.5 11.5-.5-4.5zM425.5 280l.5 7.5h-1zM489.5 280l.5 2.5h-1zM735.5 280l.5 3.5h-1zM746.5 280l-1 2zM755.5 280l.5 1.5-3.5 5.5.5-1.5zM524.5 281l.5 2.5h-1zM541.5 281l.5 4.5h-1zM672.5 281l.5 3.5h-1zM550.5 282l.5 2.5h-1zM297.5 283l.5 4.5h-1zM341.5 283l.5 4.5h-1zM374.5 283l.5 2.5h-1zM452.5 283l.5 2.5h-1zM479.5 283l.5 3.5h-1zM433.5 284l.5 2.5h-1zM584.5 284l.5 4.5h-1zM600.5 284l.5 2.5h-1zM420.5 285l.5 2.5h-1zM698.5 285l.5 2.5h-1zM378.5 286l.5 12.5h-1zM488.5 286l.5 3.5h-1zM609.5 286l.5 2.5h-1zM411.5 287l.5 2.5h-1zM452.5 287l-.5 1.5-1.5 9.5-.5-3.5q2.2-1.2 1-6zM523.5 287l.5 2.5h-1zM540.5 287l.5 3.5h-1zM460.5 288l.5 2.5h-1zM645.5 288l.5 2.5h-1zM661.5 289l.5 3.5h-1zM724.5 289l.5 3.5h-1zM741.5 289l-.5 1.5-1.5 3.5-.5-1.5zM340.5 290l.5 3.5-1.5 5.5-.5-4.5zM478.5 290l.5 3.5h-1zM583.5 290l.5 3.5h-1zM635.5 290l.5 2.5h-1zM296.5 291l.5 2.5h-1zM305.5 291l.5 4.5h-1zM419.5 291l.5 2.5h-1zM608.5 291l.5 2.5h-1zM733.5 291l.5 2.5h-1zM670.5 292l.5 2.5h-1zM330.5 293l.5 2.5h-1zM426.5 293l.5 5.5h-1zM548.5 293l.5 4.5h-1zM644.5 293l.5 3.5h-1zM706.5 294l.5 2.5h-1zM386.5 295l.5 19.5h-1zM434.5 295l.5 3.5h-1zM477.5 295l.5 4.5h-1zM598.5 295l.5 2.5h-1zM723.5 295l.5 2.5h-1zM418.5 296l.5 2.5h-1zM696.5 296l.5 2.5h-1zM304.5 297l.5 5.5h-1zM486.5 297l.5 2.5h-1zM571.5 297l-5 6zM669.5 297l.5 2.5h-1zM732.5 297l.5 2.5h-1zM750.5 297l.5 9.5h-1zM521.5 298l.5 5.5-1.5 4.5-.5-3.5zM458.5 299l.5 5.5-1.5 6.5-.5-5.5zM338.5 300l.5 3.5h-1zM360.5 300l.5 3.5h-1zM633.5 300l.5 2.5h-1zM659.5 300l.5 2.5h-1zM695.5 300l.5 3.5h-1zM742.5 300l.5 27.5h-1v-24l-1-1zM449.5 301l.5 3.5h-1zM547.5 301l.5 2.5h-1zM579.5 301l-4 5-2 1 1-2zM722.5 301l.5 3.5-1.5 6.5-.5-5.5zM408.5 302l.5 2.5h-1zM606.5 302l.5 2.5h-1zM328.5 303l.5 3.5h-1zM511.5 303l.5 2.5h-1zM734.5 303l-1 2zM303.5 304l.5 2.5h-1zM368.5 304l.5 2.5-2.5 7.5-.5-2.5zM427.5 304l.5 4.5h-1zM435.5 304l.5 6.5h-1zM485.5 304l.5 3.5h-1zM642.5 304l.5 2.5h-1zM596.5 305l.5 4.5-1.5 4.5-.5-3.5zM658.5 305l.5 3.5h-1zM632.5 306l.5 2.5h-1zM293.5 307l.5 2.5h-1zM407.5 307l.5 3.5h-1zM694.5 307l.5 4.5-1.5 6.5-.5-5.5zM377.5 308l.5 5.5h-1zM475.5 308l.5 3.5h-1zM510.5 308l.5 2.5h-1zM568.5 308l.5 2-2-.5zM484.5 309l.5 4.5-2 1zM641.5 309l.5 2.5h-1zM570.5 310l5.5 6.5h-1zM729.5 310q2.3-.7 1.5 1.5zM737.5 310l.5 1.5-3.5 5.5.5-1.5zM519.5 311l.5 2.5h-1zM631.5 311l.5 4.5-1.5 6.5-.5-5.5zM657.5 311l.5 4.5h-1zM336.5 312l.5 2.5h-1zM447.5 312l.5 2.5h-1zM456.5 312l.5 3.5h-1zM720.5 312l.5 3.5h-1zM406.5 313l.5 4.5-1.5 5.5-.5-4.5zM509.5 313l.5 2.5h-1zM545.5 313q11-1.9 16.5 1.5l-2.5.5-1-1h-13zM729.5 313l.5 1.5-1.5 2.5-.5-2.5zM595.5 315l-.5 1.5-.5 4.5-.5-4.5zM436.5 316l.5 7.5h-1zM483.5 316l.5 3.5h-1zM518.5 316l.5 3.5h-1zM291.5 317l.5 2.5h-1zM385.5 317l.5 9.5h-1zM414.5 317l.5 2.5h-1zM446.5 317l.5 2.5h-1zM455.5 317l.5 3.5h-1zM544.5 317l.5 3.5h-1zM751.5 317l.5 12.5h-1zM326.5 318l-.5 1.5-.5 4.5-.5-4.5zM566.5 318q2.5 1 1.5 5.5h-1zM428.5 319l.5 5.5h-1zM656.5 319l.5 2.5h-1zM665.5 319l.5 4.5h-1zM719.5 319l.5 2.5h-1zM300.5 320l.5 2.5h-1zM701.5 321l.5 4.5q-2.3 1.3-1 6l-1.5 1.5.5-1.5zM290.5 323l.5 2.5h-1zM445.5 323l.5 2.5h-1zM472.5 323l.5 3.5h-1zM413.5 324l.5 4.5-1.5 6.5-.5-5.5zM507.5 324l.5 2.5h-1zM602.5 324l.5 4.5-1.5 6.5-.5-5.5zM664.5 325l.5 4.5h-1zM324.5 326l.5 4.5h-1zM638.5 326l.5 4.5-1.5 6.5-.5-5.5zM481.5 327l.5 2.5h-1zM516.5 327l.5 2.5h-1zM533.5 327l.5 3.5h-1zM289.5 328l.5 4.5-1.5 7.5-.5-6.5zM352.5 328l.5 3.5-1.5 3.5-.5-2.5zM444.5 328l.5 2.5h-1zM567.5 328l.5 6.5h-1zM728.5 328l.5 1.5-1.5 2.5-.5-1.5zM453.5 329l.5 2.5h-1zM429.5 330l.5 5.5h-1zM437.5 330l.5 4.5h-1zM628.5 330l.5 2.5h-1zM654.5 330l.5 2.5h-1zM717.5 330l.5 2.5h-1zM403.5 332l.5 2.5h-1zM480.5 332l.5 2.5h-1zM515.5 332l.5 2.5h-1zM532.5 332l.5 3.5h-1zM663.5 332l.5 2.5h-1zM506.5 333l-.5 1.5-1.5 10.5-.5-4.5q2.2-1.2 1-6zM332.5 334l.5 4.5-1.5 6.5-.5-5.5zM384.5 334l.5 8.5h-1zM443.5 334l.5 3.5-1.5 8.5-.5-7.5zM541.5 334l.5 2.5h-1zM591.5 334l.5 2.5h-1zM375.5 335l.5 6.5h-1zM470.5 335l.5 2.5h-1zM297.5 336l.5 2.5h-1zM359.5 336l.5 2.5h-1zM411.5 336l.5 3.5h-1zM600.5 336l.5 4.5h-1zM689.5 336l.5 2.5h-1zM662.5 337l.5 2.5h-1zM725.5 337l.5 2.5h-1zM531.5 338l.5 4.5h-1zM636.5 338l.5 3.5h-1zM575.5 339l.5 4.5h-1zM322.5 340l.5 2.5h-1zM358.5 340l.5 2.5h-1zM469.5 340l.5 3.5h-1zM743.5 340l.5 8.5h-1zM715.5 341l.5 2.5h-1zM296.5 342l.5 4.5h-1zM410.5 342l.5 2.5h-1zM430.5 342l.5 4.5h-1zM513.5 342l.5 2.5h-1zM599.5 342l.5 2.5h-1zM438.5 343l.5 9.5h-1zM635.5 344l.5 2.5h-1zM752.5 344l.5 8.5h-1zM321.5 345l.5 2.5h-1zM539.5 345l.5 5.5-1.5 5.5-.5-4.5zM574.5 345l.5 4.5-2 1zM589.5 345l.5 2.5h-1zM651.5 345l.5 3.5h-1zM697.5 345l.5 2.5h-1zM714.5 346l.5 2.5h-1zM286.5 347l.5 3.5h-1zM330.5 347l.5 3.5h-1zM409.5 347l.5 2.5h-1zM441.5 347l.5 6.5h-1zM468.5 347l.5 3.5h-1zM598.5 347l.5 2.5h-1zM687.5 347l.5 2.5h-1zM723.5 347l.5 2.5h-1zM295.5 348l.5 4.5-2 1zM400.5 348l.5 2.5h-1zM503.5 348l.5 2.5h-1zM512.5 348l.5 5.5h-1zM374.5 349l.5 5.5h-1zM564.5 349l.5 2.5h-1zM383.5 350l.5 9.5h-1zM449.5 351l.5 5.5-1.5 4.5-.5-3.5zM588.5 351l.5 2.5h-1zM624.5 351l.5 2.5h-1zM573.5 352l.5 2.5h-1zM650.5 352l.5 2.5h-1zM686.5 352l.5 2.5h-1zM713.5 352l.5 2.5h-1zM399.5 353l.5 2.5h-1zM563.5 354l.5 2.5h-1zM294.5 355l.5 2.5h-1zM319.5 355l.5 2.5h-1zM344.5 355l.5 2.5h-1zM476.5 355l.5 4.5-2 1zM511.5 355l.5 3.5-2 1zM431.5 356l.5 6.5h-1zM587.5 356l.5 2.5h-1zM623.5 356l.5 2.5h-1zM649.5 356l.5 5.5-1.5 5.5-.5-4.5zM712.5 356l.5 6.5-1.5 5.5-.5-4.5zM528.5 357l.5 2.5h-1zM537.5 357l.5 4.5h-1zM284.5 358l.5 2.5h-1zM328.5 358l.5 2.5h-1zM685.5 358l.5 3.5-1.5 6.5-.5-5.5zM398.5 359l.5 3.5-1.5 4.5-.5-3.5zM501.5 359l.5 2.5h-1zM440.5 360l.5 2.5h-1zM466.5 360l.5 2.5h-1zM587.5 360l-.5 1.5-1.5 10.5-.5-4.5q2.3-1.2 1-6zM632.5 360l.5 2.5h-1zM293.5 361l.5 2.5h-1zM318.5 361l.5 2.5h-1zM510.5 361l.5 3.5h-1zM342.5 362l.5 3.5h-1zM447.5 362l.5 4.5h-1zM475.5 362l.5 3.5-1.5 6.5-.5-5.5zM622.5 362l.5 3.5h-1zM327.5 363l.5 2.5h-1zM352.5 363h21q1.3.3.5 6.5h-1q.6-5.4-.5-5.5h-20l-1.5.5zM571.5 363l.5 2.5h-1zM595.5 363l.5 2.5h-1zM753.5 363l.5 14.5h-1zM406.5 364l.5 2.5h-1zM439.5 364l.5 5.5h-1zM500.5 364l.5 2.5h-1zM536.5 364l.5 2.5h-1zM561.5 365l.5 2.5h-1zM292.5 366l.5 3.5h-1zM382.5 366l.5 5.5h-1zM317.5 367l.5 2.5h-1zM509.5 367l.5 2.5h-1zM621.5 367l.5 5.5h-1zM350.5 368l.5 2.5-2.5 7.5-.5-2.5zM432.5 368l.5 14.5h-1zM526.5 368l.5 2.5h-1zM570.5 368l.5 2.5h-1zM744.5 368l.5 10.5h-1zM282.5 369l.5 2.5h-1zM341.5 369l-.5 1.5-.5 2.5-.5-2.5zM446.5 369l.5 2.5h-1zM535.5 369l.5 2.5h-1zM656.5 369l.5 13.5h-1zM396.5 370l.5 3.5h-1zM499.5 370l.5 1.5-1.5 2.5-.5-1.5zM560.5 370l.5 2.5h-1zM719.5 370l.5 5.5-2.5 10.5-.5-3.5zM316.5 371l.5 5.5h-1zM647.5 371l.5 2.5h-1zM710.5 371l.5 2.5h-1zM692.5 372l.5 3.5-2 1zM281.5 373l.5 4.5h-1zM325.5 373l.5 2.5h-1zM473.5 373l.5 2.5h-1zM534.5 374l.5 2.5h-1zM372.5 375l.5 9.5h-1zM404.5 375l.5 5.5h-1zM463.5 375l.5 3.5h-1zM593.5 375l.5 3.5h-1zM629.5 376l.5 2.5h-1zM315.5 378l.5 3.5h-1zM496.5 378l-.5 1.5-.5 1.5-.5-1.5zM691.5 378l.5 1.5-1.5 3.5-.5-2.5zM324.5 379l.5 2.5h-1zM472.5 379l.5 2.5h-1zM524.5 379l.5 3.5-1.5 5.5-.5-4.5zM533.5 379l.5 2.5h-1zM280.5 380l.5 3.5h-1zM337.5 380l.5 2.5h-1zM444.5 380l.5 2.5h-1zM628.5 380l.5 2.5h-1zM708.5 381l.5 2.5h-1zM381.5 382l.5 7.5h-1zM403.5 382l.5 2.5h-1zM504.5 382l-.5 1.5-1 3.5-2-.5zM556.5 382l-2 3zM394.5 383l.5 2.5h-1zM585.5 383l2.5 6.5-2-1zM433.5 384l.5 10.5 1 1-2-1zM279.5 385l.5 4.5h-1zM323.5 385l.5 5.5-2.5 5.5.5-1.5zM532.5 385l.5 2 15 .5-16 .5zM678.5 385l-2 3-8 2v-1q7 0 10-4ZM461.5 386l.5 3.5-1.5 6.5-.5-5.5zM565.5 386l-1 2zM615.5 386l-1 2-7 2 1-2q5.3.8 7-2ZM626.5 386l-1 2zM754.5 386l.5 9.5h-1zM288.5 387l.5 3.5h-1zM471.5 387l10.5.5-10.5.5zM598.5 387l6.5 2.5-1.5.5-5-2zM660.5 387l4.5 1.5-2.5.5zM402.5 388l.5 3.5-1 4.5-2-.5zM523.5 389l-.5 1.5-.5 5.5-.5-5.5zM624.5 389l-5 6zM649.5 389l3.5 4.5-2-1zM686.5 389l-1 2zM716.5 389l.5 3.5h-1zM334.5 390l.5 3.5-.5 2.5q-2.7-1.2-.5-2.5zM497.5 390l-1 2zM561.5 390l-1 2zM588.5 391l6.5 4.5-1.5.5zM371.5 392l1.5 3.5-2-1zM494.5 392l-1 2-4 1v-1zM683.5 392l-3 4-1.5-.5zM706.5 392l.5 3.5h-1zM343.5 393l.5 1.5-2 1zM553.5 394l2.5.5q-2.7 2.3-8.5 1.5v-1q4.7 1.3 6-1ZM654.5 394l2.5 1.5-1.5.5zM483.5 395l4.5.5-4.5.5zM600.5 397l2.5.5-2.5.5zM608.5 397l2.5.5-2.5.5zM662.5 397l2.5.5-2.5.5zM670.5 397l3.5.5-3.5.5zM454.5 459l5.5.5-5.5.5zM476.5 459q6.4.1 8.5 4.5l1 3h-1l-3.5-5.5-5-1-1.5.5zM624.5 459l3.5.5q-4.7-.2-6 3l-1.5 2.5.5-1.5 1-3.5zM643.5 459l3.5.5-4.5 1.5zM396.5 460h8.5v16.5h-1V461h-7.5zM418.5 460h6.5v2.5h-1l-.5-1.5H418l-1.5 4-.5-1.5zM435 460h8v2.5h-1l-.5-1.5H436l-2.5 7-.5-1.5zM450.5 460l1.5.5-6.5 4.5 3-4zM461.5 460h3l5.5 4.5-2.5-1.5q-1.4-2.6-6-2zM493 460h9v10.5h-1V461h-7l1 2.5-2-1zM504 460l13 .5-12 .5v29h11.5v1h-11l-1.5-1.5zM518.5 460l6.5 2.5-1.5-.5-5-1zM533 460l10 .5-9 .5v29h12.5v1h-12l-1.5-1.5zM551.5 460q4.5-1 5.5 1.5 1.3 5.3-1.5 6.5l-6.5-3.5 1.5.5 5.5 2v-6h-4.5zM560.5 460h20l4.5 3.5-.5 1.5-2-3-2-1H560v28.5l.5.5h5.5l.5-28 1 14 2.5-1.5-2 3q3.3 8.2 10.5 12.5l6.5.5-6.5.5-2.5-1-8.5-12-.5 11.5-1.5 1.5q-5.2 1.3-6.5-1.5v-28zM588.5 460l5.5.5-6 .5-.5 3-.5-2.5zM629.5 460l1.5 2.5-2-1zM648.5 460l2 3zM660.5 460h8l.5.5v29l-2 1 1-1V461h-7.5zM672 460l7 .5-6.5 1.5zM683.5 460q5.4-.9 7.5 1.5l-1.5.5q-1.2-2.3-6-1zM455.5 462h4l5.5 5.5-5.5-4.5q-5 1-4-1ZM453.5 463l-3 4z" opacity=".039"/><path fill="#f2f5f6" stroke="#f2f5f6" d="m511.5 463 .5 24 5 .5-6 .5zM526.5 463l4.5 6.5h-1zM545.5 463l2.5.5-2.5.5zM575.5 463l3.5 2.5q.8 5.8-3.5 6.5l2.5-3.5q.8-3.7-1.5-4.5zM672.5 463l.5 23.5h-1zM685.5 463l5.5 3.5-1.5-.5q-4.7-.8-4-3ZM441.5 464l.5 1.5-1 3h1l1.5-2.5-.5 1.5-1.5 3.5-1.5-4.5zM520.5 464l3.5 3.5 1 10h-1l-1-10zM623.5 464q2.3-.7 1.5 1.5l1 2h-1l-1.5-2.5-1 2-.5-1.5zM661.5 464l1.5 2.5h-1zM352.5 465l-.5 1.5-.5 1.5-.5-1.5zM477.5 465l3.5 4.5-3-1-.5 3.5-.5-3.5v-2zM361.5 466l4.5 3.5q1.3 5.3-1.5 6.5l.5-1.5q1.3-6.2-2.5-7.5zM397.5 466l2.5 7.5h-1zM415.5 466l.5 2.5-1.5 3.5-.5-2.5zM470.5 466l1 2zM645.5 466l1 2zM422.5 467l.5 10.5h-1zM653.5 467l1 2zM449.5 468l.5 2.5q-2.8 1.8-1 8l1 3h-1l-1-10zM584.5 468l.5 1.5-4.5 3.5v-1l3.5-2.5zM355.5 469q5.3-1.2 6.5 1.5l-1.5 4.5-.5-1.5 1-3.5h-5.5zM432.5 469l.5 2.5h-1zM487.5 469l1 2zM368.5 470l3.5 1.5-.5 1.5-.5-2q-3.3.8-2.5-1ZM379.5 470q3.3-1.1 2.5 1.5l-1.5-.5-2 1zM439.5 470l.5 1.5-2.5 5.5-.5-1.5zM655.5 470l1.5 2.5h-1zM473.5 471l.5 2.5h-1zM497.5 471l.5 2.5h-1zM547.5 471l-1 2zM489.5 472l1 2zM620.5 472l.5 5h7.5l1-1 .5 2h-10zM699.5 472l.5 5.5h-1zM381.5 473l.5 1.5-1.5 2.5-.5-1.5zM440.5 473l.5 2.5h-1zM482.5 473l1 2zM645.5 473l.5 2.5h-1zM649.5 473l2.5 3.5-2-1zM368.5 474l1.5 4.5h-1zM540 474l2 .5-.5 1.5 2.5.5-4 .5zM575.5 474l1.5.5-3 2 1.5 2.5q-5-2.5 0-5ZM657.5 474l1 2zM484.5 476l1 2zM498.5 476l.5 8.5-5-4-1-2 2 1 2.5 3.5zM636.5 476l2.5 7.5h-1zM659.5 477l6.5 7.5-4-3zM678.5 477l.5 4.5h-1zM360.5 478l2.5 3.5-1 2.5-5-.5 5-2zM418 478l2 .5-2 1zM646.5 478l1.5 5.5h-1zM366.5 479l.5 3.5h-1zM374 479l2 .5-2 1zM441.5 479q.8 5.3 4.5 7.5l-4-3zM501.5 480l.5 7.5h-1zM523.5 480l.5 2.5-2.5 3.5.5-1.5zM530.5 480l.5 2.5-6 5zM620.5 480l.5 9.5q-1.5 3-7.5 1.5v-1h6.5zM487.5 481l3.5 4.5-3-2zM554.5 482q3.3-1.1 2.5 1.5l-1.5-.5-3 2zM578.5 482l6.5 5-.5 2zM587.5 482l.5 2.5h-1zM608.5 482q4.2-1.3 2.5 3.5h-1q1.1-3.3-1.5-2.5l-2.5 1.5zM655.5 482l5.5 6.5-3-2zM377.5 483l.5 2.5-4.5 7.5-2.5-.5 4-2zM421.5 483l1.5 2.5-2-1zM434.5 483l.5 1.5-2 1zM471.5 483l-2 3zM697.5 483l-2 3zM365.5 484l-1 2zM403.5 484l1 2zM450.5 484l7 4 6-4-3 4-4 1q-5-1.5-6-5ZM372.5 485l.5 2.5-2 1zM426.5 485l.5 2-2-.5zM556.5 485l.5 4.5q-1.2 2.8-6.5 1.5v-1h5.5zM648.5 485l1 2zM482.5 486l1.5 3.5q-1.5 3-7.5 1.5l-1-2 1 1h6.5zM546.5 486l2.5.5-2.5.5zM600.5 486l2.5.5-2.5.5zM686.5 486l1.5.5q-2.4 2.6-8.5 1.5v-1q5.5 1.5 7-1ZM405.5 487l2 3 2.5.5-2.5.5q-3.6-1.1-2-4ZM423.5 487l2 3 2.5.5-2.5.5q-3.6-1.1-2-4ZM432.5 487l.5 1.5-3.5 2.5v-1l2.5-1.5zM540.5 487l4.5.5-4.5.5zM594.5 487l4.5.5-4.5.5zM640.5 487l.5 2.5q-1 2.5-5.5 1.5v-1q6 1.9 5-3ZM692.5 487l-1 2-1.5-.5zM610.5 488l.5 1.5-3.5 1.5v-1q3.5 1 3-2ZM650.5 488l.5 1.5q-1.5 3-7.5 1.5v-1q7.3 1.5 7-2ZM672.5 488l.5 2 11 .5-10.5.5zM369.5 489l-1 2zM413.5 489l-1 2-1.5-.5zM495.5 489l2.5 1.5-1.5.5zM501.5 489l-1 2zM662.5 489l2.5 1.5-1.5.5zM452.5 490l2.5.5-2.5.5zM459.5 490l2.5.5-2.5.5zM588.5 490l12.5.5-12.5.5zM602.5 490l3.5.5-3.5.5z" opacity=".039"/><path fill="#fcfdfe" stroke="#fcfdfe" d="m349 179 5 .5-4 .5-.5 14zM517.5 179q6-1.5 7.5 1.5l-1.5 3.5-5 1 1-2q6.3 1.9 4.5-3h-6.5zM623.5 179l2.5 1.5v23l-1.5 1.5q-3.7.8-4.5-1.5l1.5.5 3.5-.5V180zM689.5 179l4.5.5-4.5.5zM515.5 180l-2 3zM663.5 180q3.8-.7 4.5 1.5v3.5h6.5v1q-6 1.5-7.5-1.5 1.8-5.2-3.5-3.5zM329.5 182l.5 3.5q-1.2 2.5-5 1.5l-.5 4-.5-3.5q1.2-2.5 5-1.5zM662.5 182l.5 4-4.5 1 1-2q4 1.1 3-3ZM538.5 185l7.5.5-7.5.5zM559.5 185l3.5 1.5-.5 11.5-.5-12-3.5 1zM571.5 185l2.5.5-3 .5-.5 13-.5-12.5zM584.5 185l3.5 1.5-1.5-.5q-3 .5-2-1ZM591.5 185q7.3-1.2 8.5 3.5l-3.5-2.5q-6 1.3-5-1ZM612.5 185l5.5.5-5.5.5zM683.5 185h9l1.5 1.5-1.5-.5H683v3.5h-1q-.7-3.7 1.5-4.5ZM713.5 185l6.5.5-6.5.5zM733.5 185q3.8-.7 4.5 1.5l-1.5-.5q-4 .8-3-1ZM740.5 185q8-1.5 9.5 3.5l-3.5-2.5q-5.5-1.5-7 1zM305.5 186l5.5.5-5.5.5zM334.5 186q6-1.5 7.5 1.5l-.5 1.5-.5-2h-6.5zM357.5 186l4.5.5-7.5 1.5v-1zM380.5 186l5.5.5-5.5.5zM409.5 186l4.5.5-4.5.5zM430.5 186l5.5.5-5.5.5zM479.5 186l2.5.5-3.5 1.5zM487.5 186l2.5.5-2.5.5zM536.5 186l-2.5 3.5-.5 1.5-.5-1.5zM547.5 186l2 3zM610.5 186l-2 3zM636.5 186l-2 3zM647.5 186l1 2zM313.5 187l2 3zM400.5 187l.5 18h4v-11.5h1v11l-1.5 1.5q-3.7.8-4.5-1.5zM415.5 187l1 2zM449.5 187l.5 14.5h-1zM461.5 187l.5 12.5h-1zM472.5 187l.5 17.5 1 1-2-1zM491.5 187l1.5 2.5h-1zM376.5 188l-1 2zM389.5 188l1 2zM426.5 188l-1 2zM525.5 188l.5 3.5q-1.5 3-7.5 1.5v-1h6.5zM558.5 188l.5 6.5h-1zM540.5 189l2.5.5-2.5.5zM590.5 189l3.5.5-3.5.5zM639.5 189l-2 3zM660.5 189l2.5 1.5-.5 9.5-.5-10zM715.5 189l2.5.5-2.5.5zM724.5 189l1.5 2.5h-1zM732.5 189l.5 13.5h-1zM740.5 189q4.8-.7 5.5 2.5v12l4 .5.5-14 .5 13.5q-.7 2.3-4.5 1.5l-1.5-1.5v-12l-1.5-1.5q-4 .8-3-1ZM300.5 190l-.5 1.5-.5 1.5-.5-1.5zM357.5 190l2.5.5-2.5.5zM408.5 190l2.5.5-2.5.5zM417.5 190l-1 2zM478.5 190l2.5 1.5-1.5-.5-2 1zM486.5 190l-1 2zM538.5 190l-1 2zM544.5 190q3.8 1.3 2.5 7.5h-1q.8-6.2-1.5-7.5ZM600.5 190l.5 13.5q-1.2 2.5-5 1.5l.5-2 3.5 1zM633.5 190l2.5 1.5-1.5.5zM667.5 190l.5 8.5h-1zM688.5 190l1 2zM713.5 190l-1 2zM719.5 190l1 2zM304.5 191l-.5 1.5.5 1.5h7.5l-1-2.5 2 1-1.5 2.5h-8l-.5-2.5zM355.5 191l-.5 1.5-.5 1.5-.5-1.5zM379.5 191l-.5 1.5.5 1.5h7l1.5-.5-1.5 1.5H378zM412.5 191l2.5 1.5-1.5.5zM429.5 191l-.5 1.5.5 1.5h7.5l-1-2.5 2 1-1.5 2.5h-8l-.5-2.5zM329.5 192l.5 10.5 2 2-3-2zM532.5 192l.5 6.5h-1zM551.5 192l.5 5.5h-1zM737.5 192l.5 11.5q-.7 2.3-4.5 1.5v-1l3.5-.5z" opacity=".557"/><path fill="#fcfdfe" stroke="#fcfdfe" d="m317.5 193 .5 5-14-.5 13-.5zM373.5 193l.5 5.5h-1zM587.5 193l.5 10.5q-.7 2.3-4.5 1.5v-1h3.5zM639.5 193l3.5.5-3.5.5zM721.5 193l.5 3.5h-1zM423.5 194l.5 5.5h-1zM442.5 194l.5 4-14-.5 13-.5zM517.5 194l.5 11-5-.5 4-.5zM536.5 194l.5 2.5h-1zM606.5 194l.5 2.5h-1zM711.5 194l.5 2.5h-1zM298.5 195l.5 2.5h-1zM362.5 195l.5 10 4 .5-5 .5zM392.5 195l.5 1.5-1.5 1.5h-12v-1h12zM635.5 195l-1.5 2.5q-1 5.5 2.5 6.5l1.5.5-1.5.5q-4.5-1-3.5-7.5zM644.5 195l1.5 2.5h-1zM638.5 197l-.5 1.5-.5 1.5-.5-1.5zM707.5 197l1.5 3.5-2-1zM725.5 198l.5 1.5-2.5 3.5.5-1.5z" opacity=".557"/><path fill="#fcfdfe" stroke="#fcfdfe" d="m366.5 199 .5 4.5h-1zM563.5 199l1 2zM607.5 199l4.5 5.5-5-4zM612.5 199l1 2zM619.5 199l-1 2-1.5-.5zM644.5 199l-1 2zM299.5 200l3.5 4.5-4-3zM312.5 200l-1 2zM314.5 200l1 2zM334.5 200l6.5 2.5-1.5 3.5.5-1.5q1.4-4.6-4.5-2.5zM374.5 200l3.5 4.5-4-3zM387.5 200l-1 2zM389.5 200l1 2zM437.5 200l-1 2-1.5-.5zM439.5 200l1 2zM454.5 200l1 2zM533.5 200l3 4zM682.5 200l5.5.5-5.5.5zM694.5 200l6.5.5-6.5.5zM424.5 201l3 4zM549.5 201l-2 3zM639.5 201l2.5.5-2.5.5zM663.5 201l1.5 2.5-2-1zM307.5 202l2.5.5-2.5.5zM450.5 203l2 3zM569.5 203l5.5 1.5-3.5.5-2-1-1.5.5zM721.5 203l-1 2-1.5-.5zM647.5 204l2.5.5-2.5.5zM666.5 204l7.5.5-7.5.5zM682.5 204l18.5.5-18.5.5zM349.5 205l4.5.5-4.5.5zM563.5 205l2.5.5-2.5.5zM635.5 229l2.5.5-2.5.5zM686.5 229l2.5.5-2.5.5zM697.5 229l2.5.5-2.5.5zM308 230l7 .5-6.5 1.5zM343.5 230h6.5v3.5h-1V231h-6l-.5 2-.5-1.5zM382.5 230h7.5v7.5h-1q3.3-9.7-6.5-6.5zM423.5 230q4.5-1 5.5 1.5l-.5 3.5-.5-4-5.5 1zM463 230h7v4.5h-1q1.8-5.7-4.5-3.5l-1.5.5zM490 230l23 .5-21.5.5-1 1zM552.5 230l23.5.5-23.5.5zM736.5 230l4.5.5-4.5.5zM773.5 230q7-1.5 6.5 1.5l-4.5 7.5.5-1.5 3-6-5.5-.5-1.5.5zM642.5 231l1 2zM617.5 232l-3 4zM706.5 232l2 3zM583.5 233l5.5 7.5h-1zM645.5 233l1 2zM678.5 233l-1 2zM735.5 233l.5 3.5h-1zM742.5 233l.5 3.5h-1zM307.5 234l.5 2.5h-1zM462.5 234l.5 2.5h-1zM314.5 235l.5 2.5h-1zM421.5 235l.5 2.5h-1zM489.5 235l.5 2.5h-1zM687.5 235l2.5.5-2.5.5zM770.5 235l-.5 1.5-1.5 3.5-.5-1.5zM497.5 236l9.5.5-9.5.5-1 1zM558.5 236l-.5 1.5-.5 1.5-.5-1.5zM570.5 236l3.5.5-3.5.5zM647.5 236l1 2zM348.5 237l.5 2.5h-1zM510.5 237l5.5 2.5-1.5-.5-4-1zM621.5 237l-3 4zM639.5 237l2 3zM675.5 237l-1 2zM683.5 237l-2 3zM701.5 237l3 4zM524.5 238l1 2zM578.5 238l2 3zM384.5 239l.5 7.5h-1l-1-5zM461.5 239l.5 2.5h-1zM734.5 239l.5 3.5h-1zM741.5 239l.5 3.5h-1zM313.5 240l.5 2.5h-1zM429.5 240l.5 6.5h-1zM340.5 241l.5 3.5h-1zM420.5 241l.5 2.5h-1zM488.5 241l.5 2.5h-1zM495.5 241l.5 2.5h-1zM680.5 241l-.5 1.5-1.5 3.5-.5-1.5zM347.5 242l.5 3.5h-1zM589.5 242l.5 11.5h-1zM650.5 242l.5 2.5h-1zM549.5 243l.5 2.5h-1zM643.5 243l.5 10.5h-1zM382.5 245l.5 2.5h-1zM424 245l2 .5v11h-1q1.1-8.2-1-11.5ZM460.5 245l.5 2.5h-1zM582.5 245l.5 6.5h-1zM733.5 245l.5 3.5h-1zM740.5 245l.5 2.5h-1zM765.5 245l-1 2zM312.5 246l.5 2.5h-1zM388.5 246l.5 9.5h-1zM419.5 246l.5 3.5h-1zM487.5 246l.5 2.5h-1zM339.5 247l.5 2.5h-1zM670.5 247l.5 2.5h-1zM677.5 247l.5 2.5h-1zM346.5 248l.5 3.5h-1zM555.5 248l.5 2.5h-1zM381.5 249l.5 3.5h-1zM383.5 249l.5 5.5h-1zM466.5 249l.5 2.5h-1zM528.5 249l.5 4.5h-1zM304.5 250l.5 3.5h-1zM423.5 250l.5 2.5h-1zM739.5 250l.5 3.5h-1zM311.5 251l.5 2.5h-1zM607.5 251l.5 2.5h-1zM614.5 251l.5 2.5h-1zM732.5 251l.5 2.5h-1zM418.5 252l.5 3.5h-1zM650.5 252l.5 3.5h-1zM669.5 252l.5 2.5h-1zM676.5 252l.5 2.5h-1zM705.5 252l.5 3.5h-1zM338.5 253l.5 3.5h-1zM554.5 253l.5 3.5h-1zM345.5 254l.5 2.5h-1zM380.5 254l.5 2.5h-1zM465.5 254l.5 2.5h-1zM547.5 254l.5 3.5h-1zM430.5 255l.5 5.5h-1zM581.5 255l.5 3.5h-1zM303.5 256l.5 2.5h-1zM458.5 256l.5 2.5h-1zM588.5 256l.5 3.5h-1zM606.5 256l.5 2.5h-1zM613.5 256l.5 3.5h-1zM310.5 257l.5 3.5h-1zM492.5 257l.5 2.5h-1zM520.5 257l.5 2.5h-1zM642.5 257l.5 2.5h-1zM731.5 257l.5 2.5h-1zM382.5 258l.5 3.5h-1zM527.5 258l.5 2.5h-1zM649.5 258l.5 3.5h-1zM704.5 258l.5 2.5h-1zM337.5 259l.5 3.5h-1zM417.5 259l.5 2.5h-1zM422.5 259l.5 2.5h-1zM553.5 259l.5 3.5h-1zM344.5 260l.5 2.5h-1zM464.5 260l.5 2.5h-1zM546.5 260l.5 2.5h-1zM580.5 260l.5 3.5h-1zM457.5 261l.5 2.5h-1zM605.5 261l.5 3.5h-1zM302.5 262l.5 3.5h-1zM491.5 262l.5 3.5h-1zM519.5 262l.5 3.5h-1zM587.5 262l.5 2.5h-1zM309.5 263l.5 3.5h-1zM484.5 263l.5 2.5h-1zM641.5 263l.5 2.5h-1zM387.5 264l.5 6.5h-1zM416.5 264l.5 2.5h-1zM526.5 264l.5 3.5h-1zM552.5 264l.5 4.5h-1zM648.5 264l.5 2.5h-1zM336.5 265l.5 2.5h-1zM343.5 265l.5 3.5h-1zM463.5 265l.5 3.5h-1zM545.5 265l.5 3.5h-1zM421.5 266l.5 3.5h-1zM301.5 267l.5 3.5h-1zM381.5 267l.5 3.5h-1zM431.5 267l.5 5.5h-1zM456.5 267l.5 2.5h-1zM579.5 267l.5 2.5h-1zM483.5 268l.5 3.5h-1zM518.5 268l.5 3.5h-1zM586.5 268l.5 2.5h-1zM729.5 268l.5 2.5h-1zM753.5 268l-.5 1.5-.5 1.5-.5-1.5zM308.5 269l.5 3.5h-1zM490.5 269l.5 2.5h-1zM335.5 270l.5 3.5h-1zM415.5 270l.5 2.5h-1zM525.5 270l.5 2.5h-1zM709.5 270l.5 2.5h-1zM544.5 271l.5 3.5h-1zM551.5 271l.5 2.5h-1zM455.5 272l.5 4.5h-1zM462.5 272l.5 2.5h-1zM751.5 272l-.5 1.5-.5 1.5-.5-1.5zM578.5 273l.5 2.5h-1zM735.5 273l.5 2.5h-1zM300.5 274l.5 2.5h-1zM426.5 274l.5 8.5h-1zM482.5 274l.5 3.5h-1zM489.5 274l.5 3.5h-1zM517.5 274l.5 3.5h-1zM672.5 274l.5 2.5h-1zM307.5 275l.5 2.5h-1zM414.5 275l.5 2.5h-1zM420.5 275l.5 3.5h-1zM524.5 276l.5 2.5h-1zM708.5 276l.5 2.5h-1zM341.5 277l.5 2.5h-1zM380.5 277l.5 5.5h-1zM461.5 277l.5 3.5h-1zM543.5 277l.5 2.5h-1zM550.5 277l.5 2.5h-1zM602.5 278l.5 2.5h-1zM734.5 278l.5 2.5h-1zM299.5 279l.5 2.5h-1zM454.5 279l.5 2.5h-1zM584.5 279l.5 2.5h-1zM609.5 279l.5 2.5h-1zM638.5 279l.5 2.5h-1zM664.5 279l.5 2.5h-1zM727.5 279l.5 2.5h-1zM386.5 280l.5 7.5h-1zM481.5 280l.5 2.5h-1zM516.5 280l.5 3.5h-1zM645.5 280l.5 3.5h-1zM671.5 280l.5 2.5h-1zM700.5 280l.5 2.5h-1zM432.5 281l.5 5.5h-1zM488.5 281l.5 2.5h-1zM707.5 281l.5 2.5h-1zM419.5 282l.5 4.5h-1zM753.5 282l-.5 1.5-1.5 3.5-.5-1.5zM460.5 283l.5 2.5h-1zM542.5 283l.5 2.5h-1zM583.5 284l.5 2.5h-1zM601.5 284l.5 2.5h-1zM608.5 284l.5 3.5h-1zM663.5 284l.5 2.5h-1zM726.5 284l.5 3.5h-1zM733.5 284l.5 3.5h-1zM298.5 285l.5 2.5h-1zM453.5 285l.5 2.5h-1zM670.5 285l.5 3.5h-1zM699.5 285l.5 2.5h-1zM305.5 286l.5 2.5h-1zM412.5 286l.5 3.5h-1zM480.5 286l.5 2.5h-1zM487.5 286l.5 2.5h-1zM515.5 286l.5 2.5h-1zM644.5 286l.5 2.5h-1zM522.5 287l.5 2.5h-1zM706.5 287l.5 3.5h-1zM743.5 287l.5 1.5-4.5 7.5.5-1.5zM339.5 288l.5 2.5h-1zM459.5 288l.5 2.5h-1zM548.5 288l.5 2.5h-1zM750.5 288l-.5 1.5-.5 1.5-.5-1.5zM418.5 289l.5 3.5h-1zM600.5 289l.5 2.5h-1zM607.5 289l.5 3.5h-1zM662.5 289l.5 4.5h-1zM297.5 290l.5 2.5h-1zM427.5 290l.5 7.5h-1zM452.5 290l.5 2.5h-1zM636.5 290l.5 2.5h-1zM725.5 290l.5 3.5h-1zM732.5 290l.5 3.5h-1zM479.5 291l.5 2.5h-1zM669.5 291l.5 2.5h-1zM698.5 291l.5 3.5h-1zM411.5 292l.5 2.5h-1zM486.5 292l.5 2.5h-1zM643.5 292l.5 3.5h-1zM705.5 292l.5 4.5h-1zM331.5 293l.5 2.5h-1zM379.5 293l.5 5.5h-1zM433.5 293l.5 6.5h-1zM547.5 293l.5 2.5h-1zM338.5 294l.5 2.5h-1zM458.5 294l.5 2.5h-1zM540.5 294l.5 2.5h-1zM749.5 294l.5 13.5h-1zM417.5 295l.5 3.5h-1zM599.5 295l.5 3.5h-1zM296.5 296l.5 2.5h-1zM580.5 296l.5 1.5-2.5 3.5.5-1.5zM606.5 296l.5 2.5h-1zM635.5 296l.5 2.5h-1zM661.5 296l.5 3.5h-1zM724.5 296l.5 3.5h-1zM731.5 296l.5 2.5h-1zM303.5 297l.5 2.5h-1zM385.5 297l.5 5.5h-1zM410.5 297l.5 3.5h-1zM478.5 297l.5 2.5h-1zM572.5 297l.5 1.5-5 4zM668.5 297l.5 2.5h-1zM697.5 297l.5 2.5h-1zM743.5 297l-1 2zM330.5 298l.5 3.5h-1zM642.5 298l.5 2.5h-1zM337.5 299l.5 3.5h-1zM546.5 299l.5 2.5h-1zM704.5 299l.5 2.5h-1zM295.5 301l.5 3.5h-1zM416.5 301l.5 2.5h-1zM428.5 301l.5 10.5h-1zM598.5 301l.5 2.5h-1zM634.5 301l.5 3.5h-1zM302.5 302l.5 3.5h-1zM477.5 302l.5 2.5h-1zM512.5 302l.5 2.5h-1zM605.5 302l.5 2.5h-1zM660.5 302l.5 2.5h-1zM723.5 302l.5 2.5h-1zM730.5 302l.5 2.5h-1zM409.5 303l.5 3.5h-1zM484.5 303l.5 2.5h-1zM519.5 303l.5 2.5h-1zM641.5 303l.5 3.5h-1zM696.5 303l.5 2.5h-1zM743.5 303l.5 23.5h-1zM329.5 304l.5 3.5h-1zM574.5 304l-1 2zM434.5 305l.5 7.5h-1zM456.5 305l.5 2.5h-1zM538.5 305l.5 2.5h-1zM336.5 306l.5 2.5h-1zM378.5 306l.5 5.5h-1zM597.5 306l.5 3.5h-1zM415.5 307l.5 2.5h-1zM449.5 307l.5 2.5h-1zM604.5 307l.5 2.5h-1zM511.5 308l.5 2.5h-1zM633.5 308l.5 2.5h-1zM659.5 308l.5 2.5h-1zM666.5 308l.5 2.5h-1zM722.5 308l.5 2.5h-1zM408.5 309l.5 3.5h-1zM483.5 309l.5 2.5h-1zM518.5 309l.5 2.5h-1zM695.5 309l.5 2.5h-1zM365.5 310l.5 2.5h-1zM455.5 311l.5 2.5h-1zM537.5 311l.5 2.5h-1zM335.5 312l.5 2.5h-1zM384.5 312l.5 9.5h-1zM414.5 312l.5 2.5h-1zM448.5 312l.5 2.5h-1zM544 312l2 .5-2 1zM555.5 312l3.5.5-3.5.5zM571.5 312l2 3zM293.5 313l.5 3.5h-1zM475.5 313l.5 3.5h-1zM603.5 313l.5 2.5h-1zM632.5 313l.5 2.5h-1zM482.5 314l.5 3.5h-1zM510.5 314l.5 2.5h-1zM517.5 314l.5 3.5h-1zM694.5 314l.5 2.5h-1zM407.5 315l.5 2.5h-1zM639.5 315l.5 2.5h-1zM543.5 316l.5 3.5h-1zM327.5 317l.5 2.5h-1zM334.5 317l.5 2.5h-1zM429.5 317l.5 7.5h-1zM435.5 317l.5 10.5h-1zM447.5 317l.5 3.5h-1zM454.5 317l.5 2.5h-1zM536.5 317l.5 2.5h-1zM413.5 318l.5 2.5h-1zM595.5 318l.5 2.5h-1zM726.5 318l1.5 3.5-2 1zM750.5 318l.5 16.5h-1zM292.5 319l.5 2.5h-1zM509.5 319l.5 3.5h-1zM631.5 319l.5 2.5h-1zM299.5 320l.5 2.5h-1zM377.5 320l.5 5.5h-1zM481.5 320l.5 3.5h-1zM516.5 320l.5 3.5h-1zM700.5 321l.5 2.5h-1zM326.5 322l.5 2.5h-1zM355.5 322l.5 2.5h-1zM453.5 322l.5 3.5h-1zM535.5 322l.5 3.5h-1zM576.5 322l.5 7.5h-1zM446.5 323l.5 4.5h-1zM542.5 323l.5 2.5h-1zM601.5 324l.5 2.5h-1zM656.5 324l.5 2.5h-1zM663.5 324l.5 2.5h-1zM291.5 325l.5 2.5h-1zM473.5 325l.5 3.5h-1zM508.5 325l.5 2.5h-1zM405.5 326l.5 2.5h-1zM480.5 326l.5 2.5h-1zM515.5 326l.5 2.5h-1zM637.5 326l.5 2.5h-1zM325.5 328l.5 2.5h-1zM383.5 328l.5 9.5h-1zM452.5 328l.5 2.5h-1zM541.5 328l.5 2.5h-1zM411.5 329l.5 2.5h-1zM445.5 329l.5 2.5h-1zM534.5 329l.5 2.5h-1zM600.5 329l.5 2.5h-1zM290.5 330l.5 2.5h-1zM655.5 330l.5 2.5h-1zM662.5 330l.5 2.5h-1zM718.5 330l.5 2.5h-1zM297.5 331l.5 2.5h-1zM430.5 331l.5 6.5h-1zM472.5 331l.5 3.5h-1zM507.5 331l.5 2.5h-1zM636.5 331l.5 2.5h-1zM691.5 331l.5 2.5h-1zM436.5 332l.5 6.5h-1zM479.5 332l.5 3.5h-1zM514.5 332l.5 2.5h-1zM568.5 332l.5 2.5h-1zM698.5 332l.5 2.5h-1zM376.5 333l.5 9.5h-1zM451.5 334l.5 2.5h-1zM533.5 334l.5 2.5h-1zM540.5 334l.5 2.5h-1zM592.5 334l.5 2.5h-1zM410.5 335l.5 2.5h-1zM444.5 335l.5 3.5h-1zM599.5 335l.5 2.5h-1zM628.5 335l.5 2.5h-1zM654.5 335l.5 2.5h-1zM661.5 335l.5 3.5h-1zM717.5 335l.5 3.5h-1zM724.5 335l.5 3.5h-1zM289.5 336l.5 2.5h-1zM690.5 336l.5 3.5h-1zM403.5 337l.5 2.5h-1zM471.5 337l.5 2.5h-1zM506.5 337l.5 2.5h-1zM567.5 337l.5 2.5h-1zM635.5 337l.5 2.5h-1zM478.5 338l.5 2.5h-1zM697.5 338l.5 3.5h-1zM330.5 339l.5 3.5h-1zM574.5 339l.5 2.5h-1zM409.5 340l.5 3.5h-1zM532.5 340l.5 2.5h-1zM591.5 340l.5 2.5h-1zM744.5 340l.5 15.5h-1zM598.5 341l.5 2.5h-1zM627.5 341l.5 2.5h-1zM653.5 341l.5 2.5h-1zM716.5 341l.5 3.5h-1zM723.5 341l.5 3.5h-1zM295.5 342l.5 2.5h-1zM443.5 342l.5 3.5h-1zM470.5 342l.5 3.5h-1zM660.5 342l.5 2.5h-1zM689.5 342l.5 2.5h-1zM402.5 343l.5 2.5h-1zM431.5 343l.5 6.5h-1zM566.5 343l.5 2.5h-1zM634.5 343l.5 2.5h-1zM696.5 343l.5 4.5h-1zM751.5 343l.5 15.5h-1zM573.5 344l.5 3.5h-1zM322.5 345l.5 2.5h-1zM329.5 345l.5 2.5h-1zM382.5 345l.5 11.5h-1zM449.5 345l.5 2.5h-1zM590.5 345l.5 3.5h-1zM355.5 346l.5 2.5h-1zM408.5 346l.5 3.5h-1zM437.5 346l.5 18.5h-1zM531.5 346l.5 2.5h-1zM626.5 346l.5 3.5h-1zM652.5 346l.5 3.5h-1zM287.5 347l.5 2.5h-1zM597.5 347l.5 2.5h-1zM659.5 347l.5 2.5h-1zM688.5 347l.5 3.5h-1zM715.5 347l.5 2.5h-1zM722.5 347l.5 2.5h-1zM294.5 348l.5 2.5h-1zM401.5 348l.5 3.5h-1zM565.5 348l.5 2.5h-1zM633.5 348l.5 3.5h-1zM375.5 349l.5 5.5h-1zM476.5 349l.5 2.5h-1zM537.5 350l.5 3.5h-1zM572.5 350l.5 2.5h-1zM695.5 350l.5 2.5h-1zM328.5 351l.5 2.5h-1zM442.5 351l.5 2.5h-1zM448.5 351l.5 2.5h-1zM589.5 351l.5 3.5h-1zM407.5 352l.5 3.5h-1zM596.5 352l.5 2.5h-1zM625.5 352l.5 3.5h-1zM286.5 353l.5 2.5h-1zM293.5 353l.5 2.5h-1zM346.5 353l.5 2.5h-1zM651.5 353l.5 2.5h-1zM714.5 353l.5 2.5h-1zM721.5 353l.5 2.5h-1zM400.5 354l.5 3.5h-1zM510.5 354l.5 2.5h-1zM564.5 354l.5 2.5h-1zM632.5 354l.5 3.5h-1zM687.5 354l.5 2.5h-1zM694.5 355l.5 2.5h-1zM320.5 356l.5 3.5h-1zM327.5 356l.5 3.5h-1zM365.5 356l2.5.5-2.5.5zM447.5 356l.5 2.5h-1zM536.5 356l.5 3.5h-1zM571.5 356l.5 2.5h-1zM529.5 357l.5 2.5h-1zM406.5 358l.5 2.5h-1zM432.5 358l.5 4.5h-1zM441.5 358l.5 2.5h-1zM588.5 358l.5 2.5h-1zM595.5 358l.5 2.5h-1zM624.5 358l.5 2.5h-1zM292.5 359l.5 3.5h-1zM467.5 359l.5 2.5h-1zM509.5 359l.5 3.5h-1zM686.5 359l.5 2.5h-1zM713.5 359l.5 2.5h-1zM399.5 360l.5 3.5h-1zM474.5 360l.5 2.5h-1zM563.5 360l.5 3.5h-1zM631.5 360l.5 2.5h-1zM535.5 361l.5 4.5h-1zM570.5 361l.5 4.5h-1zM693.5 361l.5 2.5h-1zM319.5 362l.5 3.5h-1zM352.5 362h21l1.5 1.5-.5 10.5-.5-11h-21.5zM446.5 362l.5 2.5h-1zM528.5 362l.5 3.5h-1zM284.5 363l.5 4.5h-1zM326.5 363l.5 2.5h-1zM381.5 363l.5 10.5h-1zM587.5 363l.5 2.5h-1zM291.5 364l.5 4.5h-1zM405.5 364l.5 2.5h-1zM466.5 364l.5 3.5h-1zM501.5 364l.5 2.5h-1zM623.5 364l.5 2.5h-1zM649.5 364l.5 2.5h-1zM719.5 364l.5 2.5h-1zM508.5 365l.5 3.5h-1zM685.5 365l.5 2.5h-1zM398.5 366l.5 2.5h-1zM440.5 366l.5 2.5h-1zM473.5 366l.5 3.5h-1zM562.5 366l.5 2.5h-1zM445.5 367l.5 3.5h-1zM569.5 367l.5 3.5h-1zM318.5 368l.5 2.5h-1zM325.5 368l.5 2.5h-1zM527.5 368l.5 3.5h-1zM534.5 368l.5 3.5h-1zM745.5 368l.5 20.5h-1zM752.5 368l.5 16.5h-1zM283.5 369l.5 3.5h-1zM500.5 369l.5 2.5h-1zM593.5 369l.5 2.5h-1zM433.5 370l.5 4.5h-1zM465.5 370l.5 3.5h-1zM655.5 370l.5 2.5h-1zM711.5 370l.5 2.5h-1zM718.5 370l.5 2.5h-1zM290.5 371l.5 2.5h-1zM397.5 372l.5 2.5h-1zM472.5 372l.5 2.5h-1zM561.5 372l.5 2.5h-1zM444.5 373l.5 3.5h-1zM347.5 374l.5 2.5h-1zM439.5 374l.5 3.5-1.5 2.5-.5-1.5zM526.5 374l.5 3.5h-1zM533.5 374l.5 2.5h-1zM282.5 376l.5 2.5h-1zM289.5 376l.5 2.5h-1zM464.5 376l.5 3.5h-1zM498.5 376l.5 1.5-2 1zM717.5 376l.5 2.5h-1zM396.5 377l.5 2.5h-1zM471.5 377l.5 3.5h-1zM373.5 378l.5 9.5h-1zM443.5 379l.5 2.5h-1zM532.5 379l.5 3.5h-1zM323.5 380l.5 2.5h-1zM402.5 380l.5 2.5h-1zM496.5 380l-4 5zM525.5 380l.5 2.5h-1zM281.5 381l.5 2.5h-1zM338.5 381l.5 2.5h-1zM380.5 381l.5 8.5h-1zM558.5 381l-1 2zM709.5 381l.5 2.5h-1zM716.5 381l.5 3.5h-1zM288.5 382l.5 2.5h-1zM463.5 382l.5 2.5h-1zM688.5 383l.5 1.5-2 1zM434.5 384l.5 5.5h-1zM470.5 384l.5 4 11 .5-12 .5zM555.5 384l-1 2zM680.5 384l-4 5zM442.5 385l.5 2.5h-1zM501.5 385l-4 5zM531.5 385l.5 3.5h-1zM564.5 385l-1 2zM617.5 385l-3 4zM401.5 386l.5 2.5h-1zM524.5 386l.5 2.5h-1zM587.5 386l5.5 7.5-5-4zM708.5 386l.5 3.5h-1zM462.5 387l.5 3.5h-1zM715.5 387l.5 3.5h-1zM287.5 388l.5 2.5h-1zM394.5 388l.5 2.5h-1zM545.5 388l2.5.5-2.5.5zM562.5 388l-2 3-2 1 1-2zM321.5 390l.5 3.5h-1zM495.5 390l-1 2zM603.5 390l5.5.5-5.5.5zM651.5 390l3 4zM665.5 390l5.5.5-5.5.5zM684.5 390l-2 3zM400.5 391l.5 3.5h-1zM523.5 392l1.5 3.5-2-1zM707.5 392l.5 2.5h-1zM279.5 393l.5 2 2 .5-1.5.5zM461.5 393l.5 2 12 .5-11.5.5zM393.5 394l1 2zM548.5 394l2.5.5-2.5.5zM609.5 396l2.5.5-2.5.5zM671.5 396l2.5.5-2.5.5zM402.5 461q2.3-.7 1.5 1.5zM419.5 461l-.5 1.5-.5 1.5-.5-1.5zM421.5 461l2.5.5-2.5.5zM437.5 461l-.5 1.5-.5 1.5-.5-1.5zM452 461l5 .5-6.5 3.5 1.5-2.5zM458.5 461l4.5.5-1 1 2.5 3.5-4-4h-2zM480.5 461l3 4zM500.5 461l.5 22.5h-1l-1-8 1-1zM505.5 461l.5 28 4.5-1-1 2q-3.7.8-4.5-1.5zM510 461h8.5l2 2 2-1v1l-2 1q-2.7-2.8-9-2l-1.5.5zM535.5 461l-.5 1.5-.5 1.5-.5-1.5zM539 461q8.2-1.4 12 2.5l-1.5.5q-2.7-2.8-9-2l-1.5.5zM554.5 461l.5 2.5h-1zM565 461l14 .5-2.5 1.5-1-1h-9l-1.5.5zM624.5 461l1 4q-4.5-2-1-4ZM628.5 461l1 2zM661.5 461l1.5 2.5-2-1zM667.5 461l.5 29-4-.5 3-.5-1-14.5 1-1zM673.5 461l.5 6.5h-1zM677.5 461h9l2 2 1.5-.5-1 1 2.5 3.5-6-5h-8zM580.5 462l3.5 2.5-2.5-1.5zM593.5 462l.5 26.5q-.7 2.3-4.5 1.5v-1l3.5-.5zM447.5 463l-3 4zM466.5 463l4 5zM524.5 463l4 5zM649.5 463l1 2zM677.5 463l.5 3.5h-1zM691.5 463l5.5 4.5-4.5-3.5zM476 464l2 .5-1.5 8.5zM643 464l2 .5-2 1zM534.5 465l.5 17.5h-1zM553.5 465q2.3-.7 1.5 1.5zM579.5 465l.5 3.5h-1zM621.5 465l-.5 1.5q1.3 4.8-2 3.5zM479.5 466l1 2zM646.5 466l1 2zM651.5 466l1 2zM361.5 467l-1 2-6.5-.5zM363.5 468l1.5 4.5h-1l-.5-2.5-1.5.5zM481.5 469l1 2zM643.5 469l1.5 8.5h-1zM648.5 469l1 2zM525.5 470l.5 9.5h-1zM578.5 470v3l-2.5-.5zM581.5 470l-1 2zM673.5 470l.5 2.5h-1zM447.5 471l.5 8.5h-1zM487.5 471l1 2zM618.5 471q2.6 2.4 1.5 8.5h-1zM654.5 471l1 2zM379.5 472q2.3-.7 1.5 1.5h-2l1 3h-1l-1-3zM472.5 472l.5 6.5h-1zM530.5 472l.5 5.5h-1zM693.5 472l.5 6.5h-1zM362.5 473q2.8 1.3.5 2.5l2 3-1 4 .5 1.5-2.5-.5 1-4q-3.5-1.5-1-3l-.5-1.5q-1.5 2.5-7 1v-1q6.5 1.5 8-2ZM421.5 473l2.5 12.5h-1l-5-10 2-.5.5 2zM441.5 473l.5 4.5h-1zM546.5 473l-1 2-2 1 1-2zM403.5 474l.5 2.5-1.5 2.5-.5-1.5zM489.5 474l1 2zM539.5 474l.5 2.5h-1zM571.5 474q2.6-.8 1.5 2.5l.5 1.5zM651.5 474l2.5 3.5-2-1zM656.5 474l1 2zM477.5 475l.5 2.5h-1zM377.5 476l1.5 2.5-2-1zM485.5 476l1 2zM546.5 476l1 2zM372.5 477l.5 1.5-1 2h2q-.7 2.3 1.5 1.5l1 2-3-2-1.5.5-1-3zM630.5 477l1.5 3.5h-1zM658.5 477l1 2zM673.5 478l.5 8.5h-1zM376.5 479l1.5 2.5-2-1zM442.5 479l6 8 3 1-1-3q1.4 4.1 6.5 4.5l-4 .5-.5-2-2 1-7.5-6.5zM487.5 479l1 2zM539.5 479l.5 4.5h-1zM654.5 479l1 2zM403 480q3.3-1.3 2 3.5l1 2h-1zM493.5 480l2 3zM570.5 480l1 2zM575.5 480l2 3zM660.5 480l2 3zM448.5 481l1.5 2.5-2-1zM465.5 482l.5 1.5-2 1zM490.5 483l2 3zM572.5 483l5 6zM657.5 483l5 6zM354.5 484l6.5.5-6.5.5zM373.5 484l1.5 5.5q-1.2 3.3-5 2.5-1.1-2.7 1.5-2l2.5-.5zM523.5 484l-1 3 2-1-1 2-2.5-1.5zM527.5 484l-1 2zM534.5 484l.5 5h4v-1.5h1q1.4 4.6-4.5 2.5-2.9-1.4-1-6ZM555.5 484l.5 4.5-1.5 1.5h-12l1-2 11.5 1zM609.5 484l.5 4.5-1.5 1.5H598q-1.2-3 2.5-2l1 1h7.5zM498.5 485q4.2-1.3 2.5 3.5l-3.5 1.5v-1q4.2 1.1 2.5-3zM409.5 486l-1 3 3.5.5-3.5.5-1.5-3zM427.5 486l-1 3 3.5.5-3.5.5-2-3zM463.5 486v3q-1.5-2.5-3 1l-2.5-.5zM466.5 486l-1 2zM494.5 487l1 2zM519.5 487l1 2-4.5-.5zM619.5 487l.5 1.5q-1.2 2.8-6.5 1.5v-1q6.4 2 6-2ZM634.5 487l.5 2h4v-1.5h1l-1.5 2.5q-3.7.8-4.5-1.5zM648.5 487q3 1.5 0 3l-4.5-.5 5-1zM687.5 487l1 2-3.5-.5zM583.5 488l.5 2-5-.5zM673.5 488l4 1 1.5-.5q-.7 2.3-4.5 1.5zM476.5 489l5.5.5-5.5.5zM561.5 489l2.5.5-2.5.5z" opacity=".557"/></svg>