<svg width="400" height="45" viewBox="0 0 400 45" fill="none" xmlns="http://www.w3.org/2000/svg">
<mask id="path-1-inside-1_2007_2980" fill="white">
<path d="M24.9414 8.95996C24.9414 4.26554 28.747 0.459961 33.4414 0.459961L366.441 0.459963C371.136 0.459963 374.941 4.26554 374.941 8.95996V8.95996C374.941 13.6544 371.136 17.46 366.441 17.46L33.4414 17.46C28.747 17.46 24.9414 13.6544 24.9414 8.95996V8.95996Z"/>
</mask>
<path d="M24.9414 8.95996C24.9414 3.71326 29.1947 -0.540039 34.4414 -0.540039L365.441 -0.540037C370.688 -0.540037 374.941 3.71326 374.941 8.95996C374.941 4.81783 371.136 1.45996 366.441 1.45996L33.4414 1.45996C28.747 1.45996 24.9414 4.81782 24.9414 8.95996ZM374.941 17.46L24.9414 17.46L374.941 17.46ZM24.9414 17.46L24.9414 0.459961L24.9414 17.46ZM374.941 0.459963L374.941 17.46L374.941 0.459963Z" fill="white" mask="url(#path-1-inside-1_2007_2980)"/>
<mask id="path-3-inside-2_2007_2980" fill="white">
<path d="M0 22.2168L50 22.2168L50 23.2168L4.71099e-09 23.2168L0 22.2168Z"/>
</mask>
<path d="M0 22.2168L50 22.2168L50 23.2168L4.71099e-09 23.2168L0 22.2168Z" fill="white"/>
<path d="M50 23.2168L50 22.2168L0 22.2168L4.71099e-09 23.2168L9.42197e-09 24.2168L50 24.2168L50 23.2168Z" fill="white" mask="url(#path-3-inside-2_2007_2980)"/>
<path d="M79.828 25.65V27.694H70V17.712H79.534V19.686H72.254V21.702H78.414V23.676H72.254V25.65H79.828Z" fill="white"/>
<path d="M85.8367 20.848L85.7387 20.708V27.694H83.4707V17.712H85.8227L91.8847 24.488L91.9687 24.614V17.712H94.2227V27.694H91.9687L85.8367 20.848Z" fill="white"/>
<path d="M107.559 19.714H103.807V27.694H101.399V19.714H97.815V17.712H107.559V19.714Z" fill="white"/>
<path d="M120.978 25.65V27.694H111.15V17.712H120.684V19.686H113.404V21.702H119.564V23.676H113.404V25.65H120.978Z" fill="white"/>
<path d="M129.843 19.7H126.959V22.472H129.759C130.011 22.472 130.263 22.472 130.487 22.458C130.711 22.444 130.935 22.43 131.131 22.402C131.523 22.346 131.845 22.234 132.069 22.052C132.293 21.87 132.405 21.576 132.405 21.184V21.002C132.405 20.82 132.377 20.652 132.335 20.512C132.279 20.372 132.223 20.26 132.139 20.162C131.943 19.98 131.663 19.854 131.285 19.798C130.907 19.742 130.431 19.7 129.843 19.7ZM129.773 24.474H126.959V27.694H124.621V17.712H129.871C131.621 17.712 132.881 17.964 133.665 18.468C134.435 18.972 134.827 19.77 134.827 20.862C134.827 21.618 134.645 22.192 134.295 22.612C133.931 23.032 133.385 23.326 132.643 23.508C133.371 23.676 133.903 23.97 134.239 24.404C134.575 24.852 134.757 25.51 134.757 26.392V27.05C134.757 27.176 134.771 27.302 134.799 27.414C134.827 27.54 134.883 27.638 134.995 27.694H132.545C132.419 27.652 132.335 27.568 132.307 27.428C132.279 27.288 132.265 27.162 132.265 27.022V26.406C132.265 26.154 132.237 25.93 132.209 25.734C132.167 25.538 132.111 25.37 132.041 25.23C131.873 24.95 131.621 24.754 131.257 24.642C130.893 24.53 130.403 24.474 129.773 24.474Z" fill="white"/>
<path d="M153.28 19.714H149.528V27.694H147.12V19.714H143.536V17.712H153.28V19.714Z" fill="white"/>
<path d="M165.033 27.694V23.83H159.223V27.694H156.871V17.712H159.223V21.59H165.033V17.712H167.357V27.694H165.033Z" fill="white"/>
<path d="M181.414 25.65V27.694H171.586V17.712H181.12V19.686H173.84V21.702H180V23.676H173.84V25.65H181.414Z" fill="white"/>
<path d="M195.833 19.7H192.949V22.472H195.749C196.001 22.472 196.253 22.472 196.477 22.458C196.701 22.444 196.925 22.43 197.121 22.402C197.513 22.346 197.835 22.234 198.059 22.052C198.283 21.87 198.395 21.576 198.395 21.184V21.002C198.395 20.82 198.367 20.652 198.325 20.512C198.269 20.372 198.213 20.26 198.129 20.162C197.933 19.98 197.653 19.854 197.275 19.798C196.897 19.742 196.421 19.7 195.833 19.7ZM195.763 24.474H192.949V27.694H190.611V17.712H195.861C197.611 17.712 198.871 17.964 199.655 18.468C200.425 18.972 200.817 19.77 200.817 20.862C200.817 21.618 200.635 22.192 200.285 22.612C199.921 23.032 199.375 23.326 198.633 23.508C199.361 23.676 199.893 23.97 200.229 24.404C200.565 24.852 200.747 25.51 200.747 26.392V27.05C200.747 27.176 200.761 27.302 200.789 27.414C200.817 27.54 200.873 27.638 200.985 27.694H198.535C198.409 27.652 198.325 27.568 198.297 27.428C198.269 27.288 198.255 27.162 198.255 27.022V26.406C198.255 26.154 198.227 25.93 198.199 25.734C198.157 25.538 198.101 25.37 198.031 25.23C197.863 24.95 197.611 24.754 197.247 24.642C196.883 24.53 196.393 24.474 195.763 24.474Z" fill="white"/>
<path d="M211.821 23.62L209.959 19.826L208.153 23.62H211.821ZM213.837 27.694L212.773 25.524H207.243L206.207 27.694H203.673L208.727 17.712H211.205L216.343 27.694H213.837Z" fill="white"/>
<path d="M225.095 27.694H219.467V17.712H224.997C226.649 17.712 227.881 17.908 228.693 18.272C229.505 18.65 229.925 19.336 229.925 20.33V20.414C229.925 21.058 229.757 21.548 229.421 21.87C229.085 22.192 228.567 22.416 227.867 22.542C228.665 22.654 229.253 22.878 229.617 23.2C229.981 23.536 230.177 24.04 230.177 24.74V24.796C230.177 25.16 230.121 25.496 230.023 25.776C229.925 26.07 229.785 26.322 229.589 26.518C229.197 26.938 228.623 27.246 227.867 27.428C227.111 27.61 226.187 27.694 225.095 27.694ZM225.137 19.56H221.749V21.66H225.221C225.459 21.66 225.683 21.66 225.893 21.646C226.089 21.646 226.285 21.632 226.481 21.604C226.831 21.562 227.111 21.464 227.307 21.324C227.503 21.184 227.615 20.96 227.615 20.652V20.596C227.615 20.442 227.587 20.302 227.545 20.19C227.503 20.078 227.447 19.98 227.363 19.896C227.195 19.756 226.929 19.672 226.565 19.63C226.201 19.588 225.725 19.56 225.137 19.56ZM224.969 23.48H221.749V25.734H224.801C225.207 25.734 225.571 25.734 225.879 25.72C226.187 25.706 226.439 25.678 226.663 25.636C227.083 25.58 227.377 25.482 227.545 25.314C227.699 25.16 227.783 24.936 227.783 24.642V24.586C227.783 24.432 227.755 24.292 227.713 24.166C227.671 24.054 227.615 23.956 227.531 23.872C227.363 23.718 227.083 23.62 226.677 23.564C226.257 23.508 225.697 23.48 224.969 23.48Z" fill="white"/>
<path d="M239.276 27.694H233.648V17.712H239.178C240.83 17.712 242.062 17.908 242.874 18.272C243.686 18.65 244.106 19.336 244.106 20.33V20.414C244.106 21.058 243.938 21.548 243.602 21.87C243.266 22.192 242.748 22.416 242.048 22.542C242.846 22.654 243.434 22.878 243.798 23.2C244.162 23.536 244.358 24.04 244.358 24.74V24.796C244.358 25.16 244.302 25.496 244.204 25.776C244.106 26.07 243.966 26.322 243.77 26.518C243.378 26.938 242.804 27.246 242.048 27.428C241.292 27.61 240.368 27.694 239.276 27.694ZM239.318 19.56H235.93V21.66H239.402C239.64 21.66 239.864 21.66 240.074 21.646C240.27 21.646 240.466 21.632 240.662 21.604C241.012 21.562 241.292 21.464 241.488 21.324C241.684 21.184 241.796 20.96 241.796 20.652V20.596C241.796 20.442 241.768 20.302 241.726 20.19C241.684 20.078 241.628 19.98 241.544 19.896C241.376 19.756 241.11 19.672 240.746 19.63C240.382 19.588 239.906 19.56 239.318 19.56ZM239.15 23.48H235.93V25.734H238.982C239.388 25.734 239.752 25.734 240.06 25.72C240.368 25.706 240.62 25.678 240.844 25.636C241.264 25.58 241.558 25.482 241.726 25.314C241.88 25.16 241.964 24.936 241.964 24.642V24.586C241.964 24.432 241.936 24.292 241.894 24.166C241.852 24.054 241.796 23.956 241.712 23.872C241.544 23.718 241.264 23.62 240.858 23.564C240.438 23.508 239.878 23.48 239.15 23.48Z" fill="white"/>
<path d="M255.218 27.694H247.56V25.51H250.276V19.798H247.56V17.712H255.218V19.798H252.502V25.51H255.218V27.694Z" fill="white"/>
<path d="M268.309 19.714H264.557V27.694H262.149V19.714H258.565V17.712H268.309V19.714Z" fill="white"/>
<path d="M285.617 27.694V23.83H279.807V27.694H277.455V17.712H279.807V21.59H285.617V17.712H287.941V27.694H285.617Z" fill="white"/>
<path d="M297.658 27.974C297.056 27.974 296.496 27.932 295.978 27.848C295.446 27.764 294.97 27.624 294.522 27.428C293.626 27.064 292.926 26.504 292.436 25.748C291.932 24.992 291.694 24.012 291.694 22.808V22.738C291.694 22.178 291.75 21.66 291.89 21.184C292.016 20.708 292.212 20.274 292.464 19.882C292.968 19.098 293.682 18.51 294.578 18.09C295.474 17.67 296.496 17.46 297.644 17.46C298.218 17.46 298.764 17.516 299.268 17.614C299.772 17.726 300.262 17.88 300.724 18.076C301.62 18.482 302.334 19.07 302.852 19.854C303.37 20.638 303.636 21.604 303.636 22.724V22.822C303.636 23.41 303.566 23.942 303.44 24.418C303.314 24.894 303.118 25.328 302.866 25.706C302.362 26.462 301.648 27.036 300.752 27.414C299.856 27.792 298.82 27.974 297.658 27.974ZM297.644 25.846C298.008 25.846 298.358 25.832 298.68 25.776C298.988 25.734 299.282 25.664 299.548 25.552C300.08 25.37 300.486 25.048 300.78 24.6C301.06 24.152 301.214 23.564 301.214 22.808V22.794C301.214 22.402 301.172 22.052 301.102 21.744C301.032 21.436 300.92 21.156 300.78 20.904C300.486 20.442 300.08 20.106 299.548 19.896C299.016 19.686 298.386 19.574 297.658 19.574C296.538 19.574 295.67 19.826 295.054 20.33C294.424 20.834 294.116 21.646 294.116 22.78V22.794C294.116 23.844 294.424 24.614 295.054 25.104C295.67 25.608 296.538 25.846 297.644 25.846Z" fill="white"/>
<path d="M316.393 27.694H307.391V17.712H309.771V25.482H316.393V27.694Z" fill="white"/>
<path d="M329.883 25.65V27.694H320.055V17.712H329.589V19.686H322.309V21.702H328.469V23.676H322.309V25.65H329.883Z" fill="white"/>
<mask id="path-6-inside-3_2007_2980" fill="white">
<path d="M349.883 22.2168L399.883 22.2168L399.883 23.2168L349.883 23.2168L349.883 22.2168Z"/>
</mask>
<path d="M349.883 22.2168L399.883 22.2168L399.883 23.2168L349.883 23.2168L349.883 22.2168Z" fill="white"/>
<path d="M399.883 23.2168L399.883 22.2168L349.883 22.2168L349.883 23.2168L349.883 24.2168L399.883 24.2168L399.883 23.2168Z" fill="white" mask="url(#path-6-inside-3_2007_2980)"/>
<mask id="path-8-inside-4_2007_2980" fill="white">
<path d="M24.9414 36.4736C24.9414 31.7792 28.747 27.9736 33.4414 27.9736L366.441 27.9736C371.136 27.9736 374.941 31.7792 374.941 36.4736V36.4736C374.941 41.1681 371.136 44.9736 366.441 44.9736L33.4414 44.9736C28.747 44.9736 24.9414 41.1681 24.9414 36.4736V36.4736Z"/>
</mask>
<path d="M24.9414 27.9736L374.941 27.9736L24.9414 27.9736ZM374.941 36.4736C374.941 41.7203 370.688 45.9736 365.441 45.9736L34.4414 45.9736C29.1947 45.9736 24.9414 41.7203 24.9414 36.4736C24.9414 40.6158 28.747 43.9736 33.4414 43.9736L366.441 43.9736C371.136 43.9736 374.941 40.6158 374.941 36.4736ZM24.9414 44.9736L24.9414 27.9736L24.9414 44.9736ZM374.941 27.9736L374.941 44.9736L374.941 27.9736Z" fill="white" mask="url(#path-8-inside-4_2007_2980)"/>
</svg>
