<svg width="24" height="24" viewBox="0 0 24 24" fill="none" xmlns="http://www.w3.org/2000/svg">
<g clip-path="url(#clip0_196_24095)">
<path d="M12 24C18.6274 24 24 18.6274 24 12C24 5.37258 18.6274 0 12 0C5.37258 0 0 5.37258 0 12C0 18.6274 5.37258 24 12 24Z" fill="#FF0420"/>
<path d="M8.50208 15.1898C7.78757 15.1898 7.20213 15.0217 6.74581 14.6855C6.29548 14.3432 6.07031 13.8569 6.07031 13.2264C6.07031 13.0943 6.08531 12.9322 6.11534 12.74C6.1934 12.3077 6.30448 11.7883 6.44858 11.1819C6.85687 9.53068 7.91066 8.70508 9.6099 8.70508C10.0723 8.70508 10.4865 8.78314 10.8528 8.93925C11.2191 9.08935 11.5073 9.31751 11.7174 9.62375C11.9276 9.92398 12.0327 10.2842 12.0327 10.7046C12.0327 10.8306 12.0177 10.9898 11.9877 11.1819C11.8976 11.7163 11.7895 12.2357 11.6634 12.74C11.4533 13.5627 11.09 14.1781 10.5736 14.5864C10.0572 14.9887 9.36672 15.1898 8.50208 15.1898ZM8.62819 13.8929C8.96444 13.8929 9.24965 13.7938 9.48382 13.5957C9.72398 13.3975 9.89511 13.0943 9.99719 12.686C10.1353 12.1216 10.2404 11.6292 10.3124 11.2089C10.3364 11.0828 10.3484 10.9537 10.3484 10.8216C10.3484 10.2752 10.0632 10.002 9.49283 10.002C9.15658 10.002 8.86837 10.1011 8.62819 10.2992C8.39402 10.4974 8.22588 10.8006 8.12382 11.2089C8.01573 11.6112 7.90766 12.1036 7.79957 12.686C7.77555 12.8061 7.76355 12.9322 7.76355 13.0643C7.76355 13.6167 8.05175 13.8929 8.62819 13.8929ZM12.4462 15.0998C12.3802 15.0998 12.3291 15.0788 12.2931 15.0367C12.2631 14.9887 12.2541 14.9347 12.2661 14.8746L13.509 9.0203C13.521 8.95427 13.554 8.90021 13.6081 8.85818C13.6621 8.81616 13.7192 8.79513 13.7792 8.79513H16.175C16.8414 8.79513 17.3758 8.93324 17.7781 9.20944C18.1864 9.48565 18.3906 9.88494 18.3906 10.4073C18.3906 10.5574 18.3726 10.7136 18.3366 10.8757C18.1864 11.5662 17.8832 12.0766 17.4269 12.4068C16.9766 12.737 16.3581 12.9022 15.5715 12.9022H14.3556L13.9413 14.8746C13.9293 14.9407 13.8963 14.9947 13.8422 15.0367C13.7882 15.0788 13.7312 15.0998 13.6711 15.0998H12.4462ZM15.6346 11.6592C15.8867 11.6592 16.1059 11.5902 16.292 11.4521C16.4842 11.314 16.6103 11.1158 16.6703 10.8576C16.6883 10.7556 16.6974 10.6655 16.6974 10.5875C16.6974 10.4133 16.6463 10.2812 16.5442 10.1912C16.4422 10.0951 16.268 10.0471 16.0219 10.0471H14.9411L14.5988 11.6592H15.6346Z" fill="white"/>
</g>
<defs>
<clipPath id="clip0_196_24095">
<rect width="24" height="24" fill="white"/>
</clipPath>
</defs>
</svg>
