<svg width="144" height="35" viewBox="0 0 144 35" fill="none" xmlns="http://www.w3.org/2000/svg">
<path d="M22.2793 11.4468C22.3679 11.2625 22.3492 11.0377 22.2568 10.8551C22.1099 10.5658 21.8116 10.396 21.5203 10.2766C20.9182 10.0291 20.264 9.93773 19.6145 9.92038C18.359 9.88067 17.108 10.0891 15.9343 10.5336C14.6755 11.0171 13.6024 11.7208 12.5666 12.5538C12.0931 12.9332 11.2904 13.4142 10.7149 12.9671C10.1269 12.5109 10.5256 11.777 10.8784 11.2811C11.2933 10.6985 11.8938 10.2406 12.5105 9.88566C13.418 9.36253 14.4438 9.07369 15.4591 8.83774C16.526 8.58856 17.625 8.51873 18.7111 8.38815C19.6569 8.27493 20.651 8.26419 21.4658 7.70014C22.6792 6.85965 22.085 5.59891 20.9769 5.05304C19.6519 4.40015 18.1847 4.19768 16.7216 4.33817C16.2029 4.38916 15.6869 4.4632 15.1749 4.56007C14.5495 4.67743 12.7456 4.90139 13.1226 3.7076C13.2104 3.42826 13.4305 3.21008 13.6698 3.04107C14.9394 2.14355 16.5044 1.91174 18.0328 1.89108C19.3497 1.87253 20.6605 2.07109 21.9119 2.47868C22.9647 2.82289 23.9105 3.37454 24.7573 4.08363C25.4585 4.67205 26.0103 5.4204 26.7647 5.94725C27.1467 6.2142 27.7534 6.26585 28.1046 5.91461C28.5174 5.50511 28.3647 4.85263 28.0671 4.43032C27.6702 3.86586 27.0414 3.46793 26.4638 3.10677C24.6067 1.94521 22.425 1.33405 20.2582 1.08653C19.1727 0.960281 18.0775 0.937173 16.9875 1.01753C15.4699 1.13282 13.959 1.41629 12.5213 1.91752C11.5114 2.26917 10.4998 2.70677 9.61509 3.31297C8.95138 3.76627 8.20527 4.43197 8.03799 5.25139C7.83742 6.22866 8.54316 7.08527 9.51439 7.21088C10.0949 7.28609 10.6824 7.13981 11.2317 6.93775C12.4281 6.49932 13.5945 5.97535 14.8174 5.60841C15.4599 5.41585 16.1241 5.22164 16.8002 5.23486C17.2659 5.24395 18.0399 5.34478 18.2958 5.80097C18.9949 7.04684 15.8382 7.60964 15.1936 7.8146C14.1812 8.13691 13.1617 8.45261 12.2104 8.93071C10.2463 9.91748 8.49573 11.3902 7.6743 13.4637C7.34848 14.2844 7.38302 15.3055 7.8782 16.0546C8.41583 16.8674 9.52438 17.1827 10.4182 16.7778C11.0316 16.4989 11.2475 16.096 11.3491 15.9179C11.8343 15.0716 12.3199 13.7774 14.0189 12.5914C14.9695 11.9268 16.0658 11.4965 17.2171 11.3359C18.3683 11.1753 19.5416 11.2891 20.6398 11.6679C21.0468 11.808 21.5141 11.9501 21.9323 11.7671C22.0804 11.7059 22.2027 11.596 22.2776 11.4555L22.2793 11.4468ZM10.0437 18.5807C9.83855 18.5964 9.65171 18.7253 9.53894 18.896C9.35959 19.167 9.36084 19.5088 9.40162 19.8187C9.48734 20.4592 9.73535 21.0683 10.0441 21.6364C10.6375 22.7358 11.4448 23.7072 12.4193 24.4943C13.4709 25.3343 14.6223 25.9058 15.8669 26.3806C16.4341 26.5967 17.2547 27.0459 17.1515 27.7657C17.0474 28.4992 16.2081 28.5232 15.5993 28.4682C14.884 28.4029 14.1845 28.1153 13.5666 27.7624C12.6553 27.2422 11.8925 26.5054 11.178 25.75C10.4274 24.9579 9.81691 24.0476 9.16069 23.1798C8.58894 22.422 8.08252 21.5732 7.1837 21.155C5.84379 20.5319 5.04109 21.6732 5.11891 22.8988C5.21212 24.3641 5.76889 25.7294 6.62318 26.9153C6.92612 27.3356 7.25028 27.7418 7.58983 28.1335C8.0047 28.612 9.10201 30.0525 7.87071 30.3261C7.58359 30.3901 7.28315 30.3104 7.016 30.1893C5.59828 29.5455 4.61415 28.3153 3.83143 27.0116C3.15681 25.8884 2.67463 24.6619 2.40455 23.3819C2.17818 22.3054 2.1865 21.2154 2.38125 20.1323C2.54437 19.2348 2.92096 18.3864 3.00293 17.4753C3.0433 17.0125 2.78613 16.4662 2.3051 16.3389C1.74333 16.1889 1.2494 16.646 1.02927 17.1133C0.73549 17.7369 0.703032 18.4769 0.676401 19.1538C0.591928 21.3315 1.14953 23.5133 2.01797 25.5013C2.45059 26.4978 2.97798 27.451 3.59299 28.348C4.45186 29.5959 5.45472 30.7525 6.6107 31.7384C7.42213 32.431 8.30972 33.0827 9.27928 33.5413C10.0062 33.8851 10.96 34.1942 11.7585 33.9281C12.7098 33.6091 13.1047 32.5769 12.7285 31.6789C12.5042 31.1418 12.0827 30.7099 11.6324 30.3385C10.6504 29.5298 9.61135 28.7876 8.67965 27.9199C8.19154 27.4649 7.68928 26.9893 7.36263 26.4013C7.13751 25.9963 6.83873 25.2798 7.1088 24.8319C7.84533 23.6075 9.9147 26.041 10.4161 26.493C11.2026 27.2025 11.9891 27.9203 12.8812 28.4996C14.7246 29.6955 16.8843 30.4649 19.1035 30.1343C19.9823 30.0037 20.8553 29.4637 21.2615 28.6633C21.7009 27.7955 21.4217 26.6831 20.6215 26.1178C20.0718 25.7294 19.612 25.7459 19.4064 25.7472C18.4256 25.7525 17.0541 25.9823 15.1699 25.1145C14.1155 24.629 13.1925 23.9013 12.4772 22.9916C11.7619 22.0819 11.2748 21.0163 11.0561 19.8827C10.9758 19.4621 10.8647 18.9893 10.4964 18.7212C10.3689 18.6245 10.2116 18.5745 10.0512 18.5798L10.0437 18.5807ZM22.3829 25.5372C22.499 25.7054 22.7042 25.8017 22.9106 25.8137C23.2364 25.8319 23.5339 25.6604 23.7836 25.4699C24.2992 25.0765 24.707 24.5587 25.0469 24.0087C25.7091 22.9487 26.1527 21.7685 26.3519 20.5368C26.5591 19.2129 26.4825 17.9377 26.2741 16.6303C26.1792 16.0323 26.1609 15.1038 26.8392 14.8311C27.5312 14.5522 27.9723 15.2633 28.2278 15.815C28.5286 16.4629 28.6293 17.2084 28.6293 17.9158C28.6293 18.9588 28.3697 19.9835 28.0676 20.9757C27.7513 22.0178 27.2644 22.998 26.8338 23.9963C26.4601 24.8662 25.9724 25.7269 26.0569 26.7071C26.1829 28.1711 27.579 28.2909 28.6098 27.6108C29.8411 26.798 30.7515 25.6381 31.3603 24.3091C31.5759 23.8381 31.7673 23.3567 31.9396 22.8687C32.1505 22.2703 32.8567 20.6083 33.7102 21.5298C33.9107 21.7447 33.991 22.0435 34.0177 22.3335C34.1646 23.8744 33.5849 25.3356 32.8388 26.6608C32.1966 27.8027 31.3681 28.8308 30.387 29.7033C29.5598 30.4368 28.606 30.9736 27.5645 31.348C26.7006 31.6562 25.7718 31.7566 24.9358 32.1413C24.5118 32.3364 24.1652 32.8331 24.2933 33.3099C24.4448 33.8678 25.0894 34.0649 25.6074 34.0203C26.2978 33.9608 26.959 33.619 27.5628 33.3025C29.5044 32.2864 31.1281 30.7157 32.4277 28.9752C33.0804 28.105 33.6482 27.1751 34.1234 26.198C34.7817 24.8352 35.2877 23.3939 35.5715 21.9071C35.77 20.8625 35.8927 19.774 35.8095 18.7108C35.7458 17.9133 35.5382 16.9389 34.9069 16.3856C34.1546 15.7253 33.0556 15.903 32.4601 16.6749C32.1043 17.1369 31.9383 17.7154 31.8397 18.2885C31.6254 19.5377 31.4972 20.8001 31.2064 22.0356C31.0536 22.6827 30.8901 23.3513 30.5406 23.9273C30.2996 24.3236 29.8248 24.9381 29.2989 24.9306C27.8624 24.9087 28.9506 21.9125 29.0937 21.2554C29.3188 20.2245 29.5527 19.1893 29.6114 18.1315C29.732 15.9497 29.3242 13.7071 27.9252 11.9629C27.3726 11.2728 26.4647 10.7919 25.5638 10.8431C24.5871 10.8989 23.757 11.6952 23.6642 12.6654C23.6001 13.3328 23.8443 13.7199 23.9484 13.8964C24.4436 14.7369 25.3291 15.8013 25.5138 17.8559C25.6192 19.0058 25.4473 20.1642 25.0124 21.2352C24.5776 22.3061 23.8922 23.2588 23.0129 24.0145C22.6867 24.2934 22.3305 24.6261 22.2797 25.0769C22.2586 25.2377 22.2954 25.4008 22.3838 25.5372H22.3829Z" fill="#F9F9FB"/>
<rect x="50" y="2" width="93.0738" height="30" rx="15" fill="#8C7EFF"/>
<path fill-rule="evenodd" clip-rule="evenodd" d="M72.6967 8.75775L79.0191 15.163C80.0164 16.1734 80.0164 17.8113 79.0191 18.8217L72.6838 25.2423C71.6865 26.2526 70.0698 26.2526 69.0725 25.2423L62.7479 18.837C61.7507 17.8266 61.7507 16.1887 62.7479 15.1784L69.0855 8.75775C70.0827 7.74742 71.6995 7.74742 72.6967 8.75775ZM70.4626 10.3826L70.4367 10.4066L64.3777 16.5451C64.1359 16.7901 64.1294 17.1793 64.3539 17.4352L64.3777 17.4614L70.4281 23.5912C70.6698 23.8361 71.0541 23.8427 71.3045 23.6152L71.3304 23.5912L77.3894 17.4527C77.6377 17.2012 77.6377 16.7922 77.3894 16.5386L71.339 10.4088C71.0972 10.1639 70.713 10.1573 70.4626 10.3848V10.3826ZM71.0001 13.0833L74.7474 16.8819C74.81 16.9453 74.81 17.0459 74.7474 17.1115L70.9936 20.9145C70.931 20.9779 70.8296 20.9779 70.767 20.9145L67.0197 17.1159C66.9571 17.0525 66.9571 16.9519 67.0197 16.8863L70.7735 13.0833C70.8361 13.0199 70.9375 13.0199 71.0001 13.0833Z" fill="#111322"/>
<path d="M87.9706 10.2295L82.9023 23.7858H85.2681L86.4057 20.6892H92.182L93.3368 23.7858H95.7414L90.6731 10.2295H87.9706ZM89.2744 12.9106L91.3984 18.5745H87.1871L89.2744 12.9106Z" fill="#111322"/>
<path d="M104.558 21.8592H99.3968L104.504 15.5917V13.875H96.6576V15.8016H101.838L96.582 22.0866V23.7858H104.558V21.8592Z" fill="#111322"/>
<path d="M106.793 21.2953C106.793 23.3138 107.799 23.8999 109.664 23.8999C110.243 23.8999 110.802 23.843 111.212 23.7686V21.8617C110.877 21.8989 110.672 21.9186 110.299 21.9186C109.498 21.9186 108.995 21.8245 108.995 20.9367V15.8019H111.046V13.8753H108.995V10.9668H106.795V13.8753H105.436V15.8019H106.795V21.2953H106.793Z" fill="#111322"/>
<path d="M116.837 23.9934C118.795 23.9934 120.34 22.9546 121.031 21.2161L119.112 20.4791C118.814 21.4982 117.938 22.0668 116.839 22.0668C115.404 22.0668 114.398 21.028 114.229 19.3288H121.087V18.5744C121.087 15.8561 119.578 13.6846 116.744 13.6846C113.91 13.6846 112.086 15.9305 112.086 18.839C112.086 21.8962 114.044 23.9934 116.839 23.9934H116.837ZM116.725 15.5915C118.141 15.5915 118.812 16.534 118.831 17.6318H114.339C114.674 16.2913 115.57 15.5915 116.725 15.5915Z" fill="#111322"/>
<path d="M124.385 18.839C124.385 16.8183 125.429 15.6287 126.956 15.6287C128.149 15.6287 128.874 16.4422 129.155 17.5181L131.037 16.4794C130.515 14.8917 129.062 13.6846 126.956 13.6846C124.16 13.6846 122.148 15.7796 122.148 18.839C122.148 21.8984 124.16 23.9934 126.956 23.9934C129.08 23.9934 130.571 22.7272 131.074 21.1221L129.155 20.1402C128.877 21.2358 128.149 22.0296 126.956 22.0296C125.427 22.0296 124.385 20.8575 124.385 18.8368V18.839Z" fill="#111322"/>
</svg>
