<svg width="559" height="252" viewBox="0 0 559 252" fill="none" xmlns="http://www.w3.org/2000/svg">
<path d="M54.74 162.9H24.84L9.5 250H0.92L33.42 65.92H42L26.4 154.58H56.04L71.64 65.92H80.22L47.98 250H39.4L54.74 162.9ZM107.169 213.6L81.4286 213.6L71.2886 250H62.4486L115.749 65.92H124.329L113.409 250H104.829L107.169 213.6ZM83.7686 205.8L107.689 205.8L114.189 111.16L119.389 70.86L110.289 111.16L83.7686 205.8ZM135.933 250H127.873L160.373 65.92H167.393L177.273 195.4L178.313 234.92L184.293 185.78L205.613 65.92H213.673L181.173 250H174.153L164.273 118.18L163.233 78.92L157.253 128.58L135.933 250ZM235.783 65.92H253.463C270.883 65.92 281.543 76.84 277.643 98.42L256.063 219.58C252.683 240.9 240.723 250 220.963 250H203.283L235.783 65.92ZM242.803 73.72L213.423 241.94H220.443C236.563 241.94 244.623 235.44 247.743 218.28L269.063 97.9C271.923 80.48 264.903 73.72 251.643 73.72H242.803ZM271.832 250L304.072 65.92L323.052 65.92C343.852 65.92 348.792 77.36 345.932 92.96L339.432 129.62C337.092 144.18 331.372 151.46 318.372 153.8C331.372 157.18 333.712 167.58 330.852 182.14L323.312 225.04C320.192 242.46 312.912 250 291.072 250H271.832ZM311.092 73.2L297.572 150.16H305.632C322.012 150.16 327.992 144.96 330.852 129.62L337.352 92.7C339.432 80.48 336.832 73.2 321.492 73.2H311.092ZM296.272 157.7L281.452 242.2H291.592C307.972 242.2 312.652 235.7 314.992 222.7L322.272 180.84C325.132 166.54 322.012 157.7 304.332 157.7H296.272ZM363.854 251.82C345.654 251.82 338.894 239.6 342.274 222.18L365.154 92.7C369.054 72.16 377.634 64.36 391.934 64.36C408.054 64.36 417.154 74.76 414.034 93.22L390.634 225.3C387.514 242.46 380.234 251.82 363.854 251.82ZM364.374 243.76C375.554 243.76 379.714 237.26 382.054 224.26L405.454 92.44C407.794 79.44 403.114 71.9 391.154 71.9C381.794 71.9 376.074 78.14 373.994 91.4L350.594 222.96C348.514 235.96 352.154 243.76 364.374 243.76ZM432.916 251.82C414.716 251.82 407.956 239.6 411.336 222.18L434.216 92.7C438.116 72.16 446.696 64.36 460.996 64.36C477.116 64.36 486.216 74.76 483.096 93.22L459.696 225.3C456.576 242.46 449.296 251.82 432.916 251.82ZM433.436 243.76C444.616 243.76 448.776 237.26 451.116 224.26L474.516 92.44C476.856 79.44 472.176 71.9 460.216 71.9C450.856 71.9 445.136 78.14 443.056 91.4L419.656 222.96C417.576 235.96 421.216 243.76 433.436 243.76ZM517.566 139.76L497.026 180.58L485.066 250H476.486L508.986 65.92H517.306L502.746 148.6L496.766 172.78L504.566 154.06L549.806 65.92H558.126L523.546 133.78L528.226 250H519.646L516.786 157.44L517.566 139.76Z" fill="#F9F9FB"/>
<path d="M136.679 29.7854L134.205 24.1378H119.324L116.85 29.7854H106.833L120.272 0.929199H133.257L146.655 29.7854H136.679ZM122.209 17.6245H131.32L126.785 7.2775L122.209 17.6245Z" fill="white"/>
<path d="M178.449 7.9783H157.013V12.2655H178.449V18.449H157.013V22.7362H178.449V29.7854H147.944V0.929199H178.449V7.9783Z" fill="white"/>
<path d="M214.113 11.7296C214.113 16.1817 211.969 19.6857 208.465 21.3758L213.659 29.7854H202.941L198.654 22.5713H189.461V29.7854H180.392V0.929199H203.065C209.62 0.929199 214.113 5.2988 214.113 11.7296ZM189.461 8.5967V14.9038H201.004C202.694 14.9038 205.044 14.9038 205.044 11.7296C205.044 8.5967 202.694 8.5967 201.004 8.5967H189.461Z" fill="white"/>
<path d="M233.664 30.1978C220.967 30.1978 215.526 25.1273 215.526 15.3162C215.526 5.54639 220.967 0.51709 233.664 0.51709C246.32 0.51709 251.802 5.58759 251.802 15.3162C251.802 25.0861 246.32 30.1978 233.664 30.1978ZM233.664 22.5303C240.713 22.5303 242.733 19.7683 242.733 15.3162C242.733 10.9054 240.755 8.18459 233.664 8.18459C226.615 8.18459 224.595 10.8641 224.595 15.3162C224.595 19.8096 226.656 22.5303 233.664 22.5303Z" fill="white"/>
<path d="M274.969 0.929199C282.142 0.929199 288.697 5.5462 288.697 15.3573C288.697 25.1684 282.142 29.7854 274.969 29.7854H253.74V0.929199H274.969ZM271.878 22.1179C275.835 22.1179 279.628 21.5407 279.628 15.3573C279.628 9.1738 275.835 8.5967 271.878 8.5967H262.809V22.1179H271.878Z" fill="white"/>
<path d="M324.376 11.7296C324.376 16.1817 322.232 19.6857 318.728 21.3758L323.922 29.7854H313.204L308.917 22.5713H299.724V29.7854H290.655V0.929199H313.328C319.882 0.929199 324.376 5.2988 324.376 11.7296ZM299.724 8.5967V14.9038H311.267C312.957 14.9038 315.307 14.9038 315.307 11.7296C315.307 8.5967 312.957 8.5967 311.267 8.5967H299.724Z" fill="white"/>
<path d="M343.929 30.1978C331.232 30.1978 325.791 25.1273 325.791 15.3162C325.791 5.54639 331.232 0.51709 343.929 0.51709C356.585 0.51709 362.067 5.58759 362.067 15.3162C362.067 25.0861 356.585 30.1978 343.929 30.1978ZM343.929 22.5303C350.978 22.5303 352.998 19.7683 352.998 15.3162C352.998 10.9054 351.019 8.18459 343.929 8.18459C336.88 8.18459 334.86 10.8641 334.86 15.3162C334.86 19.8096 336.921 22.5303 343.929 22.5303Z" fill="white"/>
<path d="M408.196 0.929199V29.7854H399.127V12.9663L389.192 29.7854H383.008L373.074 12.9251V29.7854H364.004V0.929199H375.629L386.141 19.3559L396.612 0.929199H408.196Z" fill="white"/>
<path d="M441.167 7.9783H419.731V12.2655H441.167V18.449H419.731V22.7362H441.167V29.7854H410.662V0.929199H441.167V7.9783Z" fill="white"/>
</svg>
