<svg width="336" height="31" viewBox="0 0 336 31" fill="none" xmlns="http://www.w3.org/2000/svg">
<path d="M30.6785 29.7854L28.2052 24.1378H13.3236L10.8502 29.7854H0.833008L14.2717 0.929199H27.257L40.6548 29.7854H30.6785ZM16.2092 17.6245H25.3195L20.785 7.2775L16.2092 17.6245Z" fill="white"/>
<path d="M72.4493 7.9783H51.0133V12.2655H72.4493V18.449H51.0133V22.7362H72.4493V29.7854H41.9443V0.929199H72.4493V7.9783Z" fill="white"/>
<path d="M108.113 11.7296C108.113 16.1817 105.969 19.6857 102.465 21.3758L107.659 29.7854H96.9406L92.6536 22.5713H83.4606V29.7854H74.3916V0.929199H97.0646C103.62 0.929199 108.113 5.2988 108.113 11.7296ZM83.4606 8.5967V14.9038H95.0036C96.6936 14.9038 99.0436 14.9038 99.0436 11.7296C99.0436 8.5967 96.6936 8.5967 95.0036 8.5967H83.4606Z" fill="white"/>
<path d="M127.664 30.1978C114.967 30.1978 109.526 25.1273 109.526 15.3162C109.526 5.54639 114.967 0.51709 127.664 0.51709C140.32 0.51709 145.802 5.58759 145.802 15.3162C145.802 25.0861 140.32 30.1978 127.664 30.1978ZM127.664 22.5303C134.713 22.5303 136.733 19.7683 136.733 15.3162C136.733 10.9054 134.755 8.18459 127.664 8.18459C120.615 8.18459 118.595 10.8641 118.595 15.3162C118.595 19.8096 120.656 22.5303 127.664 22.5303Z" fill="white"/>
<path d="M168.969 0.929199C176.142 0.929199 182.697 5.5462 182.697 15.3573C182.697 25.1684 176.142 29.7854 168.969 29.7854H147.74V0.929199H168.969ZM165.878 22.1179C169.835 22.1179 173.628 21.5407 173.628 15.3573C173.628 9.1738 169.835 8.5967 165.878 8.5967H156.809V22.1179H165.878Z" fill="white"/>
<path d="M218.376 11.7296C218.376 16.1817 216.232 19.6857 212.728 21.3758L217.922 29.7854H207.204L202.917 22.5713H193.724V29.7854H184.655V0.929199H207.328C213.882 0.929199 218.376 5.2988 218.376 11.7296ZM193.724 8.5967V14.9038H205.267C206.957 14.9038 209.307 14.9038 209.307 11.7296C209.307 8.5967 206.957 8.5967 205.267 8.5967H193.724Z" fill="white"/>
<path d="M237.929 30.1978C225.232 30.1978 219.791 25.1273 219.791 15.3162C219.791 5.54639 225.232 0.51709 237.929 0.51709C250.585 0.51709 256.067 5.58759 256.067 15.3162C256.067 25.0861 250.585 30.1978 237.929 30.1978ZM237.929 22.5303C244.978 22.5303 246.998 19.7683 246.998 15.3162C246.998 10.9054 245.019 8.18459 237.929 8.18459C230.88 8.18459 228.86 10.8641 228.86 15.3162C228.86 19.8096 230.921 22.5303 237.929 22.5303Z" fill="white"/>
<path d="M302.196 0.929199V29.7854H293.127V12.9663L283.192 29.7854H277.008L267.074 12.9251V29.7854H258.004V0.929199H269.629L280.141 19.3559L290.612 0.929199H302.196Z" fill="white"/>
<path d="M335.167 7.9783H313.731V12.2655H335.167V18.449H313.731V22.7362H335.167V29.7854H304.662V0.929199H335.167V7.9783Z" fill="white"/>
</svg>
