<svg width="160" height="28" viewBox="0 0 160 28" fill="none" xmlns="http://www.w3.org/2000/svg">
<rect width="159.172" height="28.0001" rx="14" fill="#0433FF"/>
<path d="M24.0666 19.8333L23.0667 17.5499H17.05L16.05 19.8333H12L17.4333 8.16663H22.6833L28.1001 19.8333H24.0666ZM18.2166 14.9166H21.9L20.0667 10.7333L18.2166 14.9166Z" fill="white"/>
<path d="M40.9546 11.0166H32.288V12.7499H40.9546V15.2499H32.288V16.9833H40.9546V19.8333H28.6213V8.16663H40.9546V11.0166Z" fill="white"/>
<path d="M55.3735 12.5333C55.3735 14.3333 54.5067 15.7499 53.09 16.4333L55.1899 19.8333H50.8566L49.1234 16.9166H45.4066V19.8333H41.74V8.16663H50.9068C53.557 8.16663 55.3735 9.93327 55.3735 12.5333ZM45.4066 11.2666V13.8166H50.0735C50.7568 13.8166 51.7069 13.8166 51.7069 12.5333C51.7069 11.2666 50.7568 11.2666 50.0735 11.2666H45.4066Z" fill="white"/>
<path d="M63.2783 20C58.1449 20 55.9451 17.95 55.9451 13.9833C55.9451 10.0334 58.1449 8 63.2783 8C68.3952 8 70.6116 10.05 70.6116 13.9833C70.6116 17.9333 68.3952 20 63.2783 20ZM63.2783 16.9C66.1282 16.9 66.9449 15.7833 66.9449 13.9833C66.9449 12.2 66.1452 11.1 63.2783 11.1C60.4284 11.1 59.6117 12.1833 59.6117 13.9833C59.6117 15.8 60.445 16.9 63.2783 16.9Z" fill="white"/>
<path d="M79.978 8.16663C82.878 8.16663 85.5282 10.0333 85.5282 14C85.5282 17.9666 82.878 19.8333 79.978 19.8333H71.395V8.16663H79.978ZM78.7283 16.7333C80.3281 16.7333 81.8616 16.4999 81.8616 14C81.8616 11.4999 80.3281 11.2666 78.7283 11.2666H75.0616V16.7333H78.7283Z" fill="white"/>
<path d="M99.9533 12.5333C99.9533 14.3333 99.0865 15.7499 97.6698 16.4333L99.7698 19.8333H95.4364L93.7032 16.9166H89.9864V19.8333H86.3198V8.16663H95.4866C98.1364 8.16663 99.9533 9.93327 99.9533 12.5333ZM89.9864 11.2666V13.8166H94.6533C95.3366 13.8166 96.2867 13.8166 96.2867 12.5333C96.2867 11.2666 95.3366 11.2666 94.6533 11.2666H89.9864Z" fill="white"/>
<path d="M107.859 20C102.725 20 100.525 17.95 100.525 13.9833C100.525 10.0334 102.725 8 107.859 8C112.975 8 115.192 10.05 115.192 13.9833C115.192 17.9333 112.975 20 107.859 20ZM107.859 16.9C110.709 16.9 111.525 15.7833 111.525 13.9833C111.525 12.2 110.725 11.1 107.859 11.1C105.009 11.1 104.192 12.1833 104.192 13.9833C104.192 15.8 105.025 16.9 107.859 16.9Z" fill="white"/>
<path d="M133.842 8.16663V19.8333H130.175V13.0333L126.159 19.8333H123.658L119.642 13.0166V19.8333H115.975V8.16663H120.675L124.925 15.6166L129.159 8.16663H133.842Z" fill="white"/>
<path d="M147.172 11.0166H138.506V12.7499H147.172V15.2499H138.506V16.9833H147.172V19.8333H134.839V8.16663H147.172V11.0166Z" fill="white"/>
</svg>
