<svg width="24" height="24" viewBox="0 0 24 24" fill="none" xmlns="http://www.w3.org/2000/svg">
<path d="M19.5 14.2523V11.6273C19.5 9.76336 17.989 8.25232 16.125 8.25232H14.625C14.0037 8.25232 13.5 7.74864 13.5 7.12732V5.62732C13.5 3.76336 11.989 2.25232 10.125 2.25232H8.25M12 11.2523V18.7523M14.25 12.2859C13.5309 12.1008 12.7769 12.0023 12 12.0023C11.5893 12.0023 11.1851 12.0298 10.789 12.0831C10.2532 12.1552 9.81539 12.5618 9.76771 13.1003C9.75599 13.2328 9.75 13.3668 9.75 13.5023C9.75 13.9666 10.0858 14.3461 10.5249 14.4967L13.4751 15.508C13.9142 15.6585 14.25 16.0381 14.25 16.5023C14.25 16.6378 14.244 16.7719 14.2323 16.9043C14.1846 17.4429 13.7468 17.8495 13.211 17.9215C12.8149 17.9748 12.4107 18.0023 12 18.0023C11.2231 18.0023 10.4691 17.9039 9.75 17.7188M10.5 2.25232H5.625C5.00368 2.25232 4.5 2.756 4.5 3.37732V20.6273C4.5 21.2486 5.00368 21.7523 5.625 21.7523H18.375C18.9963 21.7523 19.5 21.2486 19.5 20.6273V11.2523C19.5 6.28176 15.4706 2.25232 10.5 2.25232Z" stroke="#625CBF" stroke-width="1.5" stroke-linecap="round" stroke-linejoin="round"/>
</svg>
