<svg width="33" height="32" viewBox="0 0 33 32" fill="none" xmlns="http://www.w3.org/2000/svg">
<path d="M16.5 10H18.5M16.5 14H18.5M8.5 18H18.5M8.5 22H18.5M22.5 10H27C27.8284 10 28.5 10.6716 28.5 11.5V24C28.5 25.6569 27.1569 27 25.5 27M22.5 10V24C22.5 25.6569 23.8431 27 25.5 27M22.5 10V6.5C22.5 5.67157 21.8284 5 21 5H6C5.17157 5 4.5 5.67157 4.5 6.5V24C4.5 25.6569 5.84315 27 7.5 27H25.5M8.5 10H12.5V14H8.5V10Z" stroke="#FFFFFF" stroke-width="1.5" stroke-linecap="round" stroke-linejoin="round"/>
</svg>
