<svg width="24" height="25" viewBox="0 0 24 25" fill="none" xmlns="http://www.w3.org/2000/svg">
<path d="M9 6.76162V15.0116M15 9.01162V17.2616M15.5031 20.7601L20.3781 18.3226C20.7592 18.132 21 17.7425 21 17.3163V4.83191C21 3.9956 20.1199 3.45167 19.3719 3.82568L15.5031 5.76006C15.1864 5.91842 14.8136 5.91842 14.4969 5.76006L9.50312 3.26318C9.1864 3.10482 8.8136 3.10482 8.49688 3.26318L3.62188 5.70068C3.24075 5.89124 3 6.28079 3 6.70691V19.1913C3 20.0276 3.8801 20.5716 4.62811 20.1976L8.49688 18.2632C8.8136 18.1048 9.1864 18.1048 9.50312 18.2632L14.4969 20.7601C14.8136 20.9184 15.1864 20.9184 15.5031 20.7601Z" stroke="#625CBF" stroke-width="1.5" stroke-linecap="round" stroke-linejoin="round"/>
</svg>
