<svg xmlns="http://www.w3.org/2000/svg" width="20" height="21" viewBox="0 0 20 21" fill="#00122E">
<path d="M12 4.48302C12 4.0777 12.2623 3.73227 12.5588 3.45596C12.8348 3.1988 13 2.87193 13 2.51611C13 1.68769 12.1046 1.01611 11 1.01611C9.89543 1.01611 9 1.68769 9 2.51611C9 2.87812 9.17098 3.21017 9.45568 3.46932C9.74658 3.73412 10 4.06997 10 4.46333C10 5.02306 9.53506 5.47207 8.97644 5.43686C7.96056 5.37283 6.95522 5.27041 5.96183 5.13106C5.72871 5.09836 5.49377 5.177 5.32731 5.34346C5.16086 5.50991 5.08221 5.74486 5.11492 5.97798C5.25427 6.97136 5.35669 7.9767 5.42072 8.99258C5.45593 9.55119 5.00693 10.0161 4.44721 10.0161C4.05385 10.0161 3.718 9.76269 3.45322 9.4718C3.19406 9.1871 2.86201 9.01611 2.5 9.01611C1.67157 9.01611 1 9.91154 1 11.0161C1 12.1207 1.67157 13.0161 2.5 13.0161C2.85582 13.0161 3.1827 12.8509 3.43986 12.5749C3.71616 12.2784 4.06159 12.0161 4.4669 12.0161C5.03368 12.0161 5.4925 12.4794 5.47094 13.0458C5.42294 14.3068 5.31585 15.5525 5.1524 16.7801C5.09796 17.189 5.38386 17.565 5.79236 17.622C6.84158 17.7681 7.90341 17.8746 8.97626 17.9397C9.53523 17.9737 10 17.5243 10 16.9643C10 16.5703 9.74616 16.234 9.45499 15.9687C9.17071 15.7096 9 15.3778 9 15.0161C9 14.1877 9.89543 13.5161 11 13.5161C12.1046 13.5161 13 14.1877 13 15.0161C13 15.3719 12.8349 15.6987 12.559 15.9558C12.2624 16.2323 12 16.5778 12 16.9832C12 17.5501 12.4632 18.0089 13.0296 17.9881C14.3674 17.9391 15.689 17.8259 16.9915 17.6515C17.3267 17.6066 17.5905 17.3429 17.6353 17.0076C17.8097 15.7052 17.9229 14.3835 17.972 13.0457C17.9928 12.4793 17.5339 12.0161 16.9671 12.0161C16.5617 12.0161 16.2161 12.2785 15.9397 12.5751C15.6826 12.851 15.3557 13.0161 15 13.0161C14.1716 13.0161 13.5 12.1207 13.5 11.0161C13.5 9.91154 14.1716 9.01611 15 9.01611C15.3617 9.01611 15.6935 9.18682 15.9526 9.47112C16.2179 9.76228 16.5542 10.0161 16.9481 10.0161C17.5081 10.0161 17.9575 9.55136 17.9236 8.99239C17.8584 7.91955 17.752 6.85772 17.6058 5.8085C17.5489 5.4 17.1728 5.11411 16.764 5.16854C15.5363 5.332 14.2907 5.43909 13.0297 5.48709C12.4633 5.50865 12 5.04981 12 4.48302Z"/>
</svg>