<svg width="20" height="20" viewBox="0 0 20 20" fill="none" xmlns="http://www.w3.org/2000/svg">
<path d="M3.19569 12.8717L2.37071 13.3553C2.14108 13.4899 2 13.7361 2 14.0023C2 14.2685 2.14108 14.5147 2.37071 14.6493L9.62071 18.8993C9.85493 19.0366 10.1451 19.0366 10.3793 18.8993L17.6293 14.6493C17.8589 14.5147 18 14.2685 18 14.0023C18 13.7361 17.8589 13.4899 17.6293 13.3553L16.8043 12.8717L11.1379 16.1934C10.4352 16.6053 9.56479 16.6053 8.86213 16.1934L3.19569 12.8717Z" stroke="#A39FED" stroke-width="1.5" stroke-linecap="round" stroke-linejoin="round"/>
<path d="M3.19569 8.87169L2.37071 9.3553C2.14108 9.48991 2 9.73614 2 10.0023C2 10.2685 2.14108 10.5147 2.37071 10.6493L9.62071 14.8993C9.85493 15.0366 10.1451 15.0366 10.3793 14.8993L17.6293 10.6493C17.8589 10.5147 18 10.2685 18 10.0023C18 9.73614 17.8589 9.48991 17.6293 9.3553L16.8043 8.87169L11.1379 12.1934C10.4352 12.6053 9.56479 12.6053 8.86213 12.1934L3.19569 8.87169Z" stroke="#A39FED" stroke-width="1.5" stroke-linecap="round" stroke-linejoin="round"/>
<path d="M10.3793 1.1053C10.1451 0.967994 9.85493 0.967994 9.62071 1.1053L2.37071 5.3553C2.14108 5.48991 2 5.73614 2 6.00232C2 6.2685 2.14108 6.51473 2.37071 6.64934L9.62071 10.8993C9.85493 11.0366 10.1451 11.0366 10.3793 10.8993L17.6293 6.64934C17.8589 6.51473 18 6.2685 18 6.00232C18 5.73614 17.8589 5.48991 17.6293 5.3553L10.3793 1.1053Z" stroke="#A39FED" stroke-width="1.5" stroke-linecap="round" stroke-linejoin="round"/>
</svg>
