<svg width="16" height="16" viewBox="0 0 16 16" fill="none" xmlns="http://www.w3.org/2000/svg">
<path d="M10.4023 1.59961C12.6112 1.59982 14.4021 3.39078 14.4023 5.59961C14.4023 7.80862 12.6113 9.5994 10.4023 9.59961C10.0165 9.59961 9.64305 9.54531 9.29004 9.44336L7.76758 10.9658C7.6176 11.1157 7.41421 11.2001 7.20215 11.2002H6.40234V12C6.40234 12.4418 6.04339 12.7998 5.60156 12.7998H4.80176V13.5996C4.80176 14.0414 4.44378 14.4004 4.00195 14.4004H2.40234C1.96052 14.4004 1.60156 14.0414 1.60156 13.5996V12C1.60156 11.788 1.68609 11.5846 1.83594 11.4346L6.55859 6.71191C6.45665 6.3589 6.40234 5.98545 6.40234 5.59961C6.40255 3.39065 8.19334 1.59961 10.4023 1.59961ZM10.4023 3.0498C9.9882 3.0498 9.65245 3.38568 9.65234 3.7998C9.65234 4.21402 9.98813 4.5498 10.4023 4.5498C10.9819 4.55002 11.4519 5.02002 11.4521 5.59961C11.4521 6.01376 11.788 6.3495 12.2021 6.34961C12.6162 6.3494 12.9521 6.01369 12.9521 5.59961C12.9519 4.19159 11.8104 3.05002 10.4023 3.0498Z" fill="#978CFB"/>
</svg>
